<?xml version="1.0" encoding="utf-8" standalone="yes"?>
<!DOCTYPE svg PUBLIC "-//W3C//DTD SVG 1.1//EN" "http://www.w3.org/Graphics/SVG/1.1/DTD/svg11.dtd">
<svg style="fill:none;stroke:none;fill-rule:evenodd;clip-rule:evenodd;stroke-linecap:round;stroke-linejoin:round;stroke-miterlimit:1.5;" version="1.1" xmlns="http://www.w3.org/2000/svg" xmlns:xlink="http://www.w3.org/1999/xlink" width="1955" height="457" viewBox="0 0 1955 457"><style class="text-font-style fontImports" data-font-family="Roboto">@import url(https://fonts.googleapis.com/css2?family=Roboto:wght@400;700&amp;amp;display=block);</style><g id="items" style="isolation: isolate"><g id="blend" style="mix-blend-mode: normal"><g id="g-root-cp_1_lines-1_hrix5jfmn9qn-fill" data-item-order="-627908" transform="translate(20, 170.10205078125)"></g><g id="g-root-cp_1_lines-1_hrix5jfmn9qn-stroke" data-item-order="-627908" transform="translate(20, 170.10205078125)"><g id="cp_1_lines-1_hrix5jfmn9qn-stroke" fill="none" stroke-linecap="round" stroke-linejoin="round" stroke-miterlimit="4" stroke="#1ac6ff" stroke-width="2" stroke-opacity="1"><g><path d="M 25 42.399994C 16.7157 42.399994 10 35.146986 10 26.199997C 10 17.253009 16.7157 10 25 10M 48.864563 42.399994C 57.148865 42.399994 63.864563 35.146986 63.864563 26.199997C 63.864563 17.253009 57.148865 10 48.864563 10M 25 10L 48.864563 10M 48.864563 42.399994L 25 42.399994"></path></g></g></g><g id="g-root-cp_2_lines-2_8vvwwnfmnbb4-fill" data-item-order="-627866" transform="translate(145.6262664794922, 147.30206298828125)"></g><g id="g-root-cp_2_lines-2_8vvwwnfmnbb4-stroke" data-item-order="-627866" transform="translate(145.6262664794922, 147.30206298828125)"><g id="cp_2_lines-2_8vvwwnfmnbb4-stroke" fill="none" stroke-linecap="round" stroke-linejoin="round" stroke-miterlimit="4" stroke="#1ac6ff" stroke-width="2" stroke-opacity="1"><g><path d="M 132.915391 10L 134.590791 10C 137.702191 10 139.899291 13.0482 138.915391 15.9999M 16.239369 87.999908L 14.563969 87.999908C 11.452569 88.000008 9.255469 84.951708 10.239369 82.000008M 25.238297 10.0014L 132.915391 10M 131.915391 82.001473C 130.755591 85.480073 127.915391 87.999973 123.915391 87.999973M 17.238297 15.9985C 18.398097 12.5199 21.238297 10 25.238297 10M 15.238297 88.000008L 123.915391 88.000008M 131.915391 82.000008L 138.915391 16M 17.238297 16L 10.238297 82.000008"></path></g></g></g><g id="g-root-cp_3_lines-3_8wnrfmnc3t-fill" data-item-order="-627808" transform="translate(346.5416564941406, 148.1978759765625)"></g><g id="g-root-cp_3_lines-3_8wnrfmnc3t-stroke" data-item-order="-627808" transform="translate(346.5416564941406, 148.1978759765625)"><g id="cp_3_lines-3_8wnrfmnc3t-stroke" fill="none" stroke-linecap="round" stroke-linejoin="round" stroke-miterlimit="4" stroke="#1ac6ff" stroke-width="2" stroke-opacity="1"><g><path d="M 16 10L 14 10C 11.7909 10 10 11.7909 10 14L 10 16M 10 16L 10 80.208328M 125.416672 16L 125.416672 80.208328M 16 10L 119.416672 10M 16 86.208328L 14 86.208328C 11.7909 86.208328 10 84.417428 10 82.208328L 10 80.208328M 119.416672 10L 121.416672 10C 123.625772 10 125.416672 11.7909 125.416672 14L 125.416672 16M 119.416672 86.208328L 16 86.208328M 119.416672 86.208328L 121.416672 86.208328C 123.625772 86.208328 125.416672 84.417428 125.416672 82.208328L 125.416672 80.208328"></path></g></g></g><g id="g-root-cp_4_lines-4_1um5xljfmn9j6-fill" data-item-order="-627756" transform="translate(533.9583740234375, 128)"></g><g id="g-root-cp_4_lines-4_1um5xljfmn9j6-stroke" data-item-order="-627756" transform="translate(533.9583740234375, 128)"><g id="cp_4_lines-4_1um5xljfmn9j6-stroke" fill="none" stroke-linecap="round" stroke-linejoin="round" stroke-miterlimit="4" stroke="#f99539" stroke-width="2" stroke-opacity="1"><g><path d="M 10 41C 10 39.5 10.975228 38 12.879748 37.128901L 71.851082 10.8325C 74.122482 9.7225 76.554665 9.7225 78.826073 10.8325L 137.797401 37.128901C 139.70192 38 140.677155 39.5 140.677155 41M 10 95.604141C 10 97.104141 10.975228 98.604141 12.879748 99.475243L 71.851082 125.771645C 74.122482 126.881638 76.554665 126.881638 78.826073 125.771645L 137.797401 99.475243C 139.70192 98.604141 140.677155 97.104141 140.677155 95.604141M 10.000297 41.000444C 9.999703 52.944199 10.000099 84.059914 10.000297 95.604134M 140.677155 95.604134C 140.677155 84.059914 140.677155 54.48175 140.677155 40.999994"></path></g></g></g><g id="g-root-cp_5_lines-5_1lqixcnfmnabv-fill" data-item-order="-627712" transform="translate(736.635498046875, 154.5)"></g><g id="g-root-cp_5_lines-5_1lqixcnfmnabv-stroke" data-item-order="-627712" transform="translate(736.635498046875, 154.5)"><g id="cp_5_lines-5_1lqixcnfmnabv-stroke" fill="none" stroke-linecap="round" stroke-linejoin="round" stroke-miterlimit="4" stroke="#1ac6ff" stroke-width="2" stroke-opacity="1"><g><path d="M 16 10L 14 10C 11.7909 10 10 11.7909 10 14L 10 16M 10 16L 10 67.604164M 140.322906 16L 140.322906 67.604164M 16 10L 134.322906 10M 16 73.604164L 14 73.604164C 11.7909 73.604164 10 71.813264 10 69.604164L 10 67.604164M 134.322906 10L 136.322906 10C 138.532006 10 140.322906 11.7909 140.322906 14L 140.322906 16M 134.322906 73.604164L 16 73.604164M 134.322906 73.604164L 136.322906 73.604164C 138.532006 73.604164 140.322906 71.813264 140.322906 69.604164L 140.322906 67.604164"></path></g></g></g><g id="g-root-cp_6_lines-6_18f2ezbfmnbws-fill" data-item-order="-627660" transform="translate(938.9583740234375, 135.1978759765625)"></g><g id="g-root-cp_6_lines-6_18f2ezbfmnbws-stroke" data-item-order="-627660" transform="translate(938.9583740234375, 135.1978759765625)"><g id="cp_6_lines-6_18f2ezbfmnbws-stroke" fill="none" stroke-linecap="round" stroke-linejoin="round" stroke-miterlimit="4" stroke="#f99539" stroke-width="2" stroke-opacity="1"><g><path d="M 10 41C 10 39.5 10.879143 38 12.596019 37.128901L 65.757156 10.8325C 67.804771 9.7225 69.997318 9.7225 72.04493 10.8325L 125.20607 37.128901C 126.922943 38 127.802094 39.5 127.802094 41M 10 81.208328C 10 82.708328 10.879143 84.208328 12.596019 85.07943L 65.757156 111.375832C 67.804771 112.485825 69.997318 112.485825 72.04493 111.375832L 125.20607 85.07943C 126.922943 84.208328 127.802094 82.708328 127.802094 81.208328M 10.000268 41.000332C 9.999732 49.795238 10.000089 72.707619 10.000268 81.208328M 127.802094 81.208328C 127.802094 72.707619 127.802094 50.927433 127.802094 40.999998"></path></g></g></g><g id="g-root-cp_7_lines-7_13zvdxzfmn9j9-fill" data-item-order="-627616" transform="translate(1128.760498046875, 154.5)"></g><g id="g-root-cp_7_lines-7_13zvdxzfmn9j9-stroke" data-item-order="-627616" transform="translate(1128.760498046875, 154.5)"><g id="cp_7_lines-7_13zvdxzfmn9j9-stroke" fill="none" stroke-linecap="round" stroke-linejoin="round" stroke-miterlimit="4" stroke="#1ac6ff" stroke-width="2" stroke-opacity="1"><g><path d="M 16 10L 14 10C 11.7909 10 10 11.7909 10 14L 10 16M 10 16L 10 67.604164M 137.5625 16L 137.5625 67.604164M 16 10L 131.5625 10M 16 73.604164L 14 73.604164C 11.7909 73.604164 10 71.813264 10 69.604164L 10 67.604164M 131.5625 10L 133.5625 10C 135.7716 10 137.5625 11.7909 137.5625 14L 137.5625 16M 131.5625 73.604164L 16 73.604164M 131.5625 73.604164L 133.5625 73.604164C 135.7716 73.604164 137.5625 71.813264 137.5625 69.604164L 137.5625 67.604164"></path></g></g></g><g id="g-root-cp_8_lines-8_v48dp3fmnaby-fill" data-item-order="-627564" transform="translate(1364.322998046875, 186.6510009765625)"></g><g id="g-root-cp_8_lines-8_v48dp3fmnaby-stroke" data-item-order="-627564" transform="translate(1364.322998046875, 186.6510009765625)"><g id="cp_8_lines-8_v48dp3fmnaby-stroke" fill="none" stroke-linecap="round" stroke-linejoin="round" stroke-miterlimit="4" stroke="#f99539" stroke-width="2" stroke-opacity="1"><g><path d="M 10 41C 10 39.5 10.987587 38 12.916245 37.128901L 72.63496 10.8325C 74.93515 9.7225 77.398155 9.7225 79.698349 10.8325L 139.417068 37.128901C 141.345718 38 142.333313 39.5 142.333313 41M 10 81.208328C 10 82.708328 10.987587 84.208328 12.916245 85.07943L 72.63496 111.375832C 74.93515 112.485825 77.398155 112.485825 79.698349 111.375832L 139.417068 85.07943C 141.345718 84.208328 142.333313 82.708328 142.333313 81.208328M 10.000301 41.000332C 9.999699 49.795238 10.0001 72.707619 10.000301 81.208328M 142.333313 81.208328C 142.333313 72.707619 142.333313 50.927433 142.333313 40.999998"></path></g></g></g><g id="g-root-cp_9_lines-9_qoevknfmnb47-fill" data-item-order="-627520" transform="translate(1568.6561279296875, 192.453125)"></g><g id="g-root-cp_9_lines-9_qoevknfmnb47-stroke" data-item-order="-627520" transform="translate(1568.6561279296875, 192.453125)"><g id="cp_9_lines-9_qoevknfmnb47-stroke" fill="none" stroke-linecap="round" stroke-linejoin="round" stroke-miterlimit="4" stroke="#1ac6ff" stroke-width="2" stroke-opacity="1"><g><path d="M 16 10L 14 10C 11.7909 10 10 11.7909 10 14L 10 16M 10 16L 10 94.604172M 137.083313 16L 137.083313 94.604172M 16 10L 131.083313 10M 16 100.604172L 14 100.604172C 11.7909 100.604172 10 98.813272 10 96.604172L 10 94.604172M 131.083313 10L 133.083313 10C 135.292413 10 137.083313 11.7909 137.083313 14L 137.083313 16M 131.083313 100.604172L 16 100.604172M 131.083313 100.604172L 133.083313 100.604172C 135.292413 100.604172 137.083313 98.813272 137.083313 96.604172L 137.083313 94.604172"></path></g></g></g><g id="g-root-cp_10_lines-10_ddkuaffmn9jc-fill" data-item-order="-627468" transform="translate(1568.65625, 303.0572509765625)"></g><g id="g-root-cp_10_lines-10_ddkuaffmn9jc-stroke" data-item-order="-627468" transform="translate(1568.65625, 303.0572509765625)"><g id="cp_10_lines-10_ddkuaffmn9jc-stroke" fill="none" stroke-linecap="round" stroke-linejoin="round" stroke-miterlimit="4" stroke="#1ac6ff" stroke-width="2" stroke-opacity="1"><g><path d="M 16 10L 14 10C 11.7909 10 10 11.7909 10 14L 10 16M 10 16L 10 67.604156M 139.75 16L 139.75 67.604156M 16 10L 133.75 10M 16 73.604156L 14 73.604156C 11.7909 73.604156 10 71.813256 10 69.604156L 10 67.604156M 133.75 10L 135.75 10C 137.9591 10 139.75 11.7909 139.75 14L 139.75 16M 133.75 73.604156L 16 73.604156M 133.75 73.604156L 135.75 73.604156C 137.9591 73.604156 139.75 71.813256 139.75 69.604156L 139.75 67.604156"></path></g></g></g><g id="g-root-cp_11_lines-11_8xrc5zfmnabl-fill" data-item-order="-627416" transform="translate(1770.40625, 261.25518798828125)"></g><g id="g-root-cp_11_lines-11_8xrc5zfmnabl-stroke" data-item-order="-627416" transform="translate(1770.40625, 261.25518798828125)"><g id="cp_11_lines-11_8xrc5zfmnabl-stroke" fill="none" stroke-linecap="round" stroke-linejoin="round" stroke-miterlimit="4" stroke="#1ac6ff" stroke-width="2" stroke-opacity="1"><g><path d="M 16 10L 14 10C 11.7909 10 10 11.7909 10 14L 10 16M 10 16L 10 67.604176M 123.875122 16L 123.875122 67.604176M 16 10L 117.875122 10M 16 73.604172L 14 73.604172C 11.7909 73.604172 10 71.813272 10 69.604172L 10 67.604172M 117.875122 10L 119.875122 10C 122.084222 10 123.875122 11.7909 123.875122 14L 123.875122 16M 117.875122 73.604172L 16 73.604172M 117.875122 73.604172L 119.875122 73.604172C 122.084222 73.604172 123.875122 71.813272 123.875122 69.604172L 123.875122 67.604172"></path></g></g></g><g id="g-root-cp_12_lines-12_1unevrrfmnbpe-fill" data-item-order="-627364" transform="translate(736.635498046875, 278.60626220703125)"></g><g id="g-root-cp_12_lines-12_1unevrrfmnbpe-stroke" data-item-order="-627364" transform="translate(736.635498046875, 278.60626220703125)"><g id="cp_12_lines-12_1unevrrfmnbpe-stroke" fill="none" stroke-linecap="round" stroke-linejoin="round" stroke-miterlimit="4" stroke="#1ac6ff" stroke-width="2" stroke-opacity="1"><g><path d="M 16 10L 14 10C 11.7909 10 10 11.7909 10 14L 10 16M 10 16L 10 82.000015M 138.270874 16L 138.270874 82.000015M 16 10L 132.270874 10M 16 88.000015L 14 88.000015C 11.7909 88.000015 10 86.209115 10 84.000015L 10 82.000015M 132.270874 10L 134.270874 10C 136.479974 10 138.270874 11.7909 138.270874 14L 138.270874 16M 132.270874 88.000015L 16 88.000015M 132.270874 88.000015L 134.270874 88.000015C 136.479974 88.000015 138.270874 86.209115 138.270874 84.000015L 138.270874 82.000015"></path></g></g></g><g id="g-root-cp_13_lines-13_1lseclzfmn9cb-fill" data-item-order="-627312" transform="translate(938.9583740234375, 301.40625)"></g><g id="g-root-cp_13_lines-13_1lseclzfmn9cb-stroke" data-item-order="-627312" transform="translate(938.9583740234375, 301.40625)"><g id="cp_13_lines-13_1lseclzfmn9cb-stroke" fill="none" stroke-linecap="round" stroke-linejoin="round" stroke-miterlimit="4" stroke="#1ac6ff" stroke-width="2" stroke-opacity="1"><g><path d="M 25 42.399994C 16.7157 42.399994 10 35.146986 10 26.199997C 10 17.253009 16.7157 10 25 10M 43.218719 42.399994C 51.503021 42.399994 58.218719 35.146986 58.218719 26.199997C 58.218719 17.253009 51.503021 10 43.218719 10M 25 10L 43.218719 10M 43.218719 42.399994L 25 42.399994"></path></g></g></g><g id="g-root-he_1hckuhjfmna4l-fill" data-item-order="-627272" transform="translate(73.86459350585938, 186.30206298828125)"></g><g id="g-root-he_1hckuhjfmna4l-stroke" data-item-order="-627272" transform="translate(73.86459350585938, 186.30206298828125)"><g id="he_1hckuhjfmna4l-stroke" fill="none" stroke-linecap="round" stroke-linejoin="round" stroke-miterlimit="4" stroke="#ffffff" stroke-width="2" stroke-opacity="1"><style>.fillAsHole-mk-mccqxjfmvpxg { fill:#FFFFFF; }</style><g><path d="M 13 10L 80 10"></path><path d="M 7 10C 7 11.656854 8.343146 13 10 13C 11.656854 13 13 11.656854 13 10C 13 8.343146 11.656854 7 10 7C 8.343146 7 7 8.343146 7 10Z" stroke-dasharray="none" class="fillAsHole-mk-mccqxjfmvpxg" fill="#FFFFFF"></path><path d="M 74 16.5L 80.5 10L 74 3.5" stroke-dasharray="none"></path></g></g></g><g id="g-root-he_18gxu8nfmnaxb-fill" data-item-order="-627270" transform="translate(274.54168701171875, 186.30206298828125)"></g><g id="g-root-he_18gxu8nfmnaxb-stroke" data-item-order="-627270" transform="translate(274.54168701171875, 186.30206298828125)"><g id="he_18gxu8nfmnaxb-stroke" fill="none" stroke-linecap="round" stroke-linejoin="round" stroke-miterlimit="4" stroke="#ffffff" stroke-width="2" stroke-opacity="1"><style>.fillAsHole-mk-dgpqonfmvqq5 { fill:#FFFFFF; }</style><g><path d="M 13 10L 80 10"></path><path d="M 7 10C 7 11.656854 8.343146 13 10 13C 11.656854 13 13 11.656854 13 10C 13 8.343146 11.656854 7 10 7C 8.343146 7 7 8.343146 7 10Z" stroke-dasharray="none" class="fillAsHole-mk-dgpqonfmvqq5" fill="#FFFFFF"></path><path d="M 74 16.5L 80.5 10L 74 3.5" stroke-dasharray="none"></path></g></g></g><g id="g-root-he_1cwrcd3fmnawx-fill" data-item-order="-627268" transform="translate(461.9583740234375, 186.30206298828125)"></g><g id="g-root-he_1cwrcd3fmnawx-stroke" data-item-order="-627268" transform="translate(461.9583740234375, 186.30206298828125)"><g id="he_1cwrcd3fmnawx-stroke" fill="none" stroke-linecap="round" stroke-linejoin="round" stroke-miterlimit="4" stroke="#ffffff" stroke-width="2" stroke-opacity="1"><style>.fillAsHole-mk-dgpqonfmvqq6 { fill:#FFFFFF; }</style><g><path d="M 13 10L 80 10"></path><path d="M 7 10C 7 11.656854 8.343146 13 10 13C 11.656854 13 13 11.656854 13 10C 13 8.343146 11.656854 7 10 7C 8.343146 7 7 8.343146 7 10Z" stroke-dasharray="none" class="fillAsHole-mk-dgpqonfmvqq6" fill="#FFFFFF"></path><path d="M 74 16.5L 80.5 10L 74 3.5" stroke-dasharray="none"></path></g></g></g><g id="g-root-he_1cwrcd3fmnawz-fill" data-item-order="-627266" transform="translate(664.635498046875, 186.30206298828125)"></g><g id="g-root-he_1cwrcd3fmnawz-stroke" data-item-order="-627266" transform="translate(664.635498046875, 186.30206298828125)"><g id="he_1cwrcd3fmnawz-stroke" fill="none" stroke-linecap="round" stroke-linejoin="round" stroke-miterlimit="4" stroke="#ffffff" stroke-width="2" stroke-opacity="1"><style>.fillAsHole-mk-90w8k7fmvrif { fill:#FFFFFF; }</style><g><path d="M 13 10L 80 10"></path><path d="M 7 10C 7 11.656854 8.343146 13 10 13C 11.656854 13 13 11.656854 13 10C 13 8.343146 11.656854 7 10 7C 8.343146 7 7 8.343146 7 10Z" stroke-dasharray="none" class="fillAsHole-mk-90w8k7fmvrif" fill="#FFFFFF"></path><path d="M 74 16.5L 80.5 10L 74 3.5" stroke-dasharray="none"></path></g></g></g><g id="g-root-he_1414c47fmnbpp-fill" data-item-order="-627264" transform="translate(599.296875, 244.6041259765625)"></g><g id="g-root-he_1414c47fmnbpp-stroke" data-item-order="-627264" transform="translate(599.296875, 244.6041259765625)"><g id="he_1414c47fmnbpp-stroke" fill="none" stroke-linecap="round" stroke-linejoin="round" stroke-miterlimit="4" stroke="#ffffff" stroke-width="2" stroke-opacity="1"><style>.fillAsHole-mk-1ut1oiffmx3pr { fill:#FFFFFF; }</style><g><path d="M 10.000061 13L 10.000061 71C 10.000061 77.63 15.370061 83 22.000061 83L 145.340061 83"></path><path d="M 7.000061 10C 7.000061 11.656854 8.343207 13 10.000061 13C 11.656915 13 13.000061 11.656854 13.000061 10C 13.000061 8.343146 11.656915 7 10.000061 7C 8.343207 7 7.000061 8.343146 7.000061 10Z" stroke-dasharray="none" class="fillAsHole-mk-1ut1oiffmx3pr" fill="#FFFFFF"></path><path d="M 139.300061 89.5L 145.800061 83L 139.300061 76.5" stroke-dasharray="none"></path></g></g></g><g id="g-root-he_1414c47fmnbpr-fill" data-item-order="-627262" transform="translate(866.9583740234375, 186.30206298828125)"></g><g id="g-root-he_1414c47fmnbpr-stroke" data-item-order="-627262" transform="translate(866.9583740234375, 186.30206298828125)"><g id="he_1414c47fmnbpr-stroke" fill="none" stroke-linecap="round" stroke-linejoin="round" stroke-miterlimit="4" stroke="#ffffff" stroke-width="2" stroke-opacity="1"><style>.fillAsHole-mk-4lp7ivfmvp4x { fill:#FFFFFF; }</style><g><path d="M 13 10L 80 10"></path><path d="M 7 10C 7 11.656854 8.343146 13 10 13C 11.656854 13 13 11.656854 13 10C 13 8.343146 11.656854 7 10 7C 8.343146 7 7 8.343146 7 10Z" stroke-dasharray="none" class="fillAsHole-mk-4lp7ivfmvp4x" fill="#FFFFFF"></path><path d="M 74 16.5L 80.5 10L 74 3.5" stroke-dasharray="none"></path></g></g></g><g id="g-root-he_zlxb2vfmn9c9-fill" data-item-order="-627260" transform="translate(1056.760498046875, 186.30206298828125)"></g><g id="g-root-he_zlxb2vfmn9c9-stroke" data-item-order="-627260" transform="translate(1056.760498046875, 186.30206298828125)"><g id="he_zlxb2vfmn9c9-stroke" fill="none" stroke-linecap="round" stroke-linejoin="round" stroke-miterlimit="4" stroke="#ffffff" stroke-width="2" stroke-opacity="1"><style>.fillAsHole-mk-4lp7ivfmvp4y { fill:#FFFFFF; }</style><g><path d="M 13 10L 80 10"></path><path d="M 7 10C 7 11.656854 8.343146 13 10 13C 11.656854 13 13 11.656854 13 10C 13 8.343146 11.656854 7 10 7C 8.343146 7 7 8.343146 7 10Z" stroke-dasharray="none" class="fillAsHole-mk-4lp7ivfmvp4y" fill="#FFFFFF"></path><path d="M 74 16.5L 80.5 10L 74 3.5" stroke-dasharray="none"></path></g></g></g><g id="g-root-he_zlxb2vfmn9cb-fill" data-item-order="-627258" transform="translate(997.859375, 237.40625)"></g><g id="g-root-he_zlxb2vfmn9cb-stroke" data-item-order="-627258" transform="translate(997.859375, 237.40625)"><g id="he_zlxb2vfmn9cb-stroke" fill="none" stroke-linecap="round" stroke-linejoin="round" stroke-miterlimit="4" stroke="#ffffff" stroke-width="2" stroke-opacity="1"><style>.fillAsHole-mk-1lxeo9jfmx5a8 { fill:#FFFFFF; }</style><g><path d="M 10.000061 13L 10.000061 30C 10.000061 36.63 15.370061 42 22.000061 42L 328.460061 42C 335.090061 42 340.460061 36.63 340.460061 30L 340.460061 22.35C 340.460061 15.72 345.840061 10.35 352.460061 10.35L 374.460061 10.35"></path><path d="M 7.000061 10C 7.000061 11.656854 8.343207 13 10.000061 13C 11.656915 13 13.000061 11.656854 13.000061 10C 13.000061 8.343146 11.656915 7 10.000061 7C 8.343207 7 7.000061 8.343146 7.000061 10Z" stroke-dasharray="none" class="fillAsHole-mk-1lxeo9jfmx5a8" fill="#FFFFFF"></path><path d="M 368.500061 16.8L 375.000061 10.3L 368.500061 3.8" stroke-dasharray="none"></path></g></g></g><g id="g-root-he_zlxb2vfmn9cd-fill" data-item-order="-627256" transform="translate(1256.322998046875, 186.30206298828125)"></g><g id="g-root-he_zlxb2vfmn9cd-stroke" data-item-order="-627256" transform="translate(1256.322998046875, 186.30206298828125)"><g id="he_zlxb2vfmn9cd-stroke" fill="none" stroke-linecap="round" stroke-linejoin="round" stroke-miterlimit="4" stroke="#ffffff" stroke-width="2" stroke-opacity="1"><style>.fillAsHole-mk-1lxeo9jfmx5a9 { fill:#FFFFFF; }</style><g><path d="M 13 10L 70 10C 76.63 10 82 15.37 82 22L 82 49.45C 82 56.08 87.37 61.45 94 61.45L 116 61.45"></path><path d="M 7 10C 7 11.656854 8.343146 13 10 13C 11.656854 13 13 11.656854 13 10C 13 8.343146 11.656854 7 10 7C 8.343146 7 7 8.343146 7 10Z" stroke-dasharray="none" class="fillAsHole-mk-1lxeo9jfmx5a9" fill="#FFFFFF"></path><path d="M 110 68L 116.5 61.5L 110 55" stroke-dasharray="none"></path></g></g></g><g id="g-root-he_v63syffmna4n-fill" data-item-order="-627254" transform="translate(1496.65625, 237.75518798828125)"></g><g id="g-root-he_v63syffmna4n-stroke" data-item-order="-627254" transform="translate(1496.65625, 237.75518798828125)"><g id="he_v63syffmna4n-stroke" fill="none" stroke-linecap="round" stroke-linejoin="round" stroke-miterlimit="4" stroke="#ffffff" stroke-width="2" stroke-opacity="1"><style>.fillAsHole-mk-1qbcr4nfmvqit { fill:#FFFFFF; }</style><g><path d="M 13 10L 80 10"></path><path d="M 7 10C 7 11.656854 8.343146 13 10 13C 11.656854 13 13 11.656854 13 10C 13 8.343146 11.656854 7 10 7C 8.343146 7 7 8.343146 7 10Z" stroke-dasharray="none" class="fillAsHole-mk-1qbcr4nfmvqit" fill="#FFFFFF"></path><path d="M 74 16.5L 80.5 10L 74 3.5" stroke-dasharray="none"></path></g></g></g><g id="g-root-he_v63syffmna4p-fill" data-item-order="-627252" transform="translate(1430.48974609375, 288.859375)"></g><g id="g-root-he_v63syffmna4p-stroke" data-item-order="-627252" transform="translate(1430.48974609375, 288.859375)"><g id="he_v63syffmna4p-stroke" fill="none" stroke-linecap="round" stroke-linejoin="round" stroke-miterlimit="4" stroke="#ffffff" stroke-width="2" stroke-opacity="1"><style>.fillAsHole-mk-18mkmzbfmx3pe { fill:#FFFFFF; }</style><g><path d="M 9.999878 13L 9.999878 44C 9.999878 50.63 15.369878 56 21.999878 56L 146.169878 56"></path><path d="M 6.999878 10C 6.999878 11.656854 8.343024 13 9.999878 13C 11.656732 13 12.999878 11.656854 12.999878 10C 12.999878 8.343146 11.656732 7 9.999878 7C 8.343024 7 6.999878 8.343146 6.999878 10Z" stroke-dasharray="none" class="fillAsHole-mk-18mkmzbfmx3pe" fill="#FFFFFF"></path><path d="M 140.199878 62.5L 146.699878 56L 140.199878 49.5" stroke-dasharray="none"></path></g></g></g><g id="g-root-he_v63syffmna4r-fill" data-item-order="-627250" transform="translate(1695.739501953125, 237.75518798828125)"></g><g id="g-root-he_v63syffmna4r-stroke" data-item-order="-627250" transform="translate(1695.739501953125, 237.75518798828125)"><g id="he_v63syffmna4r-stroke" fill="none" stroke-linecap="round" stroke-linejoin="round" stroke-miterlimit="4" stroke="#ffffff" stroke-width="2" stroke-opacity="1"><style>.fillAsHole-mk-zqxmqffmx4i3 { fill:#FFFFFF; }</style><g><path d="M 13 10L 36.67 10C 43.29 10 48.67 15.37 48.67 22L 48.67 53.3C 48.67 59.93 54.04 65.3 60.67 65.3L 82.67 65.3"></path><path d="M 7 10C 7 11.656854 8.343146 13 10 13C 11.656854 13 13 11.656854 13 10C 13 8.343146 11.656854 7 10 7C 8.343146 7 7 8.343146 7 10Z" stroke-dasharray="none" class="fillAsHole-mk-zqxmqffmx4i3" fill="#FFFFFF"></path><path d="M 76.7 71.8L 83.2 65.3L 76.7 58.8" stroke-dasharray="none"></path></g></g></g><g id="g-root-he_qqaatzfmnax1-fill" data-item-order="-627248" transform="translate(1698.40625, 293.057373046875)"></g><g id="g-root-he_qqaatzfmnax1-stroke" data-item-order="-627248" transform="translate(1698.40625, 293.057373046875)"><g id="he_qqaatzfmnax1-stroke" fill="none" stroke-linecap="round" stroke-linejoin="round" stroke-miterlimit="4" stroke="#ffffff" stroke-width="2" stroke-opacity="1"><style>.fillAsHole-mk-zqxmqffmx4i4 { fill:#FFFFFF; }</style><g><path d="M 13 51.799939L 34 51.799939C 40.63 51.799939 46 46.429939 46 39.799939L 46 21.999939C 46 15.369939 51.37 9.999939 58 9.999939L 80 9.999939"></path><path d="M 7 51.801939C 7 53.458794 8.343146 54.80194 10 54.80194C 11.656854 54.80194 13 53.458794 13 51.80194C 13 50.145086 11.656854 48.80194 10 48.80194C 8.343146 48.80194 7 50.145086 7 51.80194Z" stroke-dasharray="none" class="fillAsHole-mk-zqxmqffmx4i4" fill="#FFFFFF"></path><path d="M 74 16.499939L 80.5 9.999939L 74 3.499939" stroke-dasharray="none"></path></g></g></g><g id="g-root-he_qqaatzfmnax3-fill" data-item-order="-627246" transform="translate(497.95843505859375, 186.30206298828125)"></g><g id="g-root-he_qqaatzfmnax3-stroke" data-item-order="-627246" transform="translate(497.95843505859375, 186.30206298828125)"><g id="he_qqaatzfmnax3-stroke" fill="none" stroke-linecap="round" stroke-linejoin="round" stroke-miterlimit="4" stroke="#ffffff" stroke-width="2" stroke-opacity="1"><style>.fillAsHole-mk-vb44lzfmx5ad { fill:#FFFFFF; }</style><g><path d="M 1399.319939 116.76L 1420.319939 116.76C 1426.949939 116.76 1432.319939 122.13 1432.319939 128.76L 1432.319939 210.36C 1432.319939 216.99 1426.949939 222.36 1420.319939 222.36L 21.999939 222.36C 15.369939 222.36 9.999939 216.99 9.999939 210.36L 9.999939 22C 9.999939 15.37 15.369939 10 21.999939 10L 43.999939 10"></path><path d="M 1393.322939 116.755C 1393.32298 118.411857 1394.666126 119.755003 1396.32298 119.755003C 1397.979835 119.755003 1399.32298 118.411857 1399.32298 116.755003C 1399.32298 115.098149 1397.979835 113.755003 1396.32298 113.755003C 1394.666126 113.755003 1393.32298 115.098149 1393.32298 116.755003Z" stroke-dasharray="none" class="fillAsHole-mk-vb44lzfmx5ad" fill="#FFFFFF"></path><path d="M 37.999939 16.5L 44.499939 10L 37.999939 3.5" stroke-dasharray="none"></path></g></g></g><g id="g-root-he_qqaatzfmnax5-fill" data-item-order="-627244" transform="translate(864.9063720703125, 317.60626220703125)"></g><g id="g-root-he_qqaatzfmnax5-stroke" data-item-order="-627244" transform="translate(864.9063720703125, 317.60626220703125)"><g id="he_qqaatzfmnax5-stroke" fill="none" stroke-linecap="round" stroke-linejoin="round" stroke-miterlimit="4" stroke="#ffffff" stroke-width="2" stroke-opacity="1"><style>.fillAsHole-mk-mfh4d3fmx632 { fill:#FFFFFF; }</style><g><path d="M 13 10L 82.05 10"></path><path d="M 7 10C 7 11.656854 8.343146 13 10 13C 11.656854 13 13 11.656854 13 10C 13 8.343146 11.656854 7 10 7C 8.343146 7 7 8.343146 7 10Z" stroke-dasharray="none" class="fillAsHole-mk-mfh4d3fmx632" fill="#FFFFFF"></path><path d="M 76.1 16.5L 82.6 10L 76.1 3.5" stroke-dasharray="none"></path></g></g></g><g id="g-root-tx_yes_1ut15jrfmoohu-fill" data-item-order="0" transform="translate(1063.0677490234375, 195.30206298828125)"><g id="tx_yes_1ut15jrfmoohu-fill-merged" stroke="none" fill="#ffffff" fill-opacity="1"><g><text style="font: 12px Roboto, sans-serif; white-space: pre;" transform="translate(21.6927490234375, 17.20001220703125)" font-size="12px" font-family="Roboto, sans-serif"><tspan x="-9.69" y="6.8" dominant-baseline="ideographic">Yes</tspan></text></g></g></g><g id="g-root-tx_yes_1ut15jrfmoohu-stroke" data-item-order="0" transform="translate(1063.0677490234375, 195.30206298828125)"></g><g id="g-root-tx_removeth_qva3ivfmoq2t-fill" data-item-order="0" transform="translate(1137.760498046875, 183.89996337890625)"><g id="tx_removeth_qva3ivfmoq2t-fill-merged" stroke="none" fill="#ffffff" fill-opacity="1"><g><text style="font: 10.5px Roboto, sans-serif; white-space: pre;" transform="translate(64.78125, 22.60211181640625)" font-size="10.5px" font-family="Roboto, sans-serif"><tspan x="-48.81" y="-0.6" dominant-baseline="ideographic">Remove the smallest </tspan><tspan x="-52.78" y="12" dominant-baseline="ideographic">element from the heap</tspan></text></g></g></g><g id="g-root-tx_removeth_qva3ivfmoq2t-stroke" data-item-order="0" transform="translate(1137.760498046875, 183.89996337890625)"></g><g id="g-root-tx_popminfr_146qlw7fmoohw-fill" data-item-order="0" transform="translate(1148.5001220703125, 163.5)"><g id="tx_popminfr_146qlw7fmoohw-fill-merged" stroke="none" fill="#1ac6ff" fill-opacity="1"><g><text style="font: 12px Roboto, sans-serif; white-space: pre;" transform="translate(54.0416259765625, 17.20001220703125)" font-size="12px" font-family="Roboto, sans-serif"><tspan x="-42.04" y="6.8" dominant-baseline="ideographic">Pop Min from H</tspan></text></g></g></g><g id="g-root-tx_popminfr_146qlw7fmoohw-stroke" data-item-order="0" transform="translate(1148.5001220703125, 163.5)"></g><g id="g-root-tx_ishsizea_me7n87fmooow-fill" data-item-order="0" transform="translate(959.9583740234375, 157.19793701171875)"><g id="tx_ishsizea_me7n87fmooow-fill-merged" stroke="none" fill="#f99539" fill-opacity="1"><g><text style="font: 12px Roboto, sans-serif; white-space: pre;" transform="translate(47.90106201171875, 17.20001220703125)" font-size="12px" font-family="Roboto, sans-serif"><tspan x="-35.9" y="6.8" dominant-baseline="ideographic">Is H.Size &gt; A?</tspan></text></g></g></g><g id="g-root-tx_ishsizea_me7n87fmooow-stroke" data-item-order="0" transform="translate(959.9583740234375, 157.19793701171875)"></g><g id="g-root-tx_ishsizea_dkg28nfmoohy-fill" data-item-order="0" transform="translate(1389.140625, 208.6510009765625)"><g id="tx_ishsizea_dkg28nfmoohy-fill-merged" stroke="none" fill="#f99539" fill-opacity="1"><g><text style="font: 12px Roboto, sans-serif; white-space: pre;" transform="translate(51.3489990234375, 17.20001220703125)" font-size="12px" font-family="Roboto, sans-serif"><tspan x="-39.35" y="6.8" dominant-baseline="ideographic">Is H.Size == A?</tspan></text></g></g></g><g id="g-root-tx_ishsizea_dkg28nfmoohy-stroke" data-item-order="0" transform="translate(1389.140625, 208.6510009765625)"></g><g id="g-root-tx_peekminf_qn5xeffmq3nm-fill" data-item-order="0" transform="translate(1584.052001953125, 201.453125)"><g id="tx_peekminf_qn5xeffmq3nm-fill-merged" stroke="none" fill="#1ac6ff" fill-opacity="1"><g><text style="font: 12px Roboto, sans-serif; white-space: pre;" transform="translate(58.1458740234375, 24.39788818359375)" font-size="12px" font-family="Roboto, sans-serif"><tspan x="-46.15" y="-0.4" dominant-baseline="ideographic">Peek Min from H </tspan><tspan x="-35.63" y="14" dominant-baseline="ideographic">and Add to R</tspan></text></g></g></g><g id="g-root-tx_peekminf_qn5xeffmq3nm-stroke" data-item-order="0" transform="translate(1584.052001953125, 201.453125)"></g><g id="g-root-tx_pushbion_18koorbfmoopa-fill" data-item-order="0" transform="translate(757.1146240234375, 163.5)"><g id="tx_pushbion_18koorbfmoopa-fill-merged" stroke="none" fill="#1ac6ff" fill-opacity="1"><g><text style="font: 12px Roboto, sans-serif; white-space: pre;" transform="translate(54.68231201171875, 17.20001220703125)" font-size="12px" font-family="Roboto, sans-serif"><tspan x="-42.68" y="6.8" dominant-baseline="ideographic">Push B[i] onto H</tspan></text></g></g></g><g id="g-root-tx_pushbion_18koorbfmoopa-stroke" data-item-order="0" transform="translate(757.1146240234375, 163.5)"></g><g id="g-root-tx_checkifh_92r4uvfmoq9t-fill" data-item-order="0" transform="translate(960.171875, 177.597900390625)"><g id="tx_checkifh_92r4uvfmoq9t-fill-merged" stroke="none" fill="#ffffff" fill-opacity="1"><g><text style="font: 10.5px Roboto, sans-serif; white-space: pre;" transform="translate(47.6875, 28.9041748046875)" font-size="10.5px" font-family="Roboto, sans-serif"><tspan x="-32.99" y="-6.9" dominant-baseline="ideographic">Check if heap </tspan><tspan x="-35.69" y="5.7" dominant-baseline="ideographic">exceeds target </tspan><tspan x="-16.13" y="18.3" dominant-baseline="ideographic">rank A</tspan></text></g></g></g><g id="g-root-tx_checkifh_92r4uvfmoq9t-stroke" data-item-order="0" transform="translate(960.171875, 177.597900390625)"></g><g id="g-root-tx_checkifh_8zjvbfmoq2v-fill" data-item-order="0" transform="translate(1385.322998046875, 229.051025390625)"><g id="tx_checkifh_8zjvbfmoq2v-fill-merged" stroke="none" fill="#ffffff" fill-opacity="1"><g><text style="font: 10.5px Roboto, sans-serif; white-space: pre;" transform="translate(55.1666259765625, 28.9041748046875)" font-size="10.5px" font-family="Roboto, sans-serif"><tspan x="-43.17" y="-6.9" dominant-baseline="ideographic">Check if heap size </tspan><tspan x="-36.21" y="5.7" dominant-baseline="ideographic">matches target </tspan><tspan x="-15.66" y="18.3" dominant-baseline="ideographic">rank A</tspan></text></g></g></g><g id="g-root-tx_checkifh_8zjvbfmoq2v-stroke" data-item-order="0" transform="translate(1385.322998046875, 229.051025390625)"></g><g id="g-root-tx_yes_5v6frfmoowc-fill" data-item-order="0" transform="translate(670.9428100585938, 195.30206298828125)"><g id="tx_yes_5v6frfmoowc-fill-merged" stroke="none" fill="#ffffff" fill-opacity="1"><g><text style="font: 12px Roboto, sans-serif; white-space: pre;" transform="translate(21.69268798828125, 17.20001220703125)" font-size="12px" font-family="Roboto, sans-serif"><tspan x="-9.69" y="6.8" dominant-baseline="ideographic">Yes</tspan></text></g></g></g><g id="g-root-tx_yes_5v6frfmoowc-stroke" data-item-order="0" transform="translate(670.9428100585938, 195.30206298828125)"></g><g id="g-root-tx_checkifc_mcc7yvfmopoj-fill" data-item-order="0" transform="translate(559.229248046875, 184.79583740234375)"><g id="tx_checkifc_mcc7yvfmopoj-fill-merged" stroke="none" fill="#ffffff" fill-opacity="1"><g><text style="font: 10.5px Roboto, sans-serif; white-space: pre;" transform="translate(50.06768798828125, 28.9041748046875)" font-size="10.5px" font-family="Roboto, sans-serif"><tspan x="-38.07" y="-6.9" dominant-baseline="ideographic">Check if current </tspan><tspan x="-34.43" y="5.7" dominant-baseline="ideographic">index is within </tspan><tspan x="-31.63" y="18.3" dominant-baseline="ideographic">array bounds</tspan></text></g></g></g><g id="g-root-tx_checkifc_mcc7yvfmopoj-stroke" data-item-order="0" transform="translate(559.229248046875, 184.79583740234375)"></g><g id="g-root-tx_no_1hhkn6ffmoq2r-fill" data-item-order="0" transform="translate(969.1563110351562, 246.20623779296875)"><g id="tx_no_1hhkn6ffmoq2r-fill-merged" stroke="none" fill="#ffffff" fill-opacity="1"><g><text style="font: 12px Roboto, sans-serif; white-space: pre;" transform="translate(19.703125, 17.20001220703125)" font-size="12px" font-family="Roboto, sans-serif"><tspan x="-7.7" y="6.8" dominant-baseline="ideographic">No</tspan></text></g></g></g><g id="g-root-tx_no_1hhkn6ffmoq2r-stroke" data-item-order="0" transform="translate(969.1563110351562, 246.20623779296875)"></g><g id="g-root-tx_yes_1lz9kk7fmooaw-fill" data-item-order="0" transform="translate(1502.9635009765625, 246.75518798828125)"><g id="tx_yes_1lz9kk7fmooaw-fill-merged" stroke="none" fill="#ffffff" fill-opacity="1"><g><text style="font: 12px Roboto, sans-serif; white-space: pre;" transform="translate(21.6927490234375, 17.20001220703125)" font-size="12px" font-family="Roboto, sans-serif"><tspan x="-9.69" y="6.8" dominant-baseline="ideographic">Yes</tspan></text></g></g></g><g id="g-root-tx_yes_1lz9kk7fmooaw-stroke" data-item-order="0" transform="translate(1502.9635009765625, 246.75518798828125)"></g><g id="g-root-tx_addthecu_dbpf13fmq58j-fill" data-item-order="0" transform="translate(1577.65625, 236.24896240234375)"><g id="tx_addthecu_dbpf13fmq58j-fill-merged" stroke="none" fill="#ffffff" fill-opacity="1"><g><text style="font: 10.5px Roboto, sans-serif; white-space: pre;" transform="translate(64.5416259765625, 28.9041748046875)" font-size="10.5px" font-family="Roboto, sans-serif"><tspan x="-37.21" y="-6.9" dominant-baseline="ideographic">Add the current </tspan><tspan x="-52.54" y="5.7" dominant-baseline="ideographic">minimum to the result </tspan><tspan x="-12.92" y="18.3" dominant-baseline="ideographic">array</tspan></text></g></g></g><g id="g-root-tx_addthecu_dbpf13fmq58j-stroke" data-item-order="0" transform="translate(1577.65625, 236.24896240234375)"></g><g id="g-root-tx_no_1lviq1jfmoqa5-fill" data-item-order="0" transform="translate(570.5938110351562, 273.90521240234375)"><g id="tx_no_1lviq1jfmoqa5-fill-merged" stroke="none" fill="#ffffff" fill-opacity="1"><g><text style="font: 12px Roboto, sans-serif; white-space: pre;" transform="translate(19.703125, 17.20001220703125)" font-size="12px" font-family="Roboto, sans-serif"><tspan x="-7.7" y="6.8" dominant-baseline="ideographic">No</tspan></text></g></g></g><g id="g-root-tx_no_1lviq1jfmoqa5-stroke" data-item-order="0" transform="translate(570.5938110351562, 273.90521240234375)"></g><g id="g-root-tx_isibleng_1cymrmffmopoi-fill" data-item-order="0" transform="translate(554.9583740234375, 150.00006103515625)"><g id="tx_isibleng_1cymrmffmopoi-fill-merged" stroke="none" fill="#f99539" fill-opacity="1"><g><text style="font: 12px Roboto, sans-serif; white-space: pre;" transform="translate(54.33856201171875, 24.39788818359375)" font-size="12px" font-family="Roboto, sans-serif"><tspan x="-42.34" y="-0.4" dominant-baseline="ideographic">Is i &lt;= B.Length-</tspan><tspan x="-6.2" y="14" dominant-baseline="ideographic">1?</tspan></text></g></g></g><g id="g-root-tx_isibleng_1cymrmffmopoi-stroke" data-item-order="0" transform="translate(554.9583740234375, 150.00006103515625)"></g><g id="g-root-tx_initiali_8zmrfbfmop3c-fill" data-item-order="0" transform="translate(357.7239990234375, 157.19793701171875)"><g id="tx_initiali_8zmrfbfmop3c-fill-merged" stroke="none" fill="#1ac6ff" fill-opacity="1"><g><text style="font: 12px Roboto, sans-serif; white-space: pre;" transform="translate(56.526031494140625, 17.20001220703125)" font-size="12px" font-family="Roboto, sans-serif"><tspan x="-44.53" y="6.8" dominant-baseline="ideographic">Initialize H and R</tspan></text></g></g></g><g id="g-root-tx_initiali_8zmrfbfmop3c-stroke" data-item-order="0" transform="translate(357.7239990234375, 157.19793701171875)"></g><g id="g-root-tx_receivet_magspjfmoqo7-fill" data-item-order="0" transform="translate(162.3229217529297, 191.097900390625)"><g id="tx_receivet_magspjfmoqo7-fill-merged" stroke="none" fill="#ffffff" fill-opacity="1"><g><text style="font: 10.5px Roboto, sans-serif; white-space: pre;" transform="translate(57.88020324707031, 22.60211181640625)" font-size="10.5px" font-family="Roboto, sans-serif"><tspan x="-45.88" y="-0.6" dominant-baseline="ideographic">Receive target rank </tspan><tspan x="-45.28" y="12" dominant-baseline="ideographic">A and input array B</tspan></text></g></g></g><g id="g-root-tx_receivet_magspjfmoqo7-stroke" data-item-order="0" transform="translate(162.3229217529297, 191.097900390625)"></g><g id="g-root-tx_incremen_zk1vtjfmq49a-fill" data-item-order="0" transform="translate(1779.453125, 270.25518798828125)"><g id="tx_incremen_zk1vtjfmq49a-fill-merged" stroke="none" fill="#1ac6ff" fill-opacity="1"><g><text style="font: 12px Roboto, sans-serif; white-space: pre;" transform="translate(57.890625, 17.20001220703125)" font-size="12px" font-family="Roboto, sans-serif"><tspan x="-45.89" y="6.8" dominant-baseline="ideographic">Increment Index i</tspan></text></g></g></g><g id="g-root-tx_incremen_zk1vtjfmq49a-stroke" data-item-order="0" transform="translate(1779.453125, 270.25518798828125)"></g><g id="g-root-tx_outputre_1lseclzfmq41s-fill" data-item-order="0" transform="translate(745.635498046875, 287.60626220703125)"><g id="tx_outputre_1lseclzfmq41s-fill-merged" stroke="none" fill="#1ac6ff" fill-opacity="1"><g><text style="font: 12px Roboto, sans-serif; white-space: pre;" transform="translate(65.13543701171875, 24.39788818359375)" font-size="12px" font-family="Roboto, sans-serif"><tspan x="-53.14" y="-0.4" dominant-baseline="ideographic">Output Result Array </tspan><tspan x="-5.19" y="14" dominant-baseline="ideographic">R</tspan></text></g></g></g><g id="g-root-tx_outputre_1lseclzfmq41s-stroke" data-item-order="0" transform="translate(745.635498046875, 287.60626220703125)"></g><g id="g-root-tx_inputaan_141qt7bfmoob2-fill" data-item-order="0" transform="translate(160.86459350585938, 156.3021240234375)"><g id="tx_inputaan_141qt7bfmoob2-fill-merged" stroke="none" fill="#1ac6ff" fill-opacity="1"><g><text style="font: 12px Roboto, sans-serif; white-space: pre;" transform="translate(59.33854675292969, 24.39788818359375)" font-size="12px" font-family="Roboto, sans-serif"><tspan x="-47.34" y="-0.4" dominant-baseline="ideographic">Input A and Array </tspan><tspan x="-5.22" y="14" dominant-baseline="ideographic">B</tspan></text></g></g></g><g id="g-root-tx_inputaan_141qt7bfmoob2-stroke" data-item-order="0" transform="translate(160.86459350585938, 156.3021240234375)"></g><g id="g-root-tx_start_4ikb4nfmonpe-fill" data-item-order="0" transform="translate(32, 179.10205078125)"><g id="tx_start_4ikb4nfmonpe-fill-merged" stroke="none" fill="#1ac6ff" fill-opacity="1"><g><text style="font: 12px Roboto, sans-serif; white-space: pre;" transform="translate(24.932292938232422, 17.20001220703125)" font-size="12px" font-family="Roboto, sans-serif"><tspan x="-12.93" y="6.8" dominant-baseline="ideographic">Start</tspan></text></g></g></g><g id="g-root-tx_start_4ikb4nfmonpe-stroke" data-item-order="0" transform="translate(32, 179.10205078125)"></g><g id="g-root-tx_movetoth_htecevfmq3gn-fill" data-item-order="0" transform="translate(1779.40625, 290.65521240234375)"><g id="tx_movetoth_htecevfmq3gn-fill-merged" stroke="none" fill="#ffffff" fill-opacity="1"><g><text style="font: 10.5px Roboto, sans-serif; white-space: pre;" transform="translate(57.9375, 22.60211181640625)" font-size="10.5px" font-family="Roboto, sans-serif"><tspan x="-38.8" y="-0.6" dominant-baseline="ideographic">Move to the next </tspan><tspan x="-45.94" y="12" dominant-baseline="ideographic">element in the array</tspan></text></g></g></g><g id="g-root-tx_movetoth_htecevfmq3gn-stroke" data-item-order="0" transform="translate(1779.40625, 290.65521240234375)"></g><g id="g-root-tx_initiali_1qa39zrfmoo3l-fill" data-item-order="0" transform="translate(355.54168701171875, 177.597900390625)"><g id="tx_initiali_1qa39zrfmoo3l-fill-merged" stroke="none" fill="#ffffff" fill-opacity="1"><g><text style="font: 10.5px Roboto, sans-serif; white-space: pre;" transform="translate(58.708343505859375, 28.9041748046875)" font-size="10.5px" font-family="Roboto, sans-serif"><tspan x="-46.71" y="-6.9" dominant-baseline="ideographic">Initialize empty Min-</tspan><tspan x="-43.24" y="5.7" dominant-baseline="ideographic">Heap H and empty </tspan><tspan x="-32.65" y="18.3" dominant-baseline="ideographic">Result Array R</tspan></text></g></g></g><g id="g-root-tx_initiali_1qa39zrfmoo3l-stroke" data-item-order="0" transform="translate(355.54168701171875, 177.597900390625)"></g><g id="g-root-tx_end_v63syffmq41u-fill" data-item-order="0" transform="translate(950.9583740234375, 310.40625)"><g id="tx_end_v63syffmq41u-fill-merged" stroke="none" fill="#1ac6ff" fill-opacity="1"><g><text style="font: 12px Roboto, sans-serif; white-space: pre;" transform="translate(22.109375, 17.20001220703125)" font-size="12px" font-family="Roboto, sans-serif"><tspan x="-10.11" y="6.8" dominant-baseline="ideographic">End</tspan></text></g></g></g><g id="g-root-tx_end_v63syffmq41u-stroke" data-item-order="0" transform="translate(950.9583740234375, 310.40625)"></g><g id="g-root-tx_no_18nt26vfmopvt-fill" data-item-order="0" transform="translate(1401.7864990234375, 304.65936279296875)"><g id="tx_no_18nt26vfmopvt-fill-merged" stroke="none" fill="#ffffff" fill-opacity="1"><g><text style="font: 12px Roboto, sans-serif; white-space: pre;" transform="translate(19.703125, 17.20001220703125)" font-size="12px" font-family="Roboto, sans-serif"><tspan x="-7.7" y="6.8" dominant-baseline="ideographic">No</tspan></text></g></g></g><g id="g-root-tx_no_18nt26vfmopvt-stroke" data-item-order="0" transform="translate(1401.7864990234375, 304.65936279296875)"></g><g id="g-root-tx_add1tor_1q6cfh3fmq498-fill" data-item-order="0" transform="translate(1602.328125, 312.05731201171875)"><g id="tx_add1tor_1q6cfh3fmq498-fill-merged" stroke="none" fill="#1ac6ff" fill-opacity="1"><g><text style="font: 12px Roboto, sans-serif; white-space: pre;" transform="translate(41.203125, 17.20001220703125)" font-size="12px" font-family="Roboto, sans-serif"><tspan x="-29.2" y="6.8" dominant-baseline="ideographic">Add -1 to R</tspan></text></g></g></g><g id="g-root-tx_add1tor_1q6cfh3fmq498-stroke" data-item-order="0" transform="translate(1602.328125, 312.05731201171875)"></g><g id="g-root-tx_returnth_18hkbbrfmq2gx-fill" data-item-order="0" transform="translate(747.7969970703125, 322.40203857421875)"><g id="tx_returnth_18hkbbrfmq2gx-fill-merged" stroke="none" fill="#ffffff" fill-opacity="1"><g><text style="font: 10.5px Roboto, sans-serif; white-space: pre;" transform="translate(62.97393798828125, 22.60211181640625)" font-size="10.5px" font-family="Roboto, sans-serif"><tspan x="-50.97" y="-0.6" dominant-baseline="ideographic">Return the final result </tspan><tspan x="-12.92" y="12" dominant-baseline="ideographic">array</tspan></text></g></g></g><g id="g-root-tx_returnth_18hkbbrfmq2gx-stroke" data-item-order="0" transform="translate(747.7969970703125, 322.40203857421875)"></g><g id="g-root-tx_append1t_1cvie6vfmq2od-fill" data-item-order="0" transform="translate(1577.65625, 332.45733642578125)"><g id="tx_append1t_1cvie6vfmq2od-fill-merged" stroke="none" fill="#ffffff" fill-opacity="1"><g><text style="font: 10.5px Roboto, sans-serif; white-space: pre;" transform="translate(65.875, 22.60211181640625)" font-size="10.5px" font-family="Roboto, sans-serif"><tspan x="-53.88" y="-0.6" dominant-baseline="ideographic">Append -1 to the result </tspan><tspan x="-12.74" y="12" dominant-baseline="ideographic">array</tspan></text></g></g></g><g id="g-root-tx_append1t_1cvie6vfmq2od-stroke" data-item-order="0" transform="translate(1577.65625, 332.45733642578125)"></g><g id="g-root-tx_addcurre_v986dzfmoqa7-fill" data-item-order="0" transform="translate(745.635498046875, 183.89996337890625)"><g id="tx_addcurre_v986dzfmoqa7-fill-merged" stroke="none" fill="#ffffff" fill-opacity="1"><g><text style="font: 10.5px Roboto, sans-serif; white-space: pre;" transform="translate(66.16143798828125, 22.60211181640625)" font-size="10.5px" font-family="Roboto, sans-serif"><tspan x="-54.16" y="-0.6" dominant-baseline="ideographic">Add current element to </tspan><tspan x="-32.08" y="12" dominant-baseline="ideographic">the Min-Heap</tspan></text></g></g></g><g id="g-root-tx_addcurre_v986dzfmoqa7-stroke" data-item-order="0" transform="translate(745.635498046875, 183.89996337890625)"></g><g id="g-root-tx_logictof_zk1vtjfmoq2v-fill" data-item-order="0" transform="translate(706.182373046875, 38)"><g id="tx_logictof_zk1vtjfmoq2v-fill-merged" stroke="none" fill="#ffffff" fill-opacity="1"><g><text style="font: bold 25px Roboto, sans-serif; white-space: pre;" transform="translate(255.95831298828125, 40)" font-weight="bold" font-size="25px" font-family="Roboto, sans-serif"><tspan x="-243.96" y="0" dominant-baseline="ideographic">Logic to Find the Ath Largest Element in an </tspan><tspan x="-33.35" y="30" dominant-baseline="ideographic">Array</tspan></text></g></g></g><g id="g-root-tx_logictof_zk1vtjfmoq2v-stroke" data-item-order="0" transform="translate(706.182373046875, 38)"></g></g></g><path id="wzp215jgqlo93" d="M65.283 12.757a.35.35 0 0 0 .584.157l5.203-5.141-6.183 3.523.396 1.461zm-2.216-11.7a.35.35 0 0 0-.522.305v3.111l3.276-1.868-2.754-1.548zm3.728 2.105l-4.25 2.421v2.445l6.391-3.644-2.141-1.222zm4.708 3.303a.35.35 0 0 0 0-.609l-1.592-.9-7.365 4.199v1.782a.35.35 0 0 0 .523.305l8.435-4.777z M44.542 2.513c0-.433.355-.783.792-.783s.792.35.792.783-.355.783-.792.783-.792-.35-.792-.783zm59.171 0c0-.433.355-.783.792-.783s.792.35.792.783-.355.783-.792.783-.792-.35-.792-.783zm-85.951 7.636h-1.27v-.487c-.276.201-.864.609-1.881.609-1.202 0-2.274-.794-2.137-2.078.118-1.106 1.153-1.584 1.848-1.727l2.17-.345c0-.539-.29-.956-1.064-1.006s-1.21.305-1.571 1.017l-1.124-.605c1.218-2.631 5.029-1.764 5.029.414v4.207zm-1.27-2.86c.006.396-.062 1.112-.819 1.59-.587.37-1.841.299-1.903-.395-.049-.555.461-.791.906-.898l1.816-.297zm72.662 2.86h-1.27v-.487c-.276.201-.864.609-1.881.609-1.202 0-2.274-.794-2.137-2.078.118-1.106 1.153-1.584 1.848-1.727l2.17-.345c0-.539-.29-.956-1.064-1.006s-1.21.305-1.571 1.017l-1.124-.605c1.218-2.631 5.029-1.764 5.029.414v4.207zm-1.27-2.86c.006.396-.062 1.112-.82 1.59-.587.37-1.841.299-1.903-.395-.049-.555.461-.791.906-.898l1.816-.297zM99.096 10.149H97.85v-8.45h1.246v4.895l2.68-2.559h1.738l-2.633 2.535 2.715 3.578h-1.556l-2.077-2.707-.867.844v1.863zm6.053-6.114h-1.255v6.113h1.255V4.035zm-59.2 0h-1.255v6.113h1.255V4.035zm5.584 6.113V1.697h1.255v2.695c.361-.346 1-.485 1.47-.485 1.452 0 2.477 1.082 2.457 2.448v3.792h-1.27v-3.68c0-.408-.214-1.339-1.315-1.339-.968 0-1.342.756-1.342 1.339v3.681h-1.255zm-4.76-4.894V4.039h.621a.45.45 0 0 0 .45-.45v-.855h1.251v1.305h1.309v1.215h-1.309v3.109c0 .293.105.664.648.664.365 0 .531-.035.736-.07v1.137s-.361.113-.857.113c-1.398 0-1.777-1.051-1.777-1.788V5.254h-1.071zM36.528 4.039h-1.394l2.191 6.106h1.125l1.234-3.918 1.238 3.918h1.129l2.188-6.106h-1.383l-1.359 3.93-1.256-3.93h-1.124l-1.242 3.957-1.348-3.957zM26.212 7.141c-.02 1.566 1.187 3.129 3.223 3.129 1.566 0 2.383-.918 2.734-1.719L31.172 8c-.315.399-.801 1.094-1.738 1.094-1.145 0-1.825-.781-1.891-1.52h4.625c.074-.284.148-.995-.03-1.559-.336-1.064-1.221-2.102-2.839-2.102s-3.088 1.152-3.088 3.227zm1.363-.75h3.348c-.055-.43-.566-1.301-1.623-1.301a1.79 1.79 0 0 0-1.725 1.301zm-8.758.75c.038 1.758 1.277 3.133 3.145 3.133 1.074 0 1.723-.477 1.961-.672v.547h1.242V1.703h-1.258v2.888c-.414-.36-1.062-.68-1.93-.68-1.91 0-3.198 1.473-3.16 3.23zm1.309-.08c0 1.119.723 1.978 1.836 1.978a1.88 1.88 0 0 0 1.94-1.904c0-1.371-1.011-1.99-1.972-1.99s-1.805.798-1.805 1.916zm76.683-.028C96.771 5.275 95.532 3.9 93.664 3.9c-1.074 0-1.723.477-1.961.672v-.547h-1.242v8.22h1.258V9.583c.414.36 1.063.68 1.93.68 1.91 0 3.198-1.473 3.16-3.23zm-1.309.08c0-1.119-.723-1.978-1.836-1.978a1.88 1.88 0 0 0-1.94 1.904c0 1.371 1.011 1.99 1.972 1.99S95.5 8.231 95.5 7.113zM106.441 10.173V4.036h1.254v.382c.361-.346 1-.485 1.47-.485 1.452 0 2.477 1.082 2.457 2.448v3.792h-1.27V6.492c0-.408-.214-1.339-1.315-1.339-.969 0-1.342.756-1.342 1.339v3.681h-1.254zm-30.383-.021V1.824h1.084l4.215 5.777V1.824h1.32v8.328h-1.094l-4.207-5.796v5.796h-1.319zM5.24 10.149H4V2.377h1.014l2.664 3.597 2.654-3.592h1.03v7.766h-1.256V4.762L7.678 8.068 5.24 4.742v5.407z" transform="translate(20, 422.6614990234375)" fill="#80808088" stroke="none"></path></svg>