<?xml version="1.0" encoding="utf-8" standalone="yes"?>
<!DOCTYPE svg PUBLIC "-//W3C//DTD SVG 1.1//EN" "http://www.w3.org/Graphics/SVG/1.1/DTD/svg11.dtd">
<svg style="fill:none;stroke:none;fill-rule:evenodd;clip-rule:evenodd;stroke-linecap:round;stroke-linejoin:round;stroke-miterlimit:1.5;" version="1.1" xmlns="http://www.w3.org/2000/svg" xmlns:xlink="http://www.w3.org/1999/xlink" width="900" height="654" viewBox="0 0 900 654"><style class="text-font-style fontImports" data-font-family="Roboto">@import url(https://fonts.googleapis.com/css2?family=Roboto:wght@400;700&amp;amp;display=block);</style><g id="items" style="isolation: isolate"><g id="blend" style="mix-blend-mode: normal"><g id="g-root-cp_1_g-1_1ut1bufej301u-fill" data-item-order="-475406" transform="translate(37.999969482421875, 115.99993896484375)"><g id="cp_1_g-1_1ut1bufej301u-fill-merged" stroke="none" fill="#1ac6ff" fill-opacity="0.2"><g><path d="M132.628 82C129.409 82 126.504 80.071 125.255 77.104L101.676 21.104C99.455 15.831 103.327 10 109.049 10 H601.733C607.454 10 611.326 15.831 609.106 21.104L585.527 77.104C584.278 80.071 581.372 82 578.154 82 H132.628"></path></g></g><g id="cp_1_g-1_1ut1bufej301u-fill-merged" stroke="none" fill="#1ac6ff" fill-opacity="0.2"><g><path d="M10 46C10 65.882 26.118 82 46 82C65.882 82 82 65.882 82 46C82 26.118 65.882 10 46 10C26.118 10 10 26.118 10 46"></path></g></g></g><g id="g-root-cp_1_g-1_1ut1bufej301u-stroke" data-item-order="-475406" transform="translate(37.999969482421875, 115.99993896484375)"><g id="cp_1_g-1_1ut1bufej301u-stroke" fill="none" stroke-linecap="round" stroke-linejoin="round" stroke-miterlimit="4" stroke="#1ac6ff" stroke-width="2" stroke-opacity="1"><g><path d="M 577.781281 10L 601.732681 10C 607.454081 10 611.325981 15.8314 609.105681 21.1044L 585.526781 77.1044C 584.277681 80.071 581.372481 82 578.153681 82L 577.781281 82M 133.000031 82L 577.781281 82M 133.000031 10L 577.781281 10M 133.000047 82L 132.627647 82C 129.408847 82 126.503647 80.071 125.254547 77.1044L 101.675547 21.1045C 99.455347 15.8314 103.327247 10 109.048647 10L 133.000047 10"></path></g></g><g id="cp_1_g-1_1ut1bufej301u-stroke" fill="none" stroke-linecap="round" stroke-linejoin="round" stroke-miterlimit="4" stroke="#1ac6ff" stroke-width="2" stroke-opacity="1"><g><path d="M 10.000031 46C 10.000031 65.882251 26.11778 82 46.000031 82C 65.882282 82 82.000031 65.882251 82.000031 46C 82.000031 26.117749 65.882282 10 46.000031 10C 26.11778 10 10.000031 26.117749 10.000031 46"></path></g></g></g><g id="g-root-cp_2_g-2_1hi7ak7ej2ygz-fill" data-item-order="-475376" transform="translate(77.99996948242188, 211.9998779296875)"><g id="cp_2_g-2_1hi7ak7ej2ygz-fill-merged" stroke="none" fill="#44e095" fill-opacity="0.2"><g><path d="M132.628 82C129.409 82 126.504 80.071 125.255 77.104L101.676 21.105C99.455 15.831 103.327 10 109.049 10 H521.733C527.454 10 531.326 15.831 529.106 21.104L505.527 77.104C504.278 80.071 501.372 82 498.154 82 H132.628"></path></g></g><g id="cp_2_g-2_1hi7ak7ej2ygz-fill-merged" stroke="none" fill="#44e095" fill-opacity="0.2"><g><path d="M10 46C10 65.882 26.118 82 46 82C65.882 82 82 65.882 82 46C82 26.118 65.882 10 46 10C26.118 10 10 26.118 10 46"></path></g></g></g><g id="g-root-cp_2_g-2_1hi7ak7ej2ygz-stroke" data-item-order="-475376" transform="translate(77.99996948242188, 211.9998779296875)"><g id="cp_2_g-2_1hi7ak7ej2ygz-stroke" fill="none" stroke-linecap="round" stroke-linejoin="round" stroke-miterlimit="4" stroke="#44e095" stroke-width="2" stroke-opacity="1"><g><path d="M 497.781281 10.000061L 521.732681 10.000061C 527.454081 10.000061 531.325981 15.831461 529.105681 21.104461L 505.526781 77.104461C 504.277681 80.071061 501.372481 82.000061 498.153681 82.000061L 497.781281 82.000061M 133.000031 82.000061L 497.781281 82.000061M 133.000031 10.000061L 497.781281 10.000061M 133.000048 82.000061L 132.627648 82.000061C 129.408848 82.000061 126.503648 80.071061 125.254548 77.104461L 101.675548 21.104561C 99.455348 15.831461 103.327248 10.000061 109.048648 10.000061L 133.000048 10.000061"></path></g></g><g id="cp_2_g-2_1hi7ak7ej2ygz-stroke" fill="none" stroke-linecap="round" stroke-linejoin="round" stroke-miterlimit="4" stroke="#44e095" stroke-width="2" stroke-opacity="1"><g><path d="M 10.000031 46.000061C 10.000031 65.882312 26.11778 82.000061 46.000031 82.000061C 65.882282 82.000061 82.000031 65.882312 82.000031 46.000061C 82.000031 26.11781 65.882282 10.000061 46.000031 10.000061C 26.11778 10.000061 10.000031 26.11781 10.000031 46.000061"></path></g></g></g><g id="g-root-cp_3_g-3_18mkabbej2z9o-fill" data-item-order="-475348" transform="translate(117.99996948242188, 307.9998779296875)"><g id="cp_3_g-3_18mkabbej2z9o-fill-merged" stroke="none" fill="#a8dd38" fill-opacity="0.2"><g><path d="M132.626 82C129.408 82 126.502 80.071 125.253 77.104L101.674 21.104C99.454 15.831 103.326 10 109.047 10 H440.891C446.612 10 450.484 15.831 448.264 21.104L424.502 77.537C423.364 80.242 420.715 82 417.781 82 H132.626"></path></g></g><g id="cp_3_g-3_18mkabbej2z9o-fill-merged" stroke="none" fill="#a8dd38" fill-opacity="0.2"><g><path d="M10 46C10 65.882 26.118 82 46 82C65.882 82 82 65.882 82 46C82 26.118 65.882 10 46 10C26.118 10 10 26.118 10 46"></path></g></g></g><g id="g-root-cp_3_g-3_18mkabbej2z9o-stroke" data-item-order="-475348" transform="translate(117.99996948242188, 307.9998779296875)"><g id="cp_3_g-3_18mkabbej2z9o-stroke" fill="none" stroke-linecap="round" stroke-linejoin="round" stroke-miterlimit="4" stroke="#a8dd38" stroke-width="2" stroke-opacity="1"><g><path d="M 417.781281 82C 420.715381 82 423.363781 80.2415 424.502381 77.5373L 448.263681 21.1045C 450.483881 15.8314 446.611981 10 440.890581 10L 417.781281 10M 132.952332 10L 417.782532 10M 417.782532 82L 132.952332 82L 132.628945 82M 132.998894 82L 132.626494 82C 129.407694 82 126.502394 80.071 125.253394 77.1045L 101.674394 21.1045C 99.454194 15.8314 103.326094 10 109.047494 10L 132.998894 10"></path></g></g><g id="cp_3_g-3_18mkabbej2z9o-stroke" fill="none" stroke-linecap="round" stroke-linejoin="round" stroke-miterlimit="4" stroke="#a8dd38" stroke-width="2" stroke-opacity="1"><g><path d="M 10.000031 46C 10.000031 65.882251 26.11778 82 46.000031 82C 65.882282 82 82.000031 65.882251 82.000031 46C 82.000031 26.117749 65.882282 10 46.000031 10C 26.11778 10 10.000031 26.117749 10.000031 46"></path></g></g></g><g id="g-root-cp_4_g-4_146qs6vej301x-fill" data-item-order="-475320" transform="translate(158.99996948242188, 403.9998779296875)"><g id="cp_4_g-4_146qs6vej301x-fill-merged" stroke="none" fill="#ffe60a" fill-opacity="0.2"><g><path d="M360.049 10C365.771 10 369.643 15.831 367.422 21.104L343.843 77.104C342.594 80.071 340 82 336.781 82 H132C128.779 82 126.502 80.071 125.253 77.104L101.674 21.104C99.454 15.831 103.326 10 109.047 10 H360.049"></path></g></g><g id="cp_4_g-4_146qs6vej301x-fill-merged" stroke="none" fill="#ffe60a" fill-opacity="0.2"><g><path d="M10 46C10 65.882 26.118 82 46 82C65.882 82 82 65.882 82 46C82 26.118 65.882 10 46 10C26.118 10 10 26.118 10 46"></path></g></g></g><g id="g-root-cp_4_g-4_146qs6vej301x-stroke" data-item-order="-475320" transform="translate(158.99996948242188, 403.9998779296875)"><g id="cp_4_g-4_146qs6vej301x-stroke" fill="none" stroke-linecap="round" stroke-linejoin="round" stroke-miterlimit="4" stroke="#ffe60a" stroke-width="2" stroke-opacity="1"><g><path d="M 131.998094 82C 128.779294 82 126.502494 80.071 125.253394 77.1045L 101.674394 21.1045C 99.454194 15.8314 103.326094 10 109.047494 10L 131.998094 10M 336.781281 82L 132.000031 82M 336.781281 10L 132.000031 10M 336.781281 82C 339.999981 82 342.594281 80.071 343.843381 77.1045L 367.422381 21.1045C 369.642581 15.8314 365.770681 10 360.049181 10L 336.781281 10"></path></g></g><g id="cp_4_g-4_146qs6vej301x-stroke" fill="none" stroke-linecap="round" stroke-linejoin="round" stroke-miterlimit="4" stroke="#ffe60a" stroke-width="2" stroke-opacity="1"><g><path d="M 10.000031 46C 10.000031 65.882251 26.11778 82 46.000031 82C 65.882282 82 82.000031 65.882251 82.000031 46C 82.000031 26.117749 65.882282 10 46.000031 10C 26.11778 10 10.000031 26.117749 10.000031 46"></path></g></g></g><g id="g-root-cp_5_g-5_vbq913ej2xou-fill" data-item-order="-475292" transform="translate(199, 499.9998779296875)"><g id="cp_5_g-5_vbq913ej2xou-fill-merged" stroke="none" fill="#f99539" fill-opacity="0.2"><g><path d="M131.999 82C129.16 82 126.598 80.299 125.497 77.683L101.674 21.104C99.454 15.831 103.326 10 109.047 10 H279.206C284.928 10 288.8 15.831 286.579 21.104L262.553 78.168C261.575 80.49 259.301 82 256.781 82 H132"></path></g></g><g id="cp_5_g-5_vbq913ej2xou-fill-merged" stroke="none" fill="#f99539" fill-opacity="0.2"><g><path d="M10 46C10 65.882 26.118 82 46 82C65.882 82 82 65.882 82 46C82 26.118 65.882 10 46 10C26.118 10 10 26.118 10 46"></path></g></g></g><g id="g-root-cp_5_g-5_vbq913ej2xou-stroke" data-item-order="-475292" transform="translate(199, 499.9998779296875)"><g id="cp_5_g-5_vbq913ej2xou-stroke" fill="none" stroke-linecap="round" stroke-linejoin="round" stroke-miterlimit="4" stroke="#f99539" stroke-width="2" stroke-opacity="1"><g><path d="M 256.78125 82C 259.30075 82 261.57495 80.49 262.55265 78.1679L 286.57935 21.1044C 288.79965 15.8314 284.92775 10 279.20625 10L 256.78125 10M 256.78125 82L 132 82M 256.78125 10L 132 10M 131.998863 82C 129.160363 82 126.598363 80.2989 125.496863 77.6829L 101.674363 21.1045C 99.454163 15.8314 103.326063 10 109.047463 10L 131.998863 10"></path></g></g><g id="cp_5_g-5_vbq913ej2xou-stroke" fill="none" stroke-linecap="round" stroke-linejoin="round" stroke-miterlimit="4" stroke="#f99539" stroke-width="2" stroke-opacity="1"><g><path d="M 10 46C 10 65.882251 26.117749 82 46 82C 65.882251 82 82 65.882251 82 46C 82 26.117749 65.882251 10 46 10C 26.117749 10 10 26.117749 10 46"></path></g></g></g><g id="g-root-tx_findingt_qvwqwnej2yh3-fill" data-item-order="0" transform="translate(187.1875, 37.99993896484375)"><g id="tx_findingt_qvwqwnej2yh3-fill-merged" stroke="none" fill="#ffffff" fill-opacity="1"><g><text style="font: bold 25px Roboto, sans-serif; white-space: pre;" transform="translate(262.8125, 25)" font-weight="bold" font-size="25px" font-family="Roboto, sans-serif"><tspan x="-250.81" y="15" dominant-baseline="ideographic">Finding the Ath Largest Element in a Window</tspan></text></g></g></g><g id="g-root-tx_findingt_qvwqwnej2yh3-stroke" data-item-order="0" transform="translate(187.1875, 37.99993896484375)"></g><g id="g-root-ic_hori_9m793ej2yh5-fill" data-item-order="0" transform="translate(50, 127.99993896484375)"></g><g id="g-root-ic_hori_9m793ej2yh5-stroke" data-item-order="0" transform="translate(50, 127.99993896484375)"><g id="ic_hori_9m793ej2yh5-stroke" fill="none" stroke-linecap="round" stroke-linejoin="round" stroke-miterlimit="4" stroke="#1ac6ff" stroke-width="2" stroke-opacity="1"><g><path d="M 55 19C 56.104568 19 57 19.895432 57 21L 57 47C 57 48.104568 56.104568 49 55 49M 50 37L 53 34L 50 31M 13 49C 11.895431 49 11 48.104568 11 47L 11 21C 11 19.895432 11.895431 19 13 19M 18 31L 15 34L 18 37M 43 49L 25 49C 25 49 23 49 23 47L 23 21C 23 21 23 19 25 19L 43 19C 43 19 45 19 45 21L 45 47C 45 47 45 49 43 49"></path></g></g></g><g id="g-root-tx_slidingw_dkg8jbej3020-fill" data-item-order="0" transform="translate(313.2135314941406, 139.99993896484375)"><g id="tx_slidingw_dkg8jbej3020-fill-merged" stroke="none" fill="#1ac6ff" fill-opacity="1"><g><text style="font: 20px Roboto, sans-serif; white-space: pre;" transform="translate(80.17709350585938, 22)" font-size="20px" font-family="Roboto, sans-serif"><tspan x="-68.18" y="12" dominant-baseline="ideographic">Sliding Window</tspan></text></g></g></g><g id="g-root-tx_slidingw_dkg8jbej3020-stroke" data-item-order="0" transform="translate(313.2135314941406, 139.99993896484375)"></g><g id="g-root-tx_windowmo_1lr5nw7eijaio-fill" data-item-order="0" transform="translate(654.78125, 121.99993896484375)"><g id="tx_windowmo_1lr5nw7eijaio-fill-merged" stroke="none" fill="#ffffff" fill-opacity="1"><g><text style="font: 15px Roboto, sans-serif; white-space: pre;" transform="translate(10, 28)" font-size="15px" font-family="Roboto, sans-serif"><tspan x="2" y="0" dominant-baseline="ideographic">Window moves across </tspan><tspan x="2" y="18" dominant-baseline="ideographic">the array</tspan></text></g></g></g><g id="g-root-tx_windowmo_1lr5nw7eijaio-stroke" data-item-order="0" transform="translate(654.78125, 121.99993896484375)"></g><g id="g-root-ic_1_m983zreijbbe-fill" data-item-order="0" transform="translate(90, 223.9998779296875)"></g><g id="g-root-ic_1_m983zreijbbe-stroke" data-item-order="0" transform="translate(90, 223.9998779296875)"><g id="ic_1_m983zreijbbe-stroke" fill="none" stroke-linecap="round" stroke-linejoin="round" stroke-miterlimit="4" stroke="#44e095" stroke-width="2" stroke-opacity="1"><g><path d="M 51.5 51.000061C 51.5 50.723919 51.276142 50.500061 51 50.500061C 50.723858 50.500061 50.5 50.723919 50.5 51.000061C 50.5 51.276203 50.723858 51.500061 51 51.500061C 51.276142 51.500061 51.5 51.276203 51.5 51.000061M 44.698002 51.000061C 44.698002 50.723919 44.474144 50.500061 44.198002 50.500061C 43.921856 50.500061 43.698002 50.723919 43.698002 51.000061C 43.698002 51.276203 43.921856 51.500061 44.198002 51.500061C 44.474144 51.500061 44.698002 51.276203 44.698002 51.000061M 37.898003 51.000061C 37.898003 50.723919 37.674141 50.500061 37.398003 50.500061C 37.121857 50.500061 36.898003 50.723919 36.898003 51.000061C 36.898003 51.276203 37.121857 51.500061 37.398003 51.500061C 37.674141 51.500061 37.898003 51.276203 37.898003 51.000061M 31.1 51.000061C 31.1 50.723919 30.876143 50.500061 30.6 50.500061L 30.6 50.500061C 30.323858 50.500061 30.1 50.723919 30.1 51.000061C 30.1 51.276203 30.323858 51.500061 30.6 51.500061L 30.6 51.500061C 30.876143 51.500061 31.1 51.276203 31.1 51.000061M 44.698002 44.200062C 44.698002 43.92392 44.474144 43.700062 44.198002 43.700062C 43.921856 43.700062 43.698002 43.92392 43.698002 44.200062C 43.698002 44.476204 43.921856 44.700062 44.198002 44.700062C 44.474144 44.700062 44.698002 44.476204 44.698002 44.200062M 37.898003 44.200062C 37.898003 43.92392 37.674141 43.700062 37.398003 43.700062C 37.121857 43.700062 36.898003 43.92392 36.898003 44.200062C 36.898003 44.476204 37.121857 44.700062 37.398003 44.700062C 37.674141 44.700062 37.898003 44.476204 37.898003 44.200062M 31.1 44.200062C 31.1 43.92392 30.876143 43.700062 30.6 43.700062L 30.6 43.700062C 30.323858 43.700062 30.1 43.92392 30.1 44.200062C 30.1 44.476204 30.323858 44.700062 30.6 44.700062L 30.6 44.700062C 30.875362 44.700062 31.098898 44.477421 31.1 44.202061M 44.698002 37.400063C 44.698002 37.123917 44.474144 36.900063 44.198002 36.900063C 43.921856 36.900063 43.698002 37.123917 43.698002 37.400063C 43.698002 37.676201 43.921856 37.900063 44.198002 37.900063C 44.474144 37.900063 44.698002 37.676201 44.698002 37.400063M 37.898003 37.400063C 37.898003 37.123917 37.674141 36.900063 37.398003 36.900063C 37.121857 36.900063 36.898003 37.123917 36.898003 37.400063C 36.898003 37.676201 37.121857 37.900063 37.398003 37.900063C 37.674141 37.900063 37.898003 37.676201 37.898003 37.400063M 31.1 37.400063C 31.1 37.267635 31.047258 37.140663 30.953432 37.047211C 30.859606 36.953762 30.732424 36.901527 30.599998 36.902061L 30.6 36.902061C 30.323858 36.902061 30.1 37.125919 30.1 37.402061C 30.1 37.678204 30.323858 37.902061 30.6 37.902061L 30.6 37.902061C 30.876143 37.902061 31.1 37.678204 31.1 37.402061M 24.298 51.000061C 24.298 50.723919 24.074142 50.500061 23.798 50.500061L 23.798 50.500061C 23.521858 50.500061 23.298 50.723919 23.298 51.000061C 23.298 51.276203 23.521858 51.500061 23.798 51.500061L 23.798 51.500061C 24.074142 51.500061 24.298 51.276203 24.298 51.000061M 31.1 23.80006C 31.1 23.523918 30.876143 23.30006 30.6 23.30006C 30.323858 23.30006 30.1 23.523918 30.1 23.80006C 30.1 24.076202 30.323858 24.30006 30.6 24.30006C 30.732771 24.300594 30.860258 24.248089 30.954142 24.154203C 31.048027 24.06032 31.100534 23.932831 31.099998 23.80006M 24.298 23.80006C 24.298 23.523918 24.074142 23.30006 23.798 23.30006C 23.521858 23.30006 23.298 23.523918 23.298 23.80006C 23.298 24.076202 23.521858 24.30006 23.798 24.30006C 24.074142 24.30006 24.298 24.076202 24.298 23.80006M 17.5 23.80006L 17.5 23.798061M 17.5 23.80006C 17.5 23.523918 17.276142 23.30006 17 23.30006C 16.723858 23.30006 16.5 23.523918 16.5 23.80006L 16.5 23.80006C 16.5 24.076202 16.723858 24.30006 17 24.30006C 17.276142 24.30006 17.5 24.076202 17.5 23.80006M 24.298 17.000061C 24.298 16.723919 24.074142 16.500061 23.798 16.500061L 23.798 16.500061C 23.521858 16.500061 23.298 16.723919 23.298 17.000061C 23.298 17.276203 23.521858 17.500061 23.798 17.500061L 23.798 17.500061C 24.074142 17.500061 24.298 17.276203 24.298 17.000061M 44.698002 30.600061L 44.698002 30.600061M 44.698002 30.600061C 44.698002 30.323919 44.474144 30.100061 44.198002 30.100061C 43.921856 30.100061 43.698002 30.323919 43.698002 30.600061L 43.698002 30.600061C 43.698002 30.876204 43.921856 31.100061 44.198002 31.100061C 44.474144 31.100061 44.698002 30.876204 44.698002 30.600061M 37.898003 30.600061L 37.898003 30.600061M 37.898003 30.600061C 37.898003 30.323919 37.674141 30.100061 37.398003 30.100061C 37.121857 30.100061 36.898003 30.323919 36.898003 30.600061L 36.898003 30.600061C 36.898003 30.876204 37.121857 31.100061 37.398003 31.100061C 37.674141 31.100061 37.898003 30.876204 37.898003 30.600061M 31.1 30.600061C 31.1 30.323919 30.876143 30.100061 30.6 30.100061C 30.323858 30.100061 30.1 30.323919 30.1 30.600061C 30.1 30.876204 30.323858 31.100061 30.6 31.100061C 30.876143 31.100061 31.1 30.876204 31.1 30.600061M 24.298 30.600061C 24.298 30.323919 24.074142 30.100061 23.798 30.100061C 23.521858 30.100061 23.298 30.323919 23.298 30.600061C 23.298 30.876204 23.521858 31.100061 23.798 31.100061C 24.074142 31.100061 24.298 30.876204 24.298 30.600061M 51.5 23.80006L 51.5 23.798061M 51.5 23.80006C 51.5 23.523918 51.276142 23.30006 51 23.30006C 50.723858 23.30006 50.5 23.523918 50.5 23.80006L 50.5 23.80006C 50.5 24.076202 50.723858 24.30006 51 24.30006C 51.276142 24.30006 51.5 24.076202 51.5 23.80006M 51.5 30.600061L 51.5 30.598061M 51.5 30.600061C 51.5 30.323919 51.276142 30.100061 51 30.100061C 50.723858 30.100061 50.5 30.323919 50.5 30.600061L 50.5 30.600061C 50.5 30.876204 50.723858 31.100061 51 31.100061C 51.276142 31.100061 51.5 30.876204 51.5 30.600061M 51.5 37.400063C 51.5 37.123917 51.276142 36.900063 51 36.900063C 50.723858 36.900063 50.5 37.123917 50.5 37.400063C 50.5 37.676201 50.723858 37.900063 51 37.900063C 51.276142 37.900063 51.5 37.676201 51.5 37.400063M 51.5 44.200062C 51.5 43.92392 51.276142 43.700062 51 43.700062C 50.723858 43.700062 50.5 43.92392 50.5 44.200062C 50.5 44.476204 50.723858 44.700062 51 44.700062C 51.276142 44.700062 51.5 44.476204 51.5 44.200062"></path></g></g></g><g id="g-root-tx_minheapc_zkomd3eij9qh-fill" data-item-order="0" transform="translate(278.734375, 235.9998779296875)"><g id="tx_minheapc_zkomd3eij9qh-fill-merged" stroke="none" fill="#44e095" fill-opacity="1"><g><text style="font: 20px Roboto, sans-serif; white-space: pre;" transform="translate(114.65625, 22)" font-size="20px" font-family="Roboto, sans-serif"><tspan x="-102.66" y="12" dominant-baseline="ideographic">Min-Heap Construction</tspan></text></g></g></g><g id="g-root-tx_minheapc_zkomd3eij9qh-stroke" data-item-order="0" transform="translate(278.734375, 235.9998779296875)"></g><g id="g-root-tx_heapstor_141r2nreikoi6-fill" data-item-order="0" transform="translate(614.78125, 217.99993896484375)"><g id="tx_heapstor_141r2nreikoi6-fill-merged" stroke="none" fill="#ffffff" fill-opacity="1"><g><text style="font: 15px Roboto, sans-serif; white-space: pre;" transform="translate(10, 28)" font-size="15px" font-family="Roboto, sans-serif"><tspan x="2" y="0" dominant-baseline="ideographic">Heap stores top 'A' </tspan><tspan x="2" y="18" dominant-baseline="ideographic">elements</tspan></text></g></g></g><g id="g-root-tx_heapstor_141r2nreikoi6-stroke" data-item-order="0" transform="translate(614.78125, 217.99993896484375)"></g><g id="g-root-ic_poin_1upakhjeikqo8-fill" data-item-order="0" transform="translate(130, 319.9998779296875)"></g><g id="g-root-ic_poin_1upakhjeikqo8-stroke" data-item-order="0" transform="translate(130, 319.9998779296875)"><g id="ic_poin_1upakhjeikqo8-stroke" fill="none" stroke-linecap="round" stroke-linejoin="round" stroke-miterlimit="4" stroke="#a8dd38" stroke-width="2" stroke-opacity="1"><g><path d="M 25 56L 25 27L 43 27L 43 56M 49 36L 56 36L 56 56M 19 36L 12 36L 12 56M 10 10M 28.80018 16.5L 34.000198 21.5L 39.200199 16.5M 34.000198 11.5L 34.000198 21.5"></path></g></g></g><g id="g-root-tx_elementp_dfgj07eikoi7-fill" data-item-order="0" transform="translate(320.13543701171875, 331.9998779296875)"><g id="tx_elementp_dfgj07eikoi7-fill-merged" stroke="none" fill="#a8dd38" fill-opacity="1"><g><text style="font: 20px Roboto, sans-serif; white-space: pre;" transform="translate(73.25518798828125, 22)" font-size="20px" font-family="Roboto, sans-serif"><tspan x="-61.26" y="12" dominant-baseline="ideographic">Element Push</tspan></text></g></g></g><g id="g-root-tx_elementp_dfgj07eikoi7-stroke" data-item-order="0" transform="translate(320.13543701171875, 331.9998779296875)"></g><g id="g-root-tx_neweleme_hzncqfeim4g4-fill" data-item-order="0" transform="translate(573.78125, 313.9998779296875)"><g id="tx_neweleme_hzncqfeim4g4-fill-merged" stroke="none" fill="#ffffff" fill-opacity="1"><g><text style="font: 15px Roboto, sans-serif; white-space: pre;" transform="translate(10, 28)" font-size="15px" font-family="Roboto, sans-serif"><tspan x="2" y="0" dominant-baseline="ideographic">New element enters the </tspan><tspan x="2" y="18" dominant-baseline="ideographic">heap</tspan></text></g></g></g><g id="g-root-tx_neweleme_hzncqfeim4g4-stroke" data-item-order="0" transform="translate(573.78125, 313.9998779296875)"></g><g id="g-root-ic_remo_1d3mtrreim2o6-fill" data-item-order="0" transform="translate(171, 415.9998779296875)"></g><g id="g-root-ic_remo_1d3mtrreim2o6-stroke" data-item-order="0" transform="translate(171, 415.9998779296875)"><g id="ic_remo_1d3mtrreim2o6-stroke" fill="none" stroke-linecap="round" stroke-linejoin="round" stroke-miterlimit="4" stroke="#ffe60a" stroke-width="2" stroke-opacity="1"><g><path d="M 19 14.996L 47 14.996M 19 24.996L 47 24.996M 19 34.996002L 31 34.996002M 19 44.995998L 31 44.995998M 37 46.995998C 37 52.518848 41.477154 56.996002 47 56.996002C 52.522846 56.996002 57 52.518848 57 46.996002C 57 41.473152 52.522846 36.996002 47 36.996002C 41.477154 36.996002 37 41.473152 37 46.996002ZM 52 46.995998L 42 46.995998M 11 14.996L 13 14.996M 11 24.996L 13 24.996M 11 34.996002L 13 34.996002M 11 44.995998L 13 44.995998"></path></g></g></g><g id="g-root-tx_elementd_1uuad6feim3gt-fill" data-item-order="0" transform="translate(308.859375, 427.9998779296875)"><g id="tx_elementd_1uuad6feim3gt-fill-merged" stroke="none" fill="#ffe60a" fill-opacity="1"><g><text style="font: 20px Roboto, sans-serif; white-space: pre;" transform="translate(84.53125, 22)" font-size="20px" font-family="Roboto, sans-serif"><tspan x="-72.53" y="12" dominant-baseline="ideographic">Element Discard</tspan></text></g></g></g><g id="g-root-tx_elementd_1uuad6feim3gt-stroke" data-item-order="0" transform="translate(308.859375, 427.9998779296875)"></g><g id="g-root-tx_smallest_1utnw3beiqbk9-fill" data-item-order="0" transform="translate(533.78125, 409.9998779296875)"><g id="tx_smallest_1utnw3beiqbk9-fill-merged" stroke="none" fill="#ffffff" fill-opacity="1"><g><text style="font: 15px Roboto, sans-serif; white-space: pre;" transform="translate(10, 28)" font-size="15px" font-family="Roboto, sans-serif"><tspan x="2" y="0" dominant-baseline="ideographic">Smallest element is </tspan><tspan x="2" y="18" dominant-baseline="ideographic">removed</tspan></text></g></g></g><g id="g-root-tx_smallest_1utnw3beiqbk9-stroke" data-item-order="0" transform="translate(533.78125, 409.9998779296875)"></g><g id="g-root-ic_1_mgpt13eiqarn-fill" data-item-order="0" transform="translate(211, 511.9998779296875)"></g><g id="g-root-ic_1_mgpt13eiqarn-stroke" data-item-order="0" transform="translate(211, 511.9998779296875)"><g id="ic_1_mgpt13eiqarn-stroke" fill="none" stroke-linecap="round" stroke-linejoin="round" stroke-miterlimit="4" stroke="#f99539" stroke-width="2" stroke-opacity="1"><g><path d="M 23 31L 28 36L 23 41M 35 37L 43 37M 38 19.5C 38.276142 19.5 38.5 19.723858 38.5 20C 38.5 20.276142 38.276142 20.5 38 20.5C 37.723858 20.5 37.5 20.276142 37.5 20C 37.5 19.723858 37.723858 19.5 38 19.5M 44 19.5C 44.276142 19.5 44.5 19.723858 44.5 20C 44.5 20.276142 44.276142 20.5 44 20.5C 43.723858 20.5 43.5 20.276142 43.5 20C 43.5 19.723858 43.723858 19.5 44 19.5M 50 19.5C 50.276142 19.5 50.5 19.723858 50.5 20C 50.5 20.276142 50.276142 20.5 50 20.5C 49.723858 20.5 49.5 20.276142 49.5 20C 49.5 19.723858 49.723858 19.5 50 19.5M 13 15L 55 15C 55 15 57 15 57 17L 57 51C 57 51 57 53 55 53L 13 53C 13 53 11 53 11 51L 11 17C 11 17 11 15 13 15M 11 25L 57 25"></path></g></g></g><g id="g-root-tx_outputre_147dcfreiqbka-fill" data-item-order="0" transform="translate(321, 523.9998779296875)"><g id="tx_outputre_147dcfreiqbka-fill-merged" stroke="none" fill="#f99539" fill-opacity="1"><g><text style="font: 20px Roboto, sans-serif; white-space: pre;" transform="translate(72.390625, 22)" font-size="20px" font-family="Roboto, sans-serif"><tspan x="-60.39" y="12" dominant-baseline="ideographic">Output Result</tspan></text></g></g></g><g id="g-root-tx_outputre_147dcfreiqbka-stroke" data-item-order="0" transform="translate(321, 523.9998779296875)"></g><g id="g-root-tx_heapsroo_6hwzbeit3ic-fill" data-item-order="0" transform="translate(493.78125, 505.9998779296875)"><g id="tx_heapsroo_6hwzbeit3ic-fill-merged" stroke="none" fill="#ffffff" fill-opacity="1"><g><text style="font: 15px Roboto, sans-serif; white-space: pre;" transform="translate(10, 28)" font-size="15px" font-family="Roboto, sans-serif"><tspan x="2" y="0" dominant-baseline="ideographic">Heap's root is the Ath </tspan><tspan x="2" y="18" dominant-baseline="ideographic">largest</tspan></text></g></g></g><g id="g-root-tx_heapsroo_6hwzbeit3ic-stroke" data-item-order="0" transform="translate(493.78125, 505.9998779296875)"></g></g></g><path id="w1upwlrrfwr2tq" d="M65.283 12.757a.35.35 0 0 0 .584.157l5.203-5.141-6.183 3.523.396 1.461zm-2.216-11.7a.35.35 0 0 0-.522.305v3.111l3.276-1.868-2.754-1.548zm3.728 2.105l-4.25 2.421v2.445l6.391-3.644-2.141-1.222zm4.708 3.303a.35.35 0 0 0 0-.609l-1.592-.9-7.365 4.199v1.782a.35.35 0 0 0 .523.305l8.435-4.777z M44.542 2.513c0-.433.355-.783.792-.783s.792.35.792.783-.355.783-.792.783-.792-.35-.792-.783zm59.171 0c0-.433.355-.783.792-.783s.792.35.792.783-.355.783-.792.783-.792-.35-.792-.783zm-85.951 7.636h-1.27v-.487c-.276.201-.864.609-1.881.609-1.202 0-2.274-.794-2.137-2.078.118-1.106 1.153-1.584 1.848-1.727l2.17-.345c0-.539-.29-.956-1.064-1.006s-1.21.305-1.571 1.017l-1.124-.605c1.218-2.631 5.029-1.764 5.029.414v4.207zm-1.27-2.86c.006.396-.062 1.112-.819 1.59-.587.37-1.841.299-1.903-.395-.049-.555.461-.791.906-.898l1.816-.297zm72.662 2.86h-1.27v-.487c-.276.201-.864.609-1.881.609-1.202 0-2.274-.794-2.137-2.078.118-1.106 1.153-1.584 1.848-1.727l2.17-.345c0-.539-.29-.956-1.064-1.006s-1.21.305-1.571 1.017l-1.124-.605c1.218-2.631 5.029-1.764 5.029.414v4.207zm-1.27-2.86c.006.396-.062 1.112-.82 1.59-.587.37-1.841.299-1.903-.395-.049-.555.461-.791.906-.898l1.816-.297zM99.096 10.149H97.85v-8.45h1.246v4.895l2.68-2.559h1.738l-2.633 2.535 2.715 3.578h-1.556l-2.077-2.707-.867.844v1.863zm6.053-6.114h-1.255v6.113h1.255V4.035zm-59.2 0h-1.255v6.113h1.255V4.035zm5.584 6.113V1.697h1.255v2.695c.361-.346 1-.485 1.47-.485 1.452 0 2.477 1.082 2.457 2.448v3.792h-1.27v-3.68c0-.408-.214-1.339-1.315-1.339-.968 0-1.342.756-1.342 1.339v3.681h-1.255zm-4.76-4.894V4.039h.621a.45.45 0 0 0 .45-.45v-.855h1.251v1.305h1.309v1.215h-1.309v3.109c0 .293.105.664.648.664.365 0 .531-.035.736-.07v1.137s-.361.113-.857.113c-1.398 0-1.777-1.051-1.777-1.788V5.254h-1.071zM36.528 4.039h-1.394l2.191 6.106h1.125l1.234-3.918 1.238 3.918h1.129l2.188-6.106h-1.383l-1.359 3.93-1.256-3.93h-1.124l-1.242 3.957-1.348-3.957zM26.212 7.141c-.02 1.566 1.187 3.129 3.223 3.129 1.566 0 2.383-.918 2.734-1.719L31.172 8c-.315.399-.801 1.094-1.738 1.094-1.145 0-1.825-.781-1.891-1.52h4.625c.074-.284.148-.995-.03-1.559-.336-1.064-1.221-2.102-2.839-2.102s-3.088 1.152-3.088 3.227zm1.363-.75h3.348c-.055-.43-.566-1.301-1.623-1.301a1.79 1.79 0 0 0-1.725 1.301zm-8.758.75c.038 1.758 1.277 3.133 3.145 3.133 1.074 0 1.723-.477 1.961-.672v.547h1.242V1.703h-1.258v2.888c-.414-.36-1.062-.68-1.93-.68-1.91 0-3.198 1.473-3.16 3.23zm1.309-.08c0 1.119.723 1.978 1.836 1.978a1.88 1.88 0 0 0 1.94-1.904c0-1.371-1.011-1.99-1.972-1.99s-1.805.798-1.805 1.916zm76.683-.028C96.771 5.275 95.532 3.9 93.664 3.9c-1.074 0-1.723.477-1.961.672v-.547h-1.242v8.22h1.258V9.583c.414.36 1.063.68 1.93.68 1.91 0 3.198-1.473 3.16-3.23zm-1.309.08c0-1.119-.723-1.978-1.836-1.978a1.88 1.88 0 0 0-1.94 1.904c0 1.371 1.011 1.99 1.972 1.99S95.5 8.231 95.5 7.113zM106.441 10.173V4.036h1.254v.382c.361-.346 1-.485 1.47-.485 1.452 0 2.477 1.082 2.457 2.448v3.792h-1.27V6.492c0-.408-.214-1.339-1.315-1.339-.969 0-1.342.756-1.342 1.339v3.681h-1.254zm-30.383-.021V1.824h1.084l4.215 5.777V1.824h1.32v8.328h-1.094l-4.207-5.796v5.796h-1.319zM5.24 10.149H4V2.377h1.014l2.664 3.597 2.654-3.592h1.03v7.766h-1.256V4.762L7.678 8.068 5.24 4.742v5.407z" transform="translate(764, 620)" fill="#80808088" stroke="none"></path></svg>