<?xml version="1.0" encoding="utf-8" standalone="yes"?>
<!DOCTYPE svg PUBLIC "-//W3C//DTD SVG 1.1//EN" "http://www.w3.org/Graphics/SVG/1.1/DTD/svg11.dtd">
<svg style="fill:none;stroke:none;fill-rule:evenodd;clip-rule:evenodd;stroke-linecap:round;stroke-linejoin:round;stroke-miterlimit:1.5;" version="1.1" xmlns="http://www.w3.org/2000/svg" xmlns:xlink="http://www.w3.org/1999/xlink" width="672" height="894" viewBox="0 0 672 894"><style class="text-font-style fontImports" data-font-family="STIX Two Text">@import url(https://fonts.googleapis.com/css2?family=STIX+Two+Text:wght@400;700&amp;amp;display=block);</style><style class="text-font-style fontImports" data-font-family="Roboto">@import url(https://fonts.googleapis.com/css2?family=Roboto:wght@400;700&amp;amp;display=block);</style><g id="items" style="isolation: isolate"><g id="blend" style="mix-blend-mode: normal"><g id="g-root-cp_2_sign-2_v48ztzfmyjnn-fill" data-item-order="-497940" transform="translate(326, 236)"><g id="cp_2_sign-2_v48ztzfmyjnn-fill-merged" stroke="none" fill="url(#gradient-f37c75-334884014)" fill-opacity="1"><g><path d="M113.583 10C140.093 10 161.583 31.49 161.583 58C161.583 84.51 140.093 106 113.583 106 H10 V10 H113.583"></path></g></g></g><g id="g-root-cp_2_sign-2_v48ztzfmyjnn-stroke" data-item-order="-497940" transform="translate(326, 236)"><g id="cp_2_sign-2_v48ztzfmyjnn-stroke" fill="none" stroke-linecap="round" stroke-linejoin="round" stroke-miterlimit="4" stroke="#2d142c" stroke-width="2" stroke-opacity="1"><g><path d="M 113.583313 106L 10 106M 10 10L 113.583313 10M 113.583313 10C 140.093013 10 161.583313 31.4903 161.583313 58C 161.583313 84.5097 140.093013 106 113.583313 106M 10 106L 10 10"></path></g></g></g><g id="g-root-cp_4_sign-4_hteyjrfmyi2s-fill" data-item-order="-497916" transform="translate(326, 476)"><g id="cp_4_sign-4_hteyjrfmyi2s-fill-merged" stroke="none" fill="url(#gradient-d65f81-355476950)" fill-opacity="1"><g><path d="M113.583 10C140.093 10 161.583 31.49 161.583 58C161.583 84.51 140.093 106 113.583 106 H10 V10 H113.583"></path></g></g></g><g id="g-root-cp_4_sign-4_hteyjrfmyi2s-stroke" data-item-order="-497916" transform="translate(326, 476)"><g id="cp_4_sign-4_hteyjrfmyi2s-stroke" fill="none" stroke-linecap="round" stroke-linejoin="round" stroke-miterlimit="4" stroke="#2d142c" stroke-width="2" stroke-opacity="1"><g><path d="M 113.583313 106L 10 106M 10 10L 113.583313 10M 113.583313 10C 140.093013 10 161.583313 31.4903 161.583313 58C 161.583313 84.5097 140.093013 106 113.583313 106M 10 106L 10 10"></path></g></g></g><g id="g-root-cp_6_sign-6_4hyg6ffmyjnp-fill" data-item-order="-497892" transform="translate(326, 716)"><g id="cp_6_sign-6_4hyg6ffmyjnp-fill-merged" stroke="none" fill="url(#gradient-c56191-344620859)" fill-opacity="1"><g><path d="M113.583 10C140.093 10 161.583 31.49 161.583 58C161.583 84.51 140.093 106 113.583 106 H10 V10 H113.583"></path></g></g></g><g id="g-root-cp_6_sign-6_4hyg6ffmyjnp-stroke" data-item-order="-497892" transform="translate(326, 716)"><g id="cp_6_sign-6_4hyg6ffmyjnp-stroke" fill="none" stroke-linecap="round" stroke-linejoin="round" stroke-miterlimit="4" stroke="#2d142c" stroke-width="2" stroke-opacity="1"><g><path d="M 113.583313 106L 10 106M 10 10L 113.583313 10M 113.583313 10C 140.093013 10 161.583313 31.4903 161.583313 58C 161.583313 84.5097 140.093013 106 113.583313 106M 10 106L 10 10"></path></g></g></g><g id="g-root-cp_1_sign-1_1unfhwnfmyk9a-fill" data-item-order="-497872" transform="translate(174.41671752929688, 116)"><g id="cp_1_sign-1_1unfhwnfmyk9a-fill-merged" stroke="none" fill="url(#gradient-f7836e-16806380)" fill-opacity="1"><g><path d="M58 106C31.49 106 10 84.51 10 58C10 31.49 31.49 10 58 10 H161.583 V106 H58"></path></g></g></g><g id="g-root-cp_1_sign-1_1unfhwnfmyk9a-stroke" data-item-order="-497872" transform="translate(174.41671752929688, 116)"><g id="cp_1_sign-1_1unfhwnfmyk9a-stroke" fill="none" stroke-linecap="round" stroke-linejoin="round" stroke-miterlimit="4" stroke="#2d142c" stroke-width="2" stroke-opacity="1"><g><path d="M 57.999969 10L 161.583282 10M 161.583282 106L 57.999969 106M 57.999969 106C 31.490269 106 9.999969 84.5097 9.999969 58C 9.999969 31.4903 31.490269 10 57.999969 10M 161.583282 10L 161.583282 106"></path></g></g></g><g id="g-root-cp_3_sign-3_1hclgmffmyiof-fill" data-item-order="-497848" transform="translate(174.41671752929688, 356)"><g id="cp_3_sign-3_1hclgmffmyiof-fill-merged" stroke="none" fill="url(#gradient-e46779-178402243)" fill-opacity="1"><g><path d="M58 106C31.49 106 10 84.51 10 58C10 31.49 31.49 10 58 10 H161.583 V106 H58"></path></g></g></g><g id="g-root-cp_3_sign-3_1hclgmffmyiof-stroke" data-item-order="-497848" transform="translate(174.41671752929688, 356)"><g id="cp_3_sign-3_1hclgmffmyiof-stroke" fill="none" stroke-linecap="round" stroke-linejoin="round" stroke-miterlimit="4" stroke="#2d142c" stroke-width="2" stroke-opacity="1"><g><path d="M 57.999969 10L 161.583282 10M 161.583282 106L 57.999969 106M 57.999969 106C 31.490269 106 9.999969 84.5097 9.999969 58C 9.999969 31.4903 31.490269 10 57.999969 10M 161.583282 10L 161.583282 106"></path></g></g></g><g id="g-root-cp_5_sign-5_1cwryhzfmyjgo-fill" data-item-order="-497824" transform="translate(174.41671752929688, 596)"><defs><linearGradient id="gradient-f37c75-334884014" x2="0" y2="1"><stop offset="0" stop-color="#ffa49f"></stop><stop offset="1" stop-color="#e7534b"></stop></linearGradient><linearGradient id="gradient-d65f81-355476950" x2="0" y2="1"><stop offset="0" stop-color="#ffa2bc"></stop><stop offset="1" stop-color="#ac1c45"></stop></linearGradient><linearGradient id="gradient-c56191-344620859" x2="0" y2="1"><stop offset="0" stop-color="#ffa1ce"></stop><stop offset="1" stop-color="#8a2053"></stop></linearGradient><linearGradient id="gradient-f7836e-16806380" x2="0" y2="1"><stop offset="0" stop-color="#ff9986"></stop><stop offset="1" stop-color="#ee6d55"></stop></linearGradient><linearGradient id="gradient-e46779-178402243" x2="0" y2="1"><stop offset="0" stop-color="#ffa2b0"></stop><stop offset="1" stop-color="#c92b42"></stop></linearGradient><linearGradient id="gradient-c5598e-65170061" x2="0" y2="1"><stop offset="0" stop-color="#ffa1cf"></stop><stop offset="1" stop-color="#8a114c"></stop></linearGradient></defs><g id="cp_5_sign-5_1cwryhzfmyjgo-fill-merged" stroke="none" fill="url(#gradient-c5598e-65170061)" fill-opacity="1"><g><path d="M58 106C31.49 106 10 84.51 10 58C10 31.49 31.49 10 58 10 H161.583 V106 H58"></path></g></g></g><g id="g-root-cp_5_sign-5_1cwryhzfmyjgo-stroke" data-item-order="-497824" transform="translate(174.41671752929688, 596)"><g id="cp_5_sign-5_1cwryhzfmyjgo-stroke" fill="none" stroke-linecap="round" stroke-linejoin="round" stroke-miterlimit="4" stroke="#2d142c" stroke-width="2" stroke-opacity="1"><g><path d="M 57.999969 10L 161.583282 10M 161.583282 106L 57.999969 106M 57.999969 106C 31.490269 106 9.999969 84.5097 9.999969 58C 9.999969 31.4903 31.490269 10 57.999969 10M 161.583282 10L 161.583282 106"></path></g></g></g><g id="g-root-ic_circ_qvx9wnfmn9c1-fill" data-item-order="-1296" transform="translate(204.41668701171875, 626)"><g id="ic_circ_qvx9wnfmn9c1-fill-merged" stroke="none" fill="#f9f1ee" fill-opacity="1"><g><path d="M28 45.625C37.735 45.625 45.625 37.734 45.625 28C45.625 18.265 37.735 10.375 28 10.375C18.265 10.375 10.375 18.265 10.375 28C10.375 37.734 18.265 45.625 28 45.625 M25.5 20.5C24.723 20.5 24.075 21.092 24.006 21.865L23.506 27.364C23.457 27.906 23.705 28.432 24.154 28.739C24.604 29.045 25.184 29.085 25.67 28.841L26.826 28.264C27.174 28.09 27.556 28 27.944 28C28.828 28 29.5 28.672 29.5 29.5 V31C29.5 31.828 28.828 32.5 28 32.5C27.253 32.5 26.59 31.996 26.414 31.5C26.138 30.718 25.281 30.309 24.5 30.585C23.718 30.861 23.309 31.719 23.585 32.5C24.234 34.334 26.135 35.5 28 35.5C30.485 35.5 32.5 33.485 32.5 31 V29.5C32.5 27.015 30.485 25 28 25C27.532 25 27.121 25.047 26.721 25.138L26.87 23.5 H30.5C31.329 23.5 32 22.828 32 22C32 21.172 31.329 20.5 30.5 20.5 H25.5"></path></g></g></g><g id="g-root-ic_circ_qvx9wnfmn9c1-stroke" data-item-order="-1296" transform="translate(204.41668701171875, 626)"></g><g id="g-root-ic_circ_18ly92ffn1c03-fill" data-item-order="-1296" transform="translate(411.58331298828125, 506)"><g id="ic_circ_18ly92ffn1c03-fill-merged" stroke="none" fill="#f9f1ee" fill-opacity="1"><g><path d="M28 45.625C37.735 45.625 45.625 37.734 45.625 28C45.625 18.265 37.735 10.375 28 10.375C18.265 10.375 10.375 18.265 10.375 28C10.375 37.734 18.265 45.625 28 45.625 M31.5 22C31.5 21.339 31.067 20.756 30.434 20.564C29.802 20.372 29.118 20.618 28.752 21.167L22.752 30.167C22.444 30.628 22.416 31.22 22.677 31.708C22.938 32.196 23.446 32.5 24 32.5 H28.5 V34C28.5 34.828 29.171 35.5 30 35.5C30.828 35.5 31.5 34.828 31.5 34 V32.5 H32C32.829 32.5 33.5 31.828 33.5 31C33.5 30.172 32.829 29.5 32 29.5 H31.5 V22 M28.5 26.955 V29.5 H26.803L28.5 26.955"></path></g></g></g><g id="g-root-ic_circ_18ly92ffn1c03-stroke" data-item-order="-1296" transform="translate(411.58331298828125, 506)"></g><g id="g-root-ic_circ_4jtvfrfmyio3-fill" data-item-order="-1296" transform="translate(411.58331298828125, 266)"><g id="ic_circ_4jtvfrfmyio3-fill-merged" stroke="none" fill="#f9f1ee" fill-opacity="1"><g><path d="M28 45.625C37.735 45.625 45.625 37.734 45.625 28C45.625 18.265 37.735 10.375 28 10.375C18.265 10.375 10.375 18.265 10.375 28C10.375 37.734 18.265 45.625 28 45.625 M28 20.5C26.135 20.5 24.235 21.666 23.586 23.5C23.309 24.281 23.719 25.138 24.5 25.414C25.281 25.691 26.138 25.282 26.414 24.5C26.59 24.004 27.253 23.5 28 23.5C28.828 23.5 29.5 24.172 29.5 25 V25.11C29.5 25.643 29.217 26.137 28.756 26.406L25.732 28.17C24.35 28.976 23.5 30.456 23.5 32.056 V34C23.5 34.828 24.172 35.5 25 35.5 H31C31.828 35.5 32.5 34.828 32.5 34C32.5 33.172 31.828 32.5 31 32.5 H26.5 V32.056C26.5 31.522 26.783 31.029 27.244 30.76L30.268 28.997C31.65 28.191 32.5 26.711 32.5 25.111 V25C32.5 22.515 30.485 20.5 28 20.5"></path></g></g></g><g id="g-root-ic_circ_4jtvfrfmyio3-stroke" data-item-order="-1296" transform="translate(411.58331298828125, 266)"></g><g id="g-root-ic_circ_1qd8cpzfmlxje-fill" data-item-order="-1296" transform="translate(204.41668701171875, 386)"><g id="ic_circ_1qd8cpzfmlxje-fill-merged" stroke="none" fill="#f9f1ee" fill-opacity="1"><g><path d="M28 45.625C37.735 45.625 45.625 37.734 45.625 28C45.625 18.265 37.735 10.375 28 10.375C18.265 10.375 10.375 18.265 10.375 28C10.375 37.734 18.265 45.625 28 45.625 M28 20.5C26.691 20.5 25.528 21.13 24.8 22.099C24.303 22.762 24.437 23.702 25.1 24.2C25.762 24.697 26.703 24.563 27.201 23.9C27.459 23.557 27.908 23.417 28.316 23.553C28.724 23.689 29 24.07 29 24.5 V24.899C29.001 25.192 28.885 25.472 28.678 25.678C28.472 25.885 28.192 26.001 27.899 26C27.071 26 26.399 26.672 26.399 27.5C26.399 28.329 27.071 29 27.899 29 H28C28.828 29 29.5 29.672 29.5 30.5 V31C29.5 31.828 28.828 32.5 28 32.5C27.253 32.5 26.59 31.996 26.414 31.5C26.138 30.718 25.281 30.309 24.5 30.585C23.718 30.861 23.309 31.719 23.585 32.5C24.234 34.334 26.135 35.5 28 35.5C30.485 35.5 32.5 33.485 32.5 31 V30.5C32.502 29.315 32.034 28.177 31.2 27.336C31.721 26.631 32.002 25.776 32 24.9 V24.5C32 22.291 30.209 20.5 28 20.5"></path></g></g></g><g id="g-root-ic_circ_1qd8cpzfmlxje-stroke" data-item-order="-1296" transform="translate(204.41668701171875, 386)"></g><g id="g-root-ic_circ_1q5qnonfmkgel-fill" data-item-order="-1296" transform="translate(411.58331298828125, 746)"><g id="ic_circ_1q5qnonfmkgel-fill-merged" stroke="none" fill="#f9f1ee" fill-opacity="1"><g><path d="M28 45.625C37.735 45.625 45.625 37.734 45.625 28C45.625 18.265 37.735 10.375 28 10.375C18.265 10.375 10.375 18.265 10.375 28C10.375 37.734 18.265 45.625 28 45.625 M26.5 25 V26.256C27.878 25.768 29.406 25.981 30.599 26.825C31.792 27.669 32.501 29.039 32.5 30.501 V31C32.5 33.485 30.485 35.5 28 35.5C25.515 35.5 23.5 33.485 23.5 31 V25C23.5 22.515 25.515 20.5 28 20.5C29.865 20.5 31.765 21.666 32.415 23.5C32.691 24.281 32.282 25.139 31.5 25.415C30.719 25.691 29.862 25.282 29.585 24.5C29.041 22.96 26.5 23.32 26.5 25 M28 32.5C27.172 32.5 26.5 31.828 26.5 31 V30.5C26.5 29.672 27.172 29 28 29C28.828 29 29.5 29.672 29.5 30.5 V31C29.5 31.828 28.828 32.5 28 32.5"></path></g></g></g><g id="g-root-ic_circ_1q5qnonfmkgel-stroke" data-item-order="-1296" transform="translate(411.58331298828125, 746)"></g><g id="g-root-ic_circ_9mq93fmkhsb-fill" data-item-order="-1296" transform="translate(204.41668701171875, 146)"><g id="ic_circ_9mq93fmkhsb-fill-merged" stroke="none" fill="#f9f1ee" fill-opacity="1"><g><path d="M28 45.625C37.735 45.625 45.625 37.734 45.625 28C45.625 18.265 37.735 10.375 28 10.375C18.265 10.375 10.375 18.265 10.375 28C10.375 37.734 18.265 45.625 28 45.625 M29.5 22C29.5 21.172 28.828 20.5 28 20.5C27.172 20.5 26.5 21.172 26.5 22 V23C26.5 23.277 26.275 23.5 26 23.5 H25C24.172 23.5 23.5 24.172 23.5 25C23.5 25.828 24.172 26.5 25 26.5 H26C26.17 26.5 26.337 26.488 26.5 26.464 V32.5 H25C24.172 32.5 23.5 33.172 23.5 34C23.5 34.828 24.172 35.5 25 35.5 H31C31.828 35.5 32.5 34.828 32.5 34C32.5 33.172 31.828 32.5 31 32.5 H29.5 V22"></path></g></g></g><g id="g-root-ic_circ_9mq93fmkhsb-stroke" data-item-order="-1296" transform="translate(204.41668701171875, 146)"></g><g id="g-root-tx_i1val20p_dj7td3fmlvcx-fill" data-item-order="0" transform="translate(112.03125, 266)"><g id="tx_i1val20p_dj7td3fmlvcx-fill-merged" stroke="none" fill="#f9f1ee" fill-opacity="1"><g><text style="font: 15px Roboto, sans-serif; white-space: pre;" transform="translate(211.96875, 28)" font-size="15px" font-family="Roboto, sans-serif"><tspan x="-199.97" y="0" dominant-baseline="ideographic">i=1, Val=20 | Push 20 | [10, 20] </tspan><tspan x="-137.3" y="18" dominant-baseline="ideographic">(Size 2 &lt; 3) | N/A | -1</tspan></text></g></g></g><g id="g-root-tx_i1val20p_dj7td3fmlvcx-stroke" data-item-order="0" transform="translate(112.03125, 266)"></g><g id="g-root-tx_step2_hxsa5jfn1czt-fill" data-item-order="0" transform="translate(338, 272)"><g id="tx_step2_hxsa5jfn1czt-fill-merged" stroke="none" fill="#f9f1ee" fill-opacity="1"><g><text style="font: bold 20px Roboto, sans-serif; white-space: pre;" transform="translate(10, 22)" font-weight="bold" font-size="20px" font-family="Roboto, sans-serif"><tspan x="2" y="12" dominant-baseline="ideographic">Step 2</tspan></text></g></g></g><g id="g-root-tx_step2_hxsa5jfn1czt-stroke" data-item-order="0" transform="translate(338, 272)"></g><g id="g-root-tx_i0val10p_v64f3bfmyio2-fill" data-item-order="0" transform="translate(338, 146)"><g id="tx_i0val10p_v64f3bfmyio2-fill-merged" stroke="none" fill="#f9f1ee" fill-opacity="1"><g><text style="font: 15px Roboto, sans-serif; white-space: pre;" transform="translate(10, 28)" font-size="15px" font-family="Roboto, sans-serif"><tspan x="2" y="0" dominant-baseline="ideographic">i=0, Val=10 | Push 10 | [10] (Size </tspan><tspan x="2" y="18" dominant-baseline="ideographic">1 &lt; 3) | N/A | -1</tspan></text></g></g></g><g id="g-root-tx_i0val10p_v64f3bfmyio2-stroke" data-item-order="0" transform="translate(338, 146)"></g><g id="g-root-tx_step3_7razrfmnabr-fill" data-item-order="0" transform="translate(252.416748046875, 392)"><g id="tx_step3_7razrfmnabr-fill-merged" stroke="none" fill="#f9f1ee" fill-opacity="1"><g><text style="font: bold 20px Roboto, sans-serif; white-space: pre;" transform="translate(71.583251953125, 22)" font-weight="bold" font-size="20px" font-family="Roboto, sans-serif"><tspan x="-59.58" y="12" dominant-baseline="ideographic">Step 3</tspan></text></g></g></g><g id="g-root-tx_step3_7razrfmnabr-stroke" data-item-order="0" transform="translate(252.416748046875, 392)"></g><g id="g-root-tx_i2val11p_1qclsh3fn1csq-fill" data-item-order="0" transform="translate(338, 386)"><g id="tx_i2val11p_1qclsh3fn1csq-fill-merged" stroke="none" fill="#f9f1ee" fill-opacity="1"><g><text style="font: 15px Roboto, sans-serif; white-space: pre;" transform="translate(10, 28)" font-size="15px" font-family="Roboto, sans-serif"><tspan x="2" y="0" dominant-baseline="ideographic">i=2, Val=11 | Push 11 | [10, 11, </tspan><tspan x="2" y="18" dominant-baseline="ideographic">20] (Size 3 == 3) | Root = 10 | 10</tspan></text></g></g></g><g id="g-root-tx_i2val11p_1qclsh3fn1csq-stroke" data-item-order="0" transform="translate(338, 386)"></g><g id="g-root-tx_step1_145id0nfmlvcw-fill" data-item-order="0" transform="translate(252.416748046875, 152)"><g id="tx_step1_145id0nfmlvcw-fill-merged" stroke="none" fill="#f9f1ee" fill-opacity="1"><g><text style="font: bold 20px Roboto, sans-serif; white-space: pre;" transform="translate(71.583251953125, 22)" font-weight="bold" font-size="20px" font-family="Roboto, sans-serif"><tspan x="-59.58" y="12" dominant-baseline="ideographic">Step 1</tspan></text></g></g></g><g id="g-root-tx_step1_145id0nfmlvcw-stroke" data-item-order="0" transform="translate(252.416748046875, 152)"></g><g id="g-root-tx_i3val70p_18mktbbfmna4o-fill" data-item-order="0" transform="translate(101.875, 497)"><g id="tx_i3val70p_18mktbbfmna4o-fill-merged" stroke="none" fill="#f9f1ee" fill-opacity="1"><g><text style="font: 15px Roboto, sans-serif; white-space: pre;" transform="translate(222.125, 37)" font-size="15px" font-family="Roboto, sans-serif"><tspan x="-201.5" y="-9" dominant-baseline="ideographic">i=3, Val=70 | Push 70, Pop 10 | </tspan><tspan x="-210.13" y="9" dominant-baseline="ideographic">[11, 20, 70] (Size 4 -&gt; 3) | Root = </tspan><tspan x="-46.83" y="27" dominant-baseline="ideographic">11 | 11</tspan></text></g></g></g><g id="g-root-tx_i3val70p_18mktbbfmna4o-stroke" data-item-order="0" transform="translate(101.875, 497)"></g><g id="g-root-tx_step4_147ds9zfmj2tf-fill" data-item-order="0" transform="translate(338, 512)"><g id="tx_step4_147ds9zfmj2tf-fill-merged" stroke="none" fill="#f9f1ee" fill-opacity="1"><g><text style="font: bold 20px Roboto, sans-serif; white-space: pre;" transform="translate(10, 22)" font-weight="bold" font-size="20px" font-family="Roboto, sans-serif"><tspan x="2" y="12" dominant-baseline="ideographic">Step 4</tspan></text></g></g></g><g id="g-root-tx_step4_147ds9zfmj2tf-stroke" data-item-order="0" transform="translate(338, 512)"></g><g id="g-root-tx_step5_qp21yffmooay-fill" data-item-order="0" transform="translate(252.416748046875, 632)"><g id="tx_step5_qp21yffmooay-fill-merged" stroke="none" fill="#f9f1ee" fill-opacity="1"><g><text style="font: bold 20px Roboto, sans-serif; white-space: pre;" transform="translate(71.583251953125, 22)" font-weight="bold" font-size="20px" font-family="Roboto, sans-serif"><tspan x="-59.58" y="12" dominant-baseline="ideographic">Step 5</tspan></text></g></g></g><g id="g-root-tx_step5_qp21yffmooay-stroke" data-item-order="0" transform="translate(252.416748046875, 632)"></g><g id="g-root-tx_i4val50p_i0wqqvfmj218-fill" data-item-order="0" transform="translate(338, 617)"><g id="tx_i4val50p_i0wqqvfmj218-fill-merged" stroke="none" fill="#f9f1ee" fill-opacity="1"><g><text style="font: 15px Roboto, sans-serif; white-space: pre;" transform="translate(10, 37)" font-size="15px" font-family="Roboto, sans-serif"><tspan x="2" y="-9" dominant-baseline="ideographic">i=4, Val=50 | Push 50, Pop 11 | </tspan><tspan x="2" y="9" dominant-baseline="ideographic">[20, 50, 70] (Size 4 -&gt; 3) | Root = </tspan><tspan x="2" y="27" dominant-baseline="ideographic">20 | 20</tspan></text></g></g></g><g id="g-root-tx_i4val50p_i0wqqvfmj218-stroke" data-item-order="0" transform="translate(338, 617)"></g><g id="g-root-tx_stepbyst_18gygdjfmyk8x-fill" data-item-order="0" transform="translate(155.77081298828125, 38)"><g id="tx_stepbyst_18gygdjfmyk8x-fill-merged" stroke="none" fill="#f9f1ee" fill-opacity="1"><g><text style="font: bold 25px &quot;STIX Two Text&quot;, serif; white-space: pre;" transform="translate(180.22918701171875, 25)" font-weight="bold" font-size="25px" font-family="'STIX Two Text', serif"><tspan x="-168.23" y="12.33" dominant-baseline="ideographic">Step-by-Step Dry Run (A = 3)</tspan></text></g></g></g><g id="g-root-tx_stepbyst_18gygdjfmyk8x-stroke" data-item-order="0" transform="translate(155.77081298828125, 38)"></g><g id="g-root-tx_i5val40p_2riavfmooaz-fill" data-item-order="0" transform="translate(101.875, 737)"><g id="tx_i5val40p_2riavfmooaz-fill-merged" stroke="none" fill="#f9f1ee" fill-opacity="1"><g><text style="font: 15px Roboto, sans-serif; white-space: pre;" transform="translate(222.125, 37)" font-size="15px" font-family="Roboto, sans-serif"><tspan x="-201.5" y="-9" dominant-baseline="ideographic">i=5, Val=40 | Push 40, Pop 20 | </tspan><tspan x="-210.13" y="9" dominant-baseline="ideographic">[40, 50, 70] (Size 4 -&gt; 3) | Root = </tspan><tspan x="-46.83" y="27" dominant-baseline="ideographic">40 | 40</tspan></text></g></g></g><g id="g-root-tx_i5val40p_2riavfmooaz-stroke" data-item-order="0" transform="translate(101.875, 737)"></g><g id="g-root-tx_step6_qvx9wnfmkhsa-fill" data-item-order="0" transform="translate(338, 752)"><g id="tx_step6_qvx9wnfmkhsa-fill-merged" stroke="none" fill="#f9f1ee" fill-opacity="1"><g><text style="font: bold 20px Roboto, sans-serif; white-space: pre;" transform="translate(10, 22)" font-weight="bold" font-size="20px" font-family="Roboto, sans-serif"><tspan x="2" y="12" dominant-baseline="ideographic">Step 6</tspan></text></g></g></g><g id="g-root-tx_step6_qvx9wnfmkhsa-stroke" data-item-order="0" transform="translate(338, 752)"></g></g></g><path id="w1q6z2w7haxjih" d="M65.283 12.757a.35.35 0 0 0 .584.157l5.203-5.141-6.183 3.523.396 1.461zm-2.216-11.7a.35.35 0 0 0-.522.305v3.111l3.276-1.868-2.754-1.548zm3.728 2.105l-4.25 2.421v2.445l6.391-3.644-2.141-1.222zm4.708 3.303a.35.35 0 0 0 0-.609l-1.592-.9-7.365 4.199v1.782a.35.35 0 0 0 .523.305l8.435-4.777z M44.542 2.513c0-.433.355-.783.792-.783s.792.35.792.783-.355.783-.792.783-.792-.35-.792-.783zm59.171 0c0-.433.355-.783.792-.783s.792.35.792.783-.355.783-.792.783-.792-.35-.792-.783zm-85.951 7.636h-1.27v-.487c-.276.201-.864.609-1.881.609-1.202 0-2.274-.794-2.137-2.078.118-1.106 1.153-1.584 1.848-1.727l2.17-.345c0-.539-.29-.956-1.064-1.006s-1.21.305-1.571 1.017l-1.124-.605c1.218-2.631 5.029-1.764 5.029.414v4.207zm-1.27-2.86c.006.396-.062 1.112-.819 1.59-.587.37-1.841.299-1.903-.395-.049-.555.461-.791.906-.898l1.816-.297zm72.662 2.86h-1.27v-.487c-.276.201-.864.609-1.881.609-1.202 0-2.274-.794-2.137-2.078.118-1.106 1.153-1.584 1.848-1.727l2.17-.345c0-.539-.29-.956-1.064-1.006s-1.21.305-1.571 1.017l-1.124-.605c1.218-2.631 5.029-1.764 5.029.414v4.207zm-1.27-2.86c.006.396-.062 1.112-.82 1.59-.587.37-1.841.299-1.903-.395-.049-.555.461-.791.906-.898l1.816-.297zM99.096 10.149H97.85v-8.45h1.246v4.895l2.68-2.559h1.738l-2.633 2.535 2.715 3.578h-1.556l-2.077-2.707-.867.844v1.863zm6.053-6.114h-1.255v6.113h1.255V4.035zm-59.2 0h-1.255v6.113h1.255V4.035zm5.584 6.113V1.697h1.255v2.695c.361-.346 1-.485 1.47-.485 1.452 0 2.477 1.082 2.457 2.448v3.792h-1.27v-3.68c0-.408-.214-1.339-1.315-1.339-.968 0-1.342.756-1.342 1.339v3.681h-1.255zm-4.76-4.894V4.039h.621a.45.45 0 0 0 .45-.45v-.855h1.251v1.305h1.309v1.215h-1.309v3.109c0 .293.105.664.648.664.365 0 .531-.035.736-.07v1.137s-.361.113-.857.113c-1.398 0-1.777-1.051-1.777-1.788V5.254h-1.071zM36.528 4.039h-1.394l2.191 6.106h1.125l1.234-3.918 1.238 3.918h1.129l2.188-6.106h-1.383l-1.359 3.93-1.256-3.93h-1.124l-1.242 3.957-1.348-3.957zM26.212 7.141c-.02 1.566 1.187 3.129 3.223 3.129 1.566 0 2.383-.918 2.734-1.719L31.172 8c-.315.399-.801 1.094-1.738 1.094-1.145 0-1.825-.781-1.891-1.52h4.625c.074-.284.148-.995-.03-1.559-.336-1.064-1.221-2.102-2.839-2.102s-3.088 1.152-3.088 3.227zm1.363-.75h3.348c-.055-.43-.566-1.301-1.623-1.301a1.79 1.79 0 0 0-1.725 1.301zm-8.758.75c.038 1.758 1.277 3.133 3.145 3.133 1.074 0 1.723-.477 1.961-.672v.547h1.242V1.703h-1.258v2.888c-.414-.36-1.062-.68-1.93-.68-1.91 0-3.198 1.473-3.16 3.23zm1.309-.08c0 1.119.723 1.978 1.836 1.978a1.88 1.88 0 0 0 1.94-1.904c0-1.371-1.011-1.99-1.972-1.99s-1.805.798-1.805 1.916zm76.683-.028C96.771 5.275 95.532 3.9 93.664 3.9c-1.074 0-1.723.477-1.961.672v-.547h-1.242v8.22h1.258V9.583c.414.36 1.063.68 1.93.68 1.91 0 3.198-1.473 3.16-3.23zm-1.309.08c0-1.119-.723-1.978-1.836-1.978a1.88 1.88 0 0 0-1.94 1.904c0 1.371 1.011 1.99 1.972 1.99S95.5 8.231 95.5 7.113zM106.441 10.173V4.036h1.254v.382c.361-.346 1-.485 1.47-.485 1.452 0 2.477 1.082 2.457 2.448v3.792h-1.27V6.492c0-.408-.214-1.339-1.315-1.339-.969 0-1.342.756-1.342 1.339v3.681h-1.254zm-30.383-.021V1.824h1.084l4.215 5.777V1.824h1.32v8.328h-1.094l-4.207-5.796v5.796h-1.319zM5.24 10.149H4V2.377h1.014l2.664 3.597 2.654-3.592h1.03v7.766h-1.256V4.762L7.678 8.068 5.24 4.742v5.407z" transform="translate(536, 860)" fill="#80808088" stroke="none"></path></svg>