<?xml version="1.0" encoding="utf-8" standalone="yes"?>
<!DOCTYPE svg PUBLIC "-//W3C//DTD SVG 1.1//EN" "http://www.w3.org/Graphics/SVG/1.1/DTD/svg11.dtd">
<svg style="fill:none;stroke:none;fill-rule:evenodd;clip-rule:evenodd;stroke-linecap:round;stroke-linejoin:round;stroke-miterlimit:1.5;" version="1.1" xmlns="http://www.w3.org/2000/svg" xmlns:xlink="http://www.w3.org/1999/xlink" width="804" height="606" viewBox="0 0 804 606"><style class="text-font-style fontImports" data-font-family="Roboto">@import url(https://fonts.googleapis.com/css2?family=Roboto:wght@400;700&amp;amp;display=block);</style><style class="text-font-style fontImports" data-font-family="STIX Two Text">@import url(https://fonts.googleapis.com/css2?family=STIX+Two+Text:wght@400;700&amp;amp;display=block);</style><g id="items" style="isolation: isolate"><g id="blend" style="mix-blend-mode: normal"><g id="g-root-cp_1_g-1_13z9fvbdf37yf-fill" data-item-order="-385552" transform="translate(38, 128)"><g id="cp_1_g-1_13z9fvbdf37yf-fill-merged" stroke="none" fill="url(#gradient-f7836e-16806380)" fill-opacity="1"><g><path d="M130 10C63.726 10 10 63.726 10 130C10 196.274 63.726 250 130 250 H598C664.274 250 718 196.274 718 130C718 63.726 664.274 10 598 10 H130 M130 22C70.353 22 22 70.353 22 130C22 189.647 70.353 238 130 238 H442C501.647 238 550 189.647 550 130C550 70.353 501.647 22 442 22 H130"></path></g></g></g><g id="g-root-cp_1_g-1_13z9fvbdf37yf-stroke" data-item-order="-385552" transform="translate(38, 128)"><g id="cp_1_g-1_13z9fvbdf37yf-stroke" fill="none" stroke-linecap="round" stroke-linejoin="round" stroke-miterlimit="4" stroke="#2d142c" stroke-width="2" stroke-opacity="1"><g><path d="M 130 10C 63.7258 10 10 63.7258 10 130C 10 196.2742 63.7258 250 130 250L 598 250C 664.2742 250 718 196.2742 718 130C 718 63.7258 664.2742 10 598 10L 130 10ZM 130 22C 70.3532 22 22 70.3532 22 130C 22 189.6468 70.3532 238 130 238L 442 238C 501.6468 238 550 189.6468 550 130C 550 70.3532 501.6468 22 442 22L 130 22Z"></path></g></g></g><g id="g-root-cp_1_line_qofel3df36dk-fill" data-item-order="-385547" transform="translate(656.5, 362)"></g><g id="g-root-cp_1_line_qofel3df36dk-stroke" data-item-order="-385547" transform="translate(656.5, 362)"><g id="cp_1_line_qofel3df36dk-stroke" fill="none" stroke-linecap="round" stroke-linejoin="round" stroke-miterlimit="4" stroke="#f9f1ee" stroke-width="2" stroke-opacity="1"><g><path d="M 16.5 10L 16.5 64M 23 57.5L 16.5 64L 10 57.500001"></path></g></g></g><g id="g-root-cp_2_g-2_m8lwgndf375t-fill" data-item-order="-385542" transform="translate(50, 140)"><g id="cp_2_g-2_m8lwgndf375t-fill-merged" stroke="none" fill="url(#gradient-f37c75-334884014)" fill-opacity="1"><g><path d="M118 10C58.353 10 10 58.353 10 118C10 177.647 58.353 226 118 226 H430C489.647 226 538 177.647 538 118C538 58.353 489.647 10 430 10 H118 M118 22C64.981 22 22 64.981 22 118C22 171.019 64.981 214 118 214 H274C327.019 214 370 171.019 370 118C370 64.981 327.019 22 274 22 H118"></path></g></g></g><g id="g-root-cp_2_g-2_m8lwgndf375t-stroke" data-item-order="-385542" transform="translate(50, 140)"><g id="cp_2_g-2_m8lwgndf375t-stroke" fill="none" stroke-linecap="round" stroke-linejoin="round" stroke-miterlimit="4" stroke="#2d142c" stroke-width="2" stroke-opacity="1"><g><path d="M 118 10C 58.3532 10 10 58.3532 10 118C 10 177.6468 58.3532 226 118 226L 430 226C 489.6468 226 538 177.6468 538 118C 538 58.3532 489.6468 10 430 10L 118 10ZM 118 22C 64.9807 22 22 64.9807 22 118C 22 171.0193 64.9807 214 118 214L 274 214C 327.0193 214 370 171.0193 370 118C 370 64.9807 327.0193 22 274 22L 118 22Z"></path></g></g></g><g id="g-root-cp_2_line_2_dcyw7rdf37yi-fill" data-item-order="-385537" transform="translate(488.5, 353)"></g><g id="g-root-cp_2_line_2_dcyw7rdf37yi-stroke" data-item-order="-385537" transform="translate(488.5, 353)"><g id="cp_2_line_2_dcyw7rdf37yi-stroke" fill="none" stroke-linecap="round" stroke-linejoin="round" stroke-miterlimit="4" stroke="#f9f1ee" stroke-width="2" stroke-opacity="1"><g><path d="M 16.5 10L 16.5 73M 23 66.5L 16.5 73L 10 66.500001"></path></g></g></g><g id="g-root-cp_3_g-3_8xrv6fdf35kz-fill" data-item-order="-385532" transform="translate(62, 152)"><g id="cp_3_g-3_8xrv6fdf35kz-fill-merged" stroke="none" fill="url(#gradient-e46779-178402243)" fill-opacity="1"><g><path d="M106 10C52.981 10 10 52.981 10 106C10 159.019 52.981 202 106 202 H262C315.019 202 358 159.019 358 106C358 52.981 315.019 10 262 10 H106 M106 190C152.392 190 190 152.392 190 106C190 59.608 152.392 22 106 22C59.608 22 22 59.608 22 106C22 152.392 59.608 190 106 190"></path></g></g></g><g id="g-root-cp_3_g-3_8xrv6fdf35kz-stroke" data-item-order="-385532" transform="translate(62, 152)"><g id="cp_3_g-3_8xrv6fdf35kz-stroke" fill="none" stroke-linecap="round" stroke-linejoin="round" stroke-miterlimit="4" stroke="#2d142c" stroke-width="2" stroke-opacity="1"><g><path d="M 106 10C 52.9807 10 10 52.9807 10 106C 10 159.0193 52.9807 202 106 202L 262 202C 315.0193 202 358 159.0193 358 106C 358 52.9807 315.0193 10 262 10L 106 10ZM 106 190C 152.3919 190 190 152.3919 190 106C 190 59.6081 152.3919 22 106 22C 59.6081 22 22 59.6081 22 106C 22 152.3919 59.6081 190 106 190Z"></path></g></g></g><g id="g-root-cp_3_line_4_24uxjdf36do-fill" data-item-order="-385527" transform="translate(320.5, 343)"></g><g id="g-root-cp_3_line_4_24uxjdf36do-stroke" data-item-order="-385527" transform="translate(320.5, 343)"><g id="cp_3_line_4_24uxjdf36do-stroke" fill="none" stroke-linecap="round" stroke-linejoin="round" stroke-miterlimit="4" stroke="#f9f1ee" stroke-width="2" stroke-opacity="1"><g><path d="M 16.5 10L 16.5 83M 23 76.5L 16.5 83L 10 76.500001"></path></g></g></g><g id="g-root-cp_4_g-4_1unfes7df36yt-fill" data-item-order="-385522" transform="translate(74, 164)"><defs><linearGradient id="gradient-f7836e-16806380" x2="0" y2="1"><stop offset="0" stop-color="#ff9986"></stop><stop offset="1" stop-color="#ee6d55"></stop></linearGradient><linearGradient id="gradient-f37c75-334884014" x2="0" y2="1"><stop offset="0" stop-color="#ffa49f"></stop><stop offset="1" stop-color="#e7534b"></stop></linearGradient><linearGradient id="gradient-e46779-178402243" x2="0" y2="1"><stop offset="0" stop-color="#ffa2b0"></stop><stop offset="1" stop-color="#c92b42"></stop></linearGradient><linearGradient id="gradient-d65f81-355476950" x2="0" y2="1"><stop offset="0" stop-color="#ffa2bc"></stop><stop offset="1" stop-color="#ac1c45"></stop></linearGradient></defs><g id="cp_4_g-4_1unfes7df36yt-fill-merged" stroke="none" fill="url(#gradient-d65f81-355476950)" fill-opacity="1"><g><path d="M178 94C178 140.392 140.392 178 94 178C47.608 178 10 140.392 10 94C10 47.608 47.608 10 94 10C140.392 10 178 47.608 178 94"></path></g></g></g><g id="g-root-cp_4_g-4_1unfes7df36yt-stroke" data-item-order="-385522" transform="translate(74, 164)"><g id="cp_4_g-4_1unfes7df36yt-stroke" fill="none" stroke-linecap="round" stroke-linejoin="round" stroke-miterlimit="4" stroke="#2d142c" stroke-width="2" stroke-opacity="1"><g><path d="M 178 94C 178 140.3919 140.3919 178 94 178C 47.6081 178 10 140.3919 10 94C 10 47.6081 47.6081 10 94 10C 140.3919 10 178 47.6081 178 94Z"></path></g></g></g><g id="g-root-cp_4_line_6_1unfes7df36yu-fill" data-item-order="-385517" transform="translate(151.5, 332)"></g><g id="g-root-cp_4_line_6_1unfes7df36yu-stroke" data-item-order="-385517" transform="translate(151.5, 332)"><g id="cp_4_line_6_1unfes7df36yu-stroke" fill="none" stroke-linecap="round" stroke-linejoin="round" stroke-miterlimit="4" stroke="#f9f1ee" stroke-width="2" stroke-opacity="1"><g><path d="M 16.5 10L 16.5 94M 23 87.5L 16.5 94L 10 87.500001"></path></g></g></g><g id="g-root-tx_heapstat_1hcldhzdf35dz-fill" data-item-order="0" transform="translate(71.52081298828125, 38)"><g id="tx_heapstat_1hcldhzdf35dz-fill-merged" stroke="none" fill="#f9f1ee" fill-opacity="1"><g><text style="font: bold 25px &quot;STIX Two Text&quot;, serif; white-space: pre;" transform="translate(330.47918701171875, 25)" font-weight="bold" font-size="25px" font-family="'STIX Two Text', serif"><tspan x="-318.48" y="12.33" dominant-baseline="ideographic">Heap State Visualization: Tracking Top A = 3 Elements</tspan></text></g></g></g><g id="g-root-tx_heapstat_1hcldhzdf35dz-stroke" data-item-order="0" transform="translate(71.52081298828125, 38)"></g><g id="g-root-tx_11_dbpy1jdf4jyj-fill" data-item-order="0" transform="translate(138.984375, 236)"><g id="tx_11_dbpy1jdf4jyj-fill-merged" stroke="none" fill="#f9f1ee" fill-opacity="1"><g><text style="font: bold 20px Roboto, sans-serif; white-space: pre;" transform="translate(29.015625, 22)" font-weight="bold" font-size="20px" font-family="Roboto, sans-serif"><tspan x="-17.02" y="12" dominant-baseline="ideographic">[11]</tspan></text></g></g></g><g id="g-root-tx_11_dbpy1jdf4jyj-stroke" data-item-order="0" transform="translate(138.984375, 236)"></g><g id="g-root-tx_10_148032vdf35e2-fill" data-item-order="0" transform="translate(306.984375, 236)"><g id="tx_10_148032vdf35e2-fill-merged" stroke="none" fill="#f9f1ee" fill-opacity="1"><g><text style="font: bold 20px Roboto, sans-serif; white-space: pre;" transform="translate(29.015625, 22)" font-weight="bold" font-size="20px" font-family="Roboto, sans-serif"><tspan x="-17.02" y="12" dominant-baseline="ideographic">[10]</tspan></text></g></g></g><g id="g-root-tx_10_148032vdf35e2-stroke" data-item-order="0" transform="translate(306.984375, 236)"></g><g id="g-root-tx_112070_4o73x3df37y9-fill" data-item-order="0" transform="translate(442.14581298828125, 236)"><g id="tx_112070_4o73x3df37y9-fill-merged" stroke="none" fill="#f9f1ee" fill-opacity="1"><g><text style="font: bold 20px Roboto, sans-serif; white-space: pre;" transform="translate(61.85418701171875, 22)" font-weight="bold" font-size="20px" font-family="Roboto, sans-serif"><tspan x="-49.85" y="12" dominant-baseline="ideographic">[11, 20, 70]</tspan></text></g></g></g><g id="g-root-tx_112070_4o73x3df37y9-stroke" data-item-order="0" transform="translate(442.14581298828125, 236)"></g><g id="g-root-tx_10201170_vahnkndf37y8-fill" data-item-order="0" transform="translate(592.015625, 224)"><g id="tx_10201170_vahnkndf37y8-fill-merged" stroke="none" fill="#f9f1ee" fill-opacity="1"><g><text style="font: bold 20px Roboto, sans-serif; white-space: pre;" transform="translate(79.984375, 34)" font-weight="bold" font-size="20px" font-family="Roboto, sans-serif"><tspan x="-67.98" y="-0" dominant-baseline="ideographic">[10, 20, 11, 70, </tspan><tspan x="-16.27" y="24" dominant-baseline="ideographic">50]</tspan></text></g></g></g><g id="g-root-tx_10201170_vahnkndf37y8-stroke" data-item-order="0" transform="translate(592.015625, 224)"></g><g id="g-root-tx_resultou_qqatufdf35e0-fill" data-item-order="0" transform="translate(94.44790649414062, 428)"><g id="tx_resultou_qqatufdf35e0-fill-merged" stroke="none" fill="#f9f1ee" fill-opacity="1"><g><text style="font: 20px Roboto, sans-serif; white-space: pre;" transform="translate(73.55209350585938, 22)" font-size="20px" font-family="Roboto, sans-serif"><tspan x="-60.39" y="12" dominant-baseline="ideographic">Result Output</tspan></text></g></g></g><g id="g-root-tx_resultou_qqatufdf35e0-stroke" data-item-order="0" transform="translate(94.44790649414062, 428)"></g><g id="g-root-tx_overflow_18itsifdf356y-fill" data-item-order="0" transform="translate(273.5625, 428)"><g id="tx_overflow_18itsifdf356y-fill-merged" stroke="none" fill="#f9f1ee" fill-opacity="1"><g><text style="font: 20px Roboto, sans-serif; white-space: pre;" transform="translate(62.4375, 34)" font-size="20px" font-family="Roboto, sans-serif"><tspan x="-50.44" y="-0" dominant-baseline="ideographic">Overflow &amp; </tspan><tspan x="-37.48" y="24" dominant-baseline="ideographic">Eviction</tspan></text></g></g></g><g id="g-root-tx_overflow_18itsifdf356y-stroke" data-item-order="0" transform="translate(273.5625, 428)"></g><g id="g-root-tx_minheapc_1lvj91zdf35s4-fill" data-item-order="0" transform="translate(446.5, 428)"><g id="tx_minheapc_1lvj91zdf35s4-fill-merged" stroke="none" fill="#f9f1ee" fill-opacity="1"><g><text style="font: 20px Roboto, sans-serif; white-space: pre;" transform="translate(57.5, 34)" font-size="20px" font-family="Roboto, sans-serif"><tspan x="-45.35" y="-0" dominant-baseline="ideographic">Min-Heap </tspan><tspan x="-45.5" y="24" dominant-baseline="ideographic">Container</tspan></text></g></g></g><g id="g-root-tx_minheapc_1lvj91zdf35s4-stroke" data-item-order="0" transform="translate(446.5, 428)"></g><g id="g-root-tx_incoming_4my5qvdf35s6-fill" data-item-order="0" transform="translate(615.9948120117188, 428)"><g id="tx_incoming_4my5qvdf35s6-fill-merged" stroke="none" fill="#f9f1ee" fill-opacity="1"><g><text style="font: 20px Roboto, sans-serif; white-space: pre;" transform="translate(56.00518798828125, 46)" font-size="20px" font-family="Roboto, sans-serif"><tspan x="-44.01" y="-12" dominant-baseline="ideographic">Incoming </tspan><tspan x="-38.78" y="12" dominant-baseline="ideographic">Element </tspan><tspan x="-34.51" y="36" dominant-baseline="ideographic">Stream</tspan></text></g></g></g><g id="g-root-tx_incoming_4my5qvdf35s6-stroke" data-item-order="0" transform="translate(615.9948120117188, 428)"></g><g id="g-root-tx_current3_40a6vdf35e1-fill" data-item-order="0" transform="translate(92.00518798828125, 464)"><g id="tx_current3_40a6vdf35e1-fill-merged" stroke="none" fill="#f9f1ee" fill-opacity="1"><g><text style="font: 15px Roboto, sans-serif; white-space: pre;" transform="translate(75.99481201171875, 28)" font-size="15px" font-family="Roboto, sans-serif"><tspan x="-63.99" y="0" dominant-baseline="ideographic">Current 3rd largest </tspan><tspan x="-28.8" y="18" dominant-baseline="ideographic">element</tspan></text></g></g></g><g id="g-root-tx_current3_40a6vdf35e1-stroke" data-item-order="0" transform="translate(92.00518798828125, 464)"></g><g id="g-root-tx_evictedn_dgpqqfdf35z7-fill" data-item-order="0" transform="translate(259.2708435058594, 488)"><g id="tx_evictedn_dgpqqfdf35z7-fill-merged" stroke="none" fill="#f9f1ee" fill-opacity="1"><g><text style="font: 15px Roboto, sans-serif; white-space: pre;" transform="translate(76.72915649414062, 28)" font-size="15px" font-family="Roboto, sans-serif"><tspan x="-64.73" y="0" dominant-baseline="ideographic">Evicted (Not in Top </tspan><tspan x="-8.7" y="18" dominant-baseline="ideographic">3)</tspan></text></g></g></g><g id="g-root-tx_evictedn_dgpqqfdf35z7-stroke" data-item-order="0" transform="translate(259.2708435058594, 488)"></g><g id="g-root-tx_heapcapp_v98pefdf35s5-fill" data-item-order="0" transform="translate(422.60418701171875, 488)"><g id="tx_heapcapp_v98pefdf35s5-fill-merged" stroke="none" fill="#f9f1ee" fill-opacity="1"><g><text style="font: 15px Roboto, sans-serif; white-space: pre;" transform="translate(81.39581298828125, 28)" font-size="15px" font-family="Roboto, sans-serif"><tspan x="-69.4" y="0" dominant-baseline="ideographic">Heap capped at Size </tspan><tspan x="-11.3" y="18" dominant-baseline="ideographic">= 3</tspan></text></g></g></g><g id="g-root-tx_heapcapp_v98pefdf35s5-stroke" data-item-order="0" transform="translate(422.60418701171875, 488)"></g><g id="g-root-tx_elements_1d1ro2fdf35l3-fill" data-item-order="0" transform="translate(592.5676879882812, 512)"><g id="tx_elements_1d1ro2fdf35l3-fill-merged" stroke="none" fill="#f9f1ee" fill-opacity="1"><g><text style="font: 15px Roboto, sans-serif; white-space: pre;" transform="translate(79.43231201171875, 28)" font-size="15px" font-family="Roboto, sans-serif"><tspan x="-67.43" y="0" dominant-baseline="ideographic">Elements arriving in </tspan><tspan x="-37.71" y="18" dominant-baseline="ideographic">the stream</tspan></text></g></g></g><g id="g-root-tx_elements_1d1ro2fdf35l3-stroke" data-item-order="0" transform="translate(592.5676879882812, 512)"></g></g></g><path id="wv8lsifeikq9s" d="M65.283 12.757a.35.35 0 0 0 .584.157l5.203-5.141-6.183 3.523.396 1.461zm-2.216-11.7a.35.35 0 0 0-.522.305v3.111l3.276-1.868-2.754-1.548zm3.728 2.105l-4.25 2.421v2.445l6.391-3.644-2.141-1.222zm4.708 3.303a.35.35 0 0 0 0-.609l-1.592-.9-7.365 4.199v1.782a.35.35 0 0 0 .523.305l8.435-4.777z M44.542 2.513c0-.433.355-.783.792-.783s.792.35.792.783-.355.783-.792.783-.792-.35-.792-.783zm59.171 0c0-.433.355-.783.792-.783s.792.35.792.783-.355.783-.792.783-.792-.35-.792-.783zm-85.951 7.636h-1.27v-.487c-.276.201-.864.609-1.881.609-1.202 0-2.274-.794-2.137-2.078.118-1.106 1.153-1.584 1.848-1.727l2.17-.345c0-.539-.29-.956-1.064-1.006s-1.21.305-1.571 1.017l-1.124-.605c1.218-2.631 5.029-1.764 5.029.414v4.207zm-1.27-2.86c.006.396-.062 1.112-.819 1.59-.587.37-1.841.299-1.903-.395-.049-.555.461-.791.906-.898l1.816-.297zm72.662 2.86h-1.27v-.487c-.276.201-.864.609-1.881.609-1.202 0-2.274-.794-2.137-2.078.118-1.106 1.153-1.584 1.848-1.727l2.17-.345c0-.539-.29-.956-1.064-1.006s-1.21.305-1.571 1.017l-1.124-.605c1.218-2.631 5.029-1.764 5.029.414v4.207zm-1.27-2.86c.006.396-.062 1.112-.82 1.59-.587.37-1.841.299-1.903-.395-.049-.555.461-.791.906-.898l1.816-.297zM99.096 10.149H97.85v-8.45h1.246v4.895l2.68-2.559h1.738l-2.633 2.535 2.715 3.578h-1.556l-2.077-2.707-.867.844v1.863zm6.053-6.114h-1.255v6.113h1.255V4.035zm-59.2 0h-1.255v6.113h1.255V4.035zm5.584 6.113V1.697h1.255v2.695c.361-.346 1-.485 1.47-.485 1.452 0 2.477 1.082 2.457 2.448v3.792h-1.27v-3.68c0-.408-.214-1.339-1.315-1.339-.968 0-1.342.756-1.342 1.339v3.681h-1.255zm-4.76-4.894V4.039h.621a.45.45 0 0 0 .45-.45v-.855h1.251v1.305h1.309v1.215h-1.309v3.109c0 .293.105.664.648.664.365 0 .531-.035.736-.07v1.137s-.361.113-.857.113c-1.398 0-1.777-1.051-1.777-1.788V5.254h-1.071zM36.528 4.039h-1.394l2.191 6.106h1.125l1.234-3.918 1.238 3.918h1.129l2.188-6.106h-1.383l-1.359 3.93-1.256-3.93h-1.124l-1.242 3.957-1.348-3.957zM26.212 7.141c-.02 1.566 1.187 3.129 3.223 3.129 1.566 0 2.383-.918 2.734-1.719L31.172 8c-.315.399-.801 1.094-1.738 1.094-1.145 0-1.825-.781-1.891-1.52h4.625c.074-.284.148-.995-.03-1.559-.336-1.064-1.221-2.102-2.839-2.102s-3.088 1.152-3.088 3.227zm1.363-.75h3.348c-.055-.43-.566-1.301-1.623-1.301a1.79 1.79 0 0 0-1.725 1.301zm-8.758.75c.038 1.758 1.277 3.133 3.145 3.133 1.074 0 1.723-.477 1.961-.672v.547h1.242V1.703h-1.258v2.888c-.414-.36-1.062-.68-1.93-.68-1.91 0-3.198 1.473-3.16 3.23zm1.309-.08c0 1.119.723 1.978 1.836 1.978a1.88 1.88 0 0 0 1.94-1.904c0-1.371-1.011-1.99-1.972-1.99s-1.805.798-1.805 1.916zm76.683-.028C96.771 5.275 95.532 3.9 93.664 3.9c-1.074 0-1.723.477-1.961.672v-.547h-1.242v8.22h1.258V9.583c.414.36 1.063.68 1.93.68 1.91 0 3.198-1.473 3.16-3.23zm-1.309.08c0-1.119-.723-1.978-1.836-1.978a1.88 1.88 0 0 0-1.94 1.904c0 1.371 1.011 1.99 1.972 1.99S95.5 8.231 95.5 7.113zM106.441 10.173V4.036h1.254v.382c.361-.346 1-.485 1.47-.485 1.452 0 2.477 1.082 2.457 2.448v3.792h-1.27V6.492c0-.408-.214-1.339-1.315-1.339-.969 0-1.342.756-1.342 1.339v3.681h-1.254zm-30.383-.021V1.824h1.084l4.215 5.777V1.824h1.32v8.328h-1.094l-4.207-5.796v5.796h-1.319zM5.24 10.149H4V2.377h1.014l2.664 3.597 2.654-3.592h1.03v7.766h-1.256V4.762L7.678 8.068 5.24 4.742v5.407z" transform="translate(20, 572)" fill="#80808088" stroke="none"></path></svg>