<?xml version="1.0" encoding="utf-8" standalone="yes"?>
<!DOCTYPE svg PUBLIC "-//W3C//DTD SVG 1.1//EN" "http://www.w3.org/Graphics/SVG/1.1/DTD/svg11.dtd">
<svg style="fill:none;stroke:none;fill-rule:evenodd;clip-rule:evenodd;stroke-linecap:round;stroke-linejoin:round;stroke-miterlimit:1.5;" version="1.1" xmlns="http://www.w3.org/2000/svg" xmlns:xlink="http://www.w3.org/1999/xlink" width="1178" height="456" viewBox="0 0 1178 456"><style class="text-font-style fontImports" data-font-family="Shantell Sans">@import url(https://fonts.googleapis.com/css2?family=Shantell+Sans:wght@300..800&amp;amp;display=block);</style><style class="text-font-style fontImports" data-font-family="Roboto">@import url(https://fonts.googleapis.com/css2?family=Roboto:wght@400;700&amp;amp;display=block);</style><g id="items" style="isolation: isolate"><g id="blend" style="mix-blend-mode: normal"><g id="g-root-cp_1_lines-1_1hgychgfwvbwj-fill" data-item-order="-367007" transform="translate(20, 204.755615234375)"><g id="cp_1_lines-1_1hgychgfwvbwj-fill-merged" stroke="none" fill="#8dc6bf" fill-opacity="1"><g><path d="M119.198 110.796 H121.198C123.407 110.796 125.198 109.005 125.198 106.796 V14C125.198 11.791 123.407 10 121.198 10 H14C11.791 10 10 11.791 10 14 V106.796C10 109.005 11.791 110.796 14 110.796 H119.198"></path></g></g></g><g id="g-root-cp_1_lines-1_1hgychgfwvbwj-stroke" data-item-order="-367007" transform="translate(20, 204.755615234375)"><g id="cp_1_lines-1_1hgychgfwvbwj-stroke" fill="none" stroke-linecap="round" stroke-linejoin="round" stroke-miterlimit="4" stroke="#eeead7" stroke-width="2" stroke-opacity="1"><g><path d="M 16 10L 14 10C 11.7909 10 10 11.7909 10 14L 10 16M 10 16L 10 104.795837M 125.197922 16L 125.197922 104.795837M 16 10L 119.197922 10M 16 110.795837L 14 110.795837C 11.7909 110.795837 10 109.004937 10 106.795837L 10 104.795837M 119.197922 10L 121.197922 10C 123.407022 10 125.197922 11.7909 125.197922 14L 125.197922 16M 119.197922 110.795837L 16 110.795837M 119.197922 110.795837L 121.197922 110.795837C 123.407022 110.795837 125.197922 109.004937 125.197922 106.795837L 125.197922 104.795837"></path></g></g></g><g id="g-root-cp_2_lines-2_1464b78fwvabo-fill" data-item-order="-366953" transform="translate(207.19793701171875, 195.755615234375)"><g id="cp_2_lines-2_1464b78fwvabo-fill-merged" stroke="none" fill="#8dc6bf" fill-opacity="1"><g><path d="M117.729 128.796 H119.729C121.938 128.796 123.729 127.005 123.729 124.796 V14C123.729 11.791 121.938 10 119.729 10 H14C11.791 10 10 11.791 10 14 V124.796C10 127.005 11.791 128.796 14 128.796 H117.729"></path></g></g></g><g id="g-root-cp_2_lines-2_1464b78fwvabo-stroke" data-item-order="-366953" transform="translate(207.19793701171875, 195.755615234375)"><g id="cp_2_lines-2_1464b78fwvabo-stroke" fill="none" stroke-linecap="round" stroke-linejoin="round" stroke-miterlimit="4" stroke="#eeead7" stroke-width="2" stroke-opacity="1"><g><path d="M 16.000015 10L 14.000015 10C 11.790915 10 10.000015 11.7909 10.000015 14L 10.000015 16M 10.000015 16L 10.000015 122.795837M 123.729187 16L 123.729187 122.795837M 16.000015 10L 117.729187 10M 16.000015 128.795837L 14.000015 128.795837C 11.790915 128.795837 10.000015 127.004937 10.000015 124.795837L 10.000015 122.795837M 117.729187 10L 119.729187 10C 121.938287 10 123.729187 11.7909 123.729187 14L 123.729187 16M 117.729187 128.795837L 16.000015 128.795837M 117.729187 128.795837L 119.729187 128.795837C 121.938287 128.795837 123.729187 127.004937 123.729187 124.795837L 123.729187 122.795837"></path></g></g></g><g id="g-root-cp_3_lines-3_hz0sl0fwvcp9-fill" data-item-order="-366899" transform="translate(392.9271240234375, 195.755615234375)"><g id="cp_3_lines-3_hz0sl0fwvcp9-fill-merged" stroke="none" fill="#8dc6bf" fill-opacity="1"><g><path d="M135.115 128.796 H137.115C139.324 128.796 141.115 127.005 141.115 124.796 V14C141.115 11.791 139.324 10 137.115 10 H14C11.791 10 10 11.791 10 14 V124.796C10 127.005 11.791 128.796 14 128.796 H135.115"></path></g></g></g><g id="g-root-cp_3_lines-3_hz0sl0fwvcp9-stroke" data-item-order="-366899" transform="translate(392.9271240234375, 195.755615234375)"><g id="cp_3_lines-3_hz0sl0fwvcp9-stroke" fill="none" stroke-linecap="round" stroke-linejoin="round" stroke-miterlimit="4" stroke="#eeead7" stroke-width="2" stroke-opacity="1"><g><path d="M 16.000031 10L 14.000031 10C 11.790931 10 10.000031 11.7909 10.000031 14L 10.000031 16M 10.000031 16L 10.000031 122.795837M 141.114625 16L 141.114625 122.795837M 16.000031 10L 135.114625 10M 16.000031 128.795837L 14.000031 128.795837C 11.790931 128.795837 10.000031 127.004937 10.000031 124.795837L 10.000031 122.795837M 135.114625 10L 137.114625 10C 139.323725 10 141.114625 11.7909 141.114625 14L 141.114625 16M 135.114625 128.795837L 16.000031 128.795837M 135.114625 128.795837L 137.114625 128.795837C 139.323725 128.795837 141.114625 127.004937 141.114625 124.795837L 141.114625 122.795837"></path></g></g></g><g id="g-root-cp_4_lines-4_4o6rasfwvb4e-fill" data-item-order="-366845" transform="translate(596.0416259765625, 98)"><g id="cp_4_lines-4_4o6rasfwvb4e-fill-merged" stroke="none" fill="#fcbc66" fill-opacity="1"><g><path d="M10 126.154C10 127.654 10.856 129.154 12.528 130.025L64.303 156.321C66.297 157.431 68.432 157.431 70.427 156.321L122.201 130.025C123.873 129.154 124.729 127.654 124.729 126.154C124.729 108.15 124.729 62.024 124.729 41C124.729 39.5 123.873 38 122.201 37.129L70.427 10.833C68.432 9.722 66.297 9.722 64.303 10.833L12.528 37.129C10.856 38 10 39.5 10 41C10 59.626 10 108.15 10 126.154"></path></g></g></g><g id="g-root-cp_4_lines-4_4o6rasfwvb4e-stroke" data-item-order="-366845" transform="translate(596.0416259765625, 98)"><g id="cp_4_lines-4_4o6rasfwvb4e-stroke" fill="none" stroke-linecap="round" stroke-linejoin="round" stroke-miterlimit="4" stroke="#eeead7" stroke-width="2" stroke-opacity="1"><g><path d="M 10.000061 41C 10.000061 39.5 10.856271 38 12.528362 37.128901L 64.302776 10.8325C 66.296978 9.7225 68.432335 9.7225 70.426533 10.8325L 122.200943 37.128901C 123.873032 38 124.729248 39.5 124.729248 41M 10.000061 126.153503C 10.000061 127.653503 10.856271 129.153503 12.528362 130.024605L 64.302776 156.321014C 66.296978 157.431 68.432335 157.431 70.426533 156.321014L 122.200943 130.024605C 123.873032 129.153503 124.729248 127.653503 124.729248 126.153503M 10.000322 41.000671C 9.9998 59.626434 10.000148 108.150482 10.000322 126.153503M 124.729248 126.153503C 124.729248 108.150482 124.729248 62.023952 124.729248 41.000002"></path></g></g></g><g id="g-root-cp_5_lines-5_1qduawkfwvci7-fill" data-item-order="-366801" transform="translate(789.9376220703125, 112.1788330078125)"><g id="cp_5_lines-5_1qduawkfwvci7-fill-merged" stroke="none" fill="#8dc6bf" fill-opacity="1"><g><path d="M133.563 128.796 H135.563C137.772 128.796 139.563 127.005 139.563 124.796 V14C139.563 11.791 137.772 10 135.563 10 H14C11.791 10 10 11.791 10 14 V124.796C10 127.005 11.791 128.796 14 128.796 H133.563"></path></g></g></g><g id="g-root-cp_5_lines-5_1qduawkfwvci7-stroke" data-item-order="-366801" transform="translate(789.9376220703125, 112.1788330078125)"><g id="cp_5_lines-5_1qduawkfwvci7-stroke" fill="none" stroke-linecap="round" stroke-linejoin="round" stroke-miterlimit="4" stroke="#eeead7" stroke-width="2" stroke-opacity="1"><g><path d="M 16 10L 14 10C 11.7909 10 10 11.7909 10 14L 10 16M 10 16L 10 122.795837M 139.5625 16L 139.5625 122.795837M 16 10L 133.5625 10M 16 128.795837L 14 128.795837C 11.7909 128.795837 10 127.004937 10 124.795837L 10 122.795837M 133.5625 10L 135.5625 10C 137.7716 10 139.5625 11.7909 139.5625 14L 139.5625 16M 133.5625 128.795837L 16 128.795837M 133.5625 128.795837L 135.5625 128.795837C 137.7716 128.795837 139.5625 127.004937 139.5625 124.795837L 139.5625 122.795837"></path></g></g></g><g id="g-root-cp_6_lines-6_1hitrqsfwvaww-fill" data-item-order="-366747" transform="translate(991.5, 121.1788330078125)"><g id="cp_6_lines-6_1hitrqsfwvaww-fill-merged" stroke="none" fill="#8dc6bf" fill-opacity="1"><g><path d="M119.521 110.796 H121.521C123.73 110.796 125.521 109.005 125.521 106.796 V14C125.521 11.791 123.73 10 121.521 10 H14C11.791 10 10 11.791 10 14 V106.796C10 109.005 11.791 110.796 14 110.796 H119.521"></path></g></g></g><g id="g-root-cp_6_lines-6_1hitrqsfwvaww-stroke" data-item-order="-366747" transform="translate(991.5, 121.1788330078125)"><g id="cp_6_lines-6_1hitrqsfwvaww-stroke" fill="none" stroke-linecap="round" stroke-linejoin="round" stroke-miterlimit="4" stroke="#eeead7" stroke-width="2" stroke-opacity="1"><g><path d="M 16 10L 14 10C 11.7909 10 10 11.7909 10 14L 10 16M 10 16L 10 104.795837M 125.520813 16L 125.520813 104.795837M 16 10L 119.520813 10M 16 110.795837L 14 110.795837C 11.7909 110.795837 10 109.004937 10 106.795837L 10 104.795837M 119.520813 10L 121.520813 10C 123.729913 10 125.520813 11.7909 125.520813 14L 125.520813 16M 119.520813 110.795837L 16 110.795837M 119.520813 110.795837L 121.520813 110.795837C 123.729913 110.795837 125.520813 109.004937 125.520813 106.795837L 125.520813 104.795837"></path></g></g></g><g id="g-root-cp_7_lines-7_147d9dgfwvcht-fill" data-item-order="-366693" transform="translate(596.041748046875, 265.1534423828125)"><g id="cp_7_lines-7_147d9dgfwvcht-fill-merged" stroke="none" fill="#8dc6bf" fill-opacity="1"><g><path d="M116.896 10C125.18 10 131.896 32.564 131.896 60.398C131.896 88.232 125.18 110.796 116.896 110.796 H25C16.716 110.796 10 88.232 10 60.398C10 32.564 16.716 10 25 10 H116.896"></path></g></g></g><g id="g-root-cp_7_lines-7_147d9dgfwvcht-stroke" data-item-order="-366693" transform="translate(596.041748046875, 265.1534423828125)"><g id="cp_7_lines-7_147d9dgfwvcht-stroke" fill="none" stroke-linecap="round" stroke-linejoin="round" stroke-miterlimit="4" stroke="#eeead7" stroke-width="2" stroke-opacity="1"><g><path d="M 25 110.795898C 16.7157 110.795898 10 88.231979 10 60.39798C 10 32.563984 16.7157 10.000061 25 10.000061M 116.895844 110.795898C 125.180145 110.795898 131.895844 88.231979 131.895844 60.39798C 131.895844 32.563984 125.180145 10.000061 116.895844 10.000061M 25 10.000061L 116.895844 10.000061M 116.895844 110.795898L 25 110.795898"></path></g></g></g><g id="g-root-he_vccq7ofwva4r-fill" data-item-order="-366650" transform="translate(135.19793701171875, 255.15350341796875)"></g><g id="g-root-he_vccq7ofwva4r-stroke" data-item-order="-366650" transform="translate(135.19793701171875, 255.15350341796875)"><g id="he_vccq7ofwva4r-stroke" fill="none" stroke-linecap="round" stroke-linejoin="round" stroke-miterlimit="4" stroke="#a3a3a3" stroke-width="2" stroke-opacity="1"><g><path d="M 10 10L 80 10"></path><path d="M 74 16.5L 80.5 10L 74 3.5" stroke-dasharray="none"></path></g></g></g><g id="g-root-he_qwj838fwvax1-fill" data-item-order="-366648" transform="translate(320.9271240234375, 255.15350341796875)"></g><g id="g-root-he_qwj838fwvax1-stroke" data-item-order="-366648" transform="translate(320.9271240234375, 255.15350341796875)"><g id="he_qwj838fwvax1-stroke" fill="none" stroke-linecap="round" stroke-linejoin="round" stroke-miterlimit="4" stroke="#a3a3a3" stroke-width="2" stroke-opacity="1"><g><path d="M 10 10L 80 10"></path><path d="M 74 16.5L 80.5 10L 74 3.5" stroke-dasharray="none"></path></g></g></g><g id="g-root-he_qwj838fwvax3-fill" data-item-order="-366646" transform="translate(524.041748046875, 171.5767822265625)"></g><g id="g-root-he_qwj838fwvax3-stroke" data-item-order="-366646" transform="translate(524.041748046875, 171.5767822265625)"><g id="he_qwj838fwvax3-stroke" fill="none" stroke-linecap="round" stroke-linejoin="round" stroke-miterlimit="4" stroke="#a3a3a3" stroke-width="2" stroke-opacity="1"><g><path d="M 10 93.58L 34 93.58C 40.63 93.58 46 88.2 46 81.58L 46 22C 46 15.37 51.37 10 58 10L 80 10"></path><path d="M 74 16.5L 80.5 10L 74 3.5" stroke-dasharray="none"></path></g></g></g><g id="g-root-he_qwj838fwvax5-fill" data-item-order="-366644" transform="translate(710.7708740234375, 171.5767822265625)"></g><g id="g-root-he_qwj838fwvax5-stroke" data-item-order="-366644" transform="translate(710.7708740234375, 171.5767822265625)"><g id="he_qwj838fwvax5-stroke" fill="none" stroke-linecap="round" stroke-linejoin="round" stroke-miterlimit="4" stroke="#a3a3a3" stroke-width="2" stroke-opacity="1"><g><path d="M 10 10L 87.17 10"></path><path d="M 81.2 16.5L 87.7 10L 81.2 3.5" stroke-dasharray="none"></path></g></g></g><g id="g-root-he_mgppysfwvbpf-fill" data-item-order="-366642" transform="translate(919.5001220703125, 171.5767822265625)"></g><g id="g-root-he_mgppysfwvbpf-stroke" data-item-order="-366642" transform="translate(919.5001220703125, 171.5767822265625)"><g id="he_mgppysfwvbpf-stroke" fill="none" stroke-linecap="round" stroke-linejoin="round" stroke-miterlimit="4" stroke="#a3a3a3" stroke-width="2" stroke-opacity="1"><g><path d="M 10 10L 80 10"></path><path d="M 74 16.5L 80.5 10L 74 3.5" stroke-dasharray="none"></path></g></g></g><g id="g-root-he_mgppysfwvbph-fill" data-item-order="-366640" transform="translate(356.9271240234375, 171.5767822265625)"></g><g id="g-root-he_mgppysfwvbph-stroke" data-item-order="-366640" transform="translate(356.9271240234375, 171.5767822265625)"><g id="he_mgppysfwvbph-stroke" fill="none" stroke-linecap="round" stroke-linejoin="round" stroke-miterlimit="4" stroke="#a3a3a3" stroke-width="2" stroke-opacity="1"><g><path d="M 760.09 10L 784.09 10C 790.72 10 796.09 15.37 796.09 22L 796.09 224.37C 796.09 231 790.72 236.37 784.09 236.37L 22 236.37C 15.37 236.37 10 231 10 224.37L 10 105.58C 10 98.95 15.37 93.58 22 93.58L 44 93.58"></path><path d="M 38 100.1L 44.5 93.6L 38 87.1" stroke-dasharray="none"></path></g></g></g><g id="g-root-he_mgppysfwvbpj-fill" data-item-order="-366638" transform="translate(524.041748046875, 255.15350341796875)"></g><g id="g-root-he_mgppysfwvbpj-stroke" data-item-order="-366638" transform="translate(524.041748046875, 255.15350341796875)"><g id="he_mgppysfwvbpj-stroke" fill="none" stroke-linecap="round" stroke-linejoin="round" stroke-miterlimit="4" stroke="#a3a3a3" stroke-width="2" stroke-opacity="1"><g><path d="M 10 10L 34 10C 40.63 10 46 15.37 46 22L 46 58.4C 46 65.03 51.37 70.4 58 70.4L 80 70.4"></path><path d="M 74 76.9L 80.5 70.4L 74 63.9" stroke-dasharray="none"></path></g></g></g><g id="g-root-tx_popheapi_1uqjir8fwppn1-fill" data-item-order="0" transform="translate(798.9376220703125, 163.17889404296875)"><g id="tx_popheapi_1uqjir8fwppn1-fill-merged" stroke="none" fill="#584053" fill-opacity="1"><g><text style="font: 12px Roboto, sans-serif; white-space: pre;" transform="translate(65.78125, 24.39788818359375)" font-size="12px" font-family="Roboto, sans-serif"><tspan x="-53.78" y="-0.4" dominant-baseline="ideographic">Pop heap if reusing, </tspan><tspan x="-41.78" y="14" dominant-baseline="ideographic">else new room.</tspan></text></g></g></g><g id="g-root-tx_popheapi_1uqjir8fwppn1-stroke" data-item-order="0" transform="translate(798.9376220703125, 163.17889404296875)"></g><g id="g-root-tx_updatehe_1qbckvofwk1l4-fill" data-item-order="0" transform="translate(1003.8282470703125, 130.1788330078125)"><g id="tx_updatehe_1qbckvofwk1l4-fill-merged" stroke="none" fill="#584053" fill-opacity="1"><g><text style="font: bold 15px Roboto, sans-serif; white-space: pre;" transform="translate(55.4322509765625, 19)" font-weight="bold" font-size="15px" font-family="Roboto, sans-serif"><tspan x="-43.43" y="9" dominant-baseline="ideographic">Update Heap</tspan></text></g></g></g><g id="g-root-tx_updatehe_1qbckvofwk1l4-stroke" data-item-order="0" transform="translate(1003.8282470703125, 130.1788330078125)"></g><g id="g-root-tx_reuseora_4l2h10fwpp1g-fill" data-item-order="0" transform="translate(821.0469970703125, 121.1788330078125)"><g id="tx_reuseora_4l2h10fwpp1g-fill-merged" stroke="none" fill="#584053" fill-opacity="1"><g><text style="font: bold 15px Roboto, sans-serif; white-space: pre;" transform="translate(43.671875, 28)" font-weight="bold" font-size="15px" font-family="Roboto, sans-serif"><tspan x="-31.67" y="0" dominant-baseline="ideographic">Reuse or </tspan><tspan x="-29.62" y="18" dominant-baseline="ideographic">Allocate</tspan></text></g></g></g><g id="g-root-tx_reuseora_4l2h10fwpp1g-stroke" data-item-order="0" transform="translate(821.0469970703125, 121.1788330078125)"></g><g id="g-root-ic_hori_mah29gfwlipt-fill" data-item-order="0" transform="translate(641.4063110351562, 208.15350341796875)"></g><g id="g-root-ic_hori_mah29gfwlipt-stroke" data-item-order="0" transform="translate(641.4063110351562, 208.15350341796875)"><g id="ic_hori_mah29gfwlipt-stroke" fill="none" stroke-linecap="round" stroke-linejoin="round" stroke-miterlimit="4" stroke="#584053" stroke-width="2" stroke-opacity="1"><g><path d="M 33.5 10.499L 33.5 33.499M 10.5 10.499L 10.5 33.499M 24.5 22.499L 33.5 22.499M 10.5 22.499L 20.5 22.499M 27.5 25.499L 24.5 22.499L 27.5 19.499M 17.5 25.499L 20.5 22.499L 17.5 19.499"></path></g></g></g><g id="g-root-ic_1_1hfphh0fwpo26-fill" data-item-order="0" transform="translate(842.7188720703125, 197.97467041015625)"></g><g id="g-root-ic_1_1hfphh0fwpo26-stroke" data-item-order="0" transform="translate(842.7188720703125, 197.97467041015625)"><g id="ic_1_1hfphh0fwpo26-stroke" fill="none" stroke-linecap="round" stroke-linejoin="round" stroke-miterlimit="4" stroke="#584053" stroke-width="2" stroke-opacity="1"><g><path d="M 18.716 15.75C 18.025644 15.75 17.466 15.190356 17.466 14.5C 17.466 13.809644 18.025644 13.25 18.716 13.25C 19.406356 13.25 19.966 13.809644 19.966 14.5C 19.966 15.190356 19.406356 15.75 18.716 15.75ZM 22.2 16L 28.49 16.007L 29.904 14.593L 28.493 13.179L 22.2 13C 21.482046 11.225171 19.607122 10.207943 17.727832 10.573653C 15.848542 10.939364 14.491901 12.585457 14.491901 14.5C 14.491901 16.414543 15.848542 18.060636 17.727832 18.426347C 19.607122 18.792057 21.482046 17.774829 22.2 16ZM 14.5 22.5L 29.5 22.5C 29.5 22.5 30.5 22.5 30.5 23.5L 30.5 32.5C 30.5 32.5 30.5 33.5 29.5 33.5L 14.5 33.5C 14.5 33.5 13.5 33.5 13.5 32.5L 13.5 23.5C 13.5 23.5 13.5 22.5 14.5 22.5M 19.5 22.5L 19.5 33.5M 16.5 33.5L 16.5 22.5M 27.5 22.5L 27.5 33.5M 24.5 33.5L 24.5 22.5M 19.5 22.5L 19.5 21C 19.5 20.447715 19.947715 20 20.5 20L 23.5 20C 24.052285 20 24.5 20.447715 24.5 21L 24.5 22.5"></path></g></g></g><g id="g-root-ic_over_mdliusfwk362-fill" data-item-order="0" transform="translate(1037.260498046875, 188.97467041015625)"></g><g id="g-root-ic_over_mdliusfwk362-stroke" data-item-order="0" transform="translate(1037.260498046875, 188.97467041015625)"><g id="ic_over_mdliusfwk362-stroke" fill="none" stroke-linecap="round" stroke-linejoin="round" stroke-miterlimit="4" stroke="#584053" stroke-width="2" stroke-opacity="1"><g><path d="M 27.5 25L 27.5 31.5C 27.5 32.604569 26.604569 33.5 25.5 33.5L 14.5 33.5C 13.395431 33.5 12.5 32.604569 12.5 31.5L 12.5 25M 24 29.5L 16 29.5M 24.387 26.814L 16.56 25.153M 25.322 24.265L 18.011 21.017M 26.767 21.967L 20.289 17.273M 28.656 20.018L 23.293 14.082M 30.909 18.504L 26.894 11.584"></path></g></g></g><g id="g-root-tx_sortinte_18lxtbofwwoi7-fill" data-item-order="0" transform="translate(30.020843505859375, 213.755615234375)"><g id="tx_sortinte_18lxtbofwwoi7-fill-merged" stroke="none" fill="#584053" fill-opacity="1"><g><text style="font: bold 15px Roboto, sans-serif; white-space: pre;" transform="translate(57.578125, 19)" font-weight="bold" font-size="15px" font-family="Roboto, sans-serif"><tspan x="-45.58" y="9" dominant-baseline="ideographic">Sort Intervals</tspan></text></g></g></g><g id="g-root-tx_sortinte_18lxtbofwwoi7-stroke" data-item-order="0" transform="translate(30.020843505859375, 213.755615234375)"></g><g id="g-root-tx_initiali_1q8uldgfwh91d-fill" data-item-order="0" transform="translate(216.88021850585938, 204.755615234375)"><g id="tx_initiali_1q8uldgfwh91d-fill-merged" stroke="none" fill="#584053" fill-opacity="1"><g><text style="font: bold 15px Roboto, sans-serif; white-space: pre;" transform="translate(57.182281494140625, 28)" font-weight="bold" font-size="15px" font-family="Roboto, sans-serif"><tspan x="-45.18" y="0" dominant-baseline="ideographic">Initialize Min </tspan><tspan x="-19.44" y="18" dominant-baseline="ideographic">Heap</tspan></text></g></g></g><g id="g-root-tx_initiali_1q8uldgfwh91d-stroke" data-item-order="0" transform="translate(216.88021850585938, 204.755615234375)"></g><g id="g-root-tx_processm_1upakl0fwk4cv-fill" data-item-order="0" transform="translate(424.95318603515625, 204.755615234375)"><g id="tx_processm_1upakl0fwk4cv-fill-merged" stroke="none" fill="#584053" fill-opacity="1"><g><text style="font: bold 15px Roboto, sans-serif; white-space: pre;" transform="translate(43.53125, 28)" font-weight="bold" font-size="15px" font-family="Roboto, sans-serif"><tspan x="-27.36" y="0" dominant-baseline="ideographic">Process </tspan><tspan x="-31.53" y="18" dominant-baseline="ideographic">Meetings</tspan></text></g></g></g><g id="g-root-tx_processm_1upakl0fwk4cv-stroke" data-item-order="0" transform="translate(424.95318603515625, 204.755615234375)"></g><g id="g-root-tx_sortmeet_1lyn9v8fwwp3d-fill" data-item-order="0" transform="translate(29.00000762939453, 237.755615234375)"><g id="tx_sortmeet_1lyn9v8fwwp3d-fill-merged" stroke="none" fill="#584053" fill-opacity="1"><g><text style="font: 12px Roboto, sans-serif; white-space: pre;" transform="translate(58.598960876464844, 24.39788818359375)" font-size="12px" font-family="Roboto, sans-serif"><tspan x="-46.6" y="-0.4" dominant-baseline="ideographic">Sort meetings by </tspan><tspan x="-28.89" y="14" dominant-baseline="ideographic">start time.</tspan></text></g></g></g><g id="g-root-tx_sortmeet_1lyn9v8fwwp3d-stroke" data-item-order="0" transform="translate(29.00000762939453, 237.755615234375)"></g><g id="g-root-tx_reuseroo_141r2r8fwlgcn-fill" data-item-order="0" transform="translate(627.3125610351562, 121)"><g id="tx_reuseroo_141r2r8fwlgcn-fill-merged" stroke="none" fill="#584053" fill-opacity="1"><g><text style="font: bold 15px Roboto, sans-serif; white-space: pre;" transform="translate(36.09375, 25)" font-weight="bold" font-size="15px" font-family="Roboto, sans-serif"><tspan x="-21.55" y="1" dominant-baseline="ideographic">Reuse </tspan><tspan x="-24.09" y="16" dominant-baseline="ideographic">Room?</tspan></text></g></g></g><g id="g-root-tx_reuseroo_141r2r8fwlgcn-stroke" data-item-order="0" transform="translate(627.3125610351562, 121)"></g><g id="g-root-tx_prepareh_zmk1pwfwh91e-fill" data-item-order="0" transform="translate(216.19793701171875, 246.755615234375)"><g id="tx_prepareh_zmk1pwfwh91e-fill-merged" stroke="none" fill="#584053" fill-opacity="1"><g><text style="font: 12px Roboto, sans-serif; white-space: pre;" transform="translate(57.864593505859375, 24.39788818359375)" font-size="12px" font-family="Roboto, sans-serif"><tspan x="-45.86" y="-0.4" dominant-baseline="ideographic">Prepare heap for </tspan><tspan x="-29.41" y="14" dominant-baseline="ideographic">end times.</tspan></text></g></g></g><g id="g-root-tx_prepareh_zmk1pwfwh91e-stroke" data-item-order="0" transform="translate(216.19793701171875, 246.755615234375)"></g><g id="g-root-tx_yes_hvwib8fwpqmb-fill" data-item-order="0" transform="translate(719.0053100585938, 180.5767822265625)"><g id="tx_yes_hvwib8fwpqmb-fill-merged" stroke="none" fill="#584053" fill-opacity="1"><g><text style="font: 15px Roboto, sans-serif; white-space: pre;" transform="translate(23.34893798828125, 19)" font-size="15px" font-family="Roboto, sans-serif"><tspan x="-11.35" y="9" dominant-baseline="ideographic">yes</tspan></text></g></g></g><g id="g-root-tx_yes_hvwib8fwpqmb-stroke" data-item-order="0" transform="translate(719.0053100585938, 180.5767822265625)"></g><g id="g-root-tx_iteratet_1cyn16cfwk3k8-fill" data-item-order="0" transform="translate(401.9270935058594, 246.755615234375)"><g id="tx_iteratet_1cyn16cfwk3k8-fill-merged" stroke="none" fill="#584053" fill-opacity="1"><g><text style="font: 12px Roboto, sans-serif; white-space: pre;" transform="translate(66.55728149414062, 24.39788818359375)" font-size="12px" font-family="Roboto, sans-serif"><tspan x="-54.56" y="-0.4" dominant-baseline="ideographic">Iterate through each </tspan><tspan x="-45.34" y="14" dominant-baseline="ideographic">meeting interval.</tspan></text></g></g></g><g id="g-root-tx_iteratet_1cyn16cfwk3k8-stroke" data-item-order="0" transform="translate(401.9270935058594, 246.755615234375)"></g><g id="g-root-tx_pushcurr_zp2184fwk1l5-fill" data-item-order="0" transform="translate(1000.5001220703125, 154.17889404296875)"><g id="tx_pushcurr_zp2184fwk1l5-fill-merged" stroke="none" fill="#584053" fill-opacity="1"><g><text style="font: 12px Roboto, sans-serif; white-space: pre;" transform="translate(58.7603759765625, 24.39788818359375)" font-size="12px" font-family="Roboto, sans-serif"><tspan x="-46.76" y="-0.4" dominant-baseline="ideographic">Push current end </tspan><tspan x="-36.36" y="14" dominant-baseline="ideographic">time to heap.</tspan></text></g></g></g><g id="g-root-tx_pushcurr_zp2184fwk1l5-stroke" data-item-order="0" transform="translate(1000.5001220703125, 154.17889404296875)"></g><g id="g-root-ic_jump_4g2l6cfwy3nv-fill" data-item-order="0" transform="translate(65.59896850585938, 272.5513916015625)"></g><g id="g-root-ic_jump_4g2l6cfwy3nv-stroke" data-item-order="0" transform="translate(65.59896850585938, 272.5513916015625)"><g id="ic_jump_4g2l6cfwy3nv-stroke" fill="none" stroke-linecap="round" stroke-linejoin="round" stroke-miterlimit="4" stroke="#584053" stroke-width="2" stroke-opacity="1"><g><path d="M 33.243 33.25L 10.75 33.25L 10.75 10.75M 14 16.25L 18 16.25M 29 16.25L 33 16.25M 16 19.75L 20 19.75M 15.5625 12.75L 19.5625 12.75M 24 12.75L 28 12.75M 14 23.25L 18 23.25M 23 23.25L 27 23.25M 20 26.75L 24 26.75M 10.75 26.75L 14.75 26.75M 22 30.25L 26 30.25M 28 26.75L 32 26.75"></path></g></g></g><g id="g-root-tx_meetingr_924u5wfwwr2c-fill" data-item-order="0" transform="translate(371.14068603515625, 38)"><g id="tx_meetingr_924u5wfwwr2c-fill-merged" stroke="none" fill="#584053" fill-opacity="1"><g><text style="font: bold 25px &quot;Shantell Sans&quot;, cursive; white-space: pre;" transform="translate(202.36981201171875, 25)" font-weight="bold" font-size="25px" font-family="'Shantell Sans', cursive"><tspan x="-190.37" y="16.33" dominant-baseline="ideographic">Meeting Rooms II Algorithm</tspan></text></g></g></g><g id="g-root-tx_meetingr_924u5wfwwr2c-stroke" data-item-order="0" transform="translate(371.14068603515625, 38)"></g><g id="g-root-ic_ceme_dg306sfwh897-fill" data-item-order="0" transform="translate(252.06253051757812, 281.5513916015625)"></g><g id="g-root-ic_ceme_dg306sfwh897-stroke" data-item-order="0" transform="translate(252.06253051757812, 281.5513916015625)"><g id="ic_ceme_dg306sfwh897-stroke" fill="none" stroke-linecap="round" stroke-linejoin="round" stroke-miterlimit="4" stroke="#584053" stroke-width="2" stroke-opacity="1"><g><path d="M 14.5 31C 14.5 32.380712 15.619288 33.5 17 33.5C 18.380712 33.5 19.5 32.380712 19.5 31C 19.5 29.619288 18.380712 28.5 17 28.5C 15.619288 28.5 14.5 29.619288 14.5 31M 24.5 31C 24.5 32.380712 25.619288 33.5 27 33.5C 28.380712 33.5 29.5 32.380712 29.5 31C 29.5 29.619288 28.380712 28.5 27 28.5C 25.619288 28.5 24.5 29.619288 24.5 31M 29.45 31.5C 30.673183 31.548327 31.750061 30.700392 31.990001 29.500001L 33.49 21.62C 33.517427 21.475305 33.480967 21.325818 33.39 21.21C 33.296884 21.086427 33.154419 21.009716 32.999998 20.999999L 11 21C 10.850423 21.002271 10.708771 21.067649 10.61 21.179999C 10.519033 21.295818 10.482573 21.445305 10.51 21.59L 12 29.47C 12.243725 30.668064 13.318193 31.514101 14.54 31.47M 19.45 31.5L 24.55 31.5M 32.5 19C 32.5 16.790861 30.709139 15 28.5 15C 28.271997 14.999667 28.044422 15.019747 27.82 15.06C 27.151002 12.390663 24.751894 10.518629 22 10.518629C 19.248107 10.518629 16.848999 12.390663 16.18 15.06C 15.955578 15.019747 15.728003 14.999667 15.5 15C 13.290861 15 11.5 16.790861 11.5 19"></path></g></g></g><g id="g-root-ic_sync_v7zhrofwk2rl-fill" data-item-order="0" transform="translate(446.48443603515625, 281.5513916015625)"></g><g id="g-root-ic_sync_v7zhrofwk2rl-stroke" data-item-order="0" transform="translate(446.48443603515625, 281.5513916015625)"><g id="ic_sync_v7zhrofwk2rl-stroke" fill="none" stroke-linecap="round" stroke-linejoin="round" stroke-miterlimit="4" stroke="#584053" stroke-width="2" stroke-opacity="1"><g><path d="M 18 30.5L 11.5 30.5C 10.947715 30.5 10.5 30.052285 10.5 29.5L 10.5 13.5C 10.5 12.947715 10.947715 12.5 11.5 12.5L 25.5 12.5C 26.052285 12.5 26.5 12.947715 26.5 13.5L 26.5 19M 14.5 14.5L 14.5 10.5M 18.5 14.5L 18.5 10.5M 22.5 14.5L 22.5 10.5M 29.09 25.14L 32.129999 26.5L 33.5 23.43M 21.32 25.27C 22.167067 22.795981 24.621145 21.244333 27.219393 21.53997C 29.817641 21.835608 31.860396 23.898922 32.130001 26.5M 24.38 29.860001L 21.34 28.5L 19.97 31.57M 32.15 29.73C 31.302934 32.20402 28.848856 33.755668 26.250608 33.460031C 23.65236 33.164393 21.609605 31.101079 21.34 28.500001"></path></g></g></g><g id="g-root-tx_result_v8m20kfwlix2-fill" data-item-order="0" transform="translate(633.557373046875, 274.15350341796875)"><g id="tx_result_v8m20kfwlix2-fill-merged" stroke="none" fill="#584053" fill-opacity="1"><g><text style="font: bold 15px Roboto, sans-serif; white-space: pre;" transform="translate(33.43231201171875, 19)" font-weight="bold" font-size="15px" font-family="Roboto, sans-serif"><tspan x="-21.43" y="9" dominant-baseline="ideographic">Result</tspan></text></g></g></g><g id="g-root-tx_result_v8m20kfwlix2-stroke" data-item-order="0" transform="translate(633.557373046875, 274.15350341796875)"></g><g id="g-root-ic_view_1lws0xgfwlhxc-fill" data-item-order="0" transform="translate(644.9896850585938, 332.9493408203125)"></g><g id="g-root-ic_view_1lws0xgfwlhxc-stroke" data-item-order="0" transform="translate(644.9896850585938, 332.9493408203125)"><g id="ic_view_1lws0xgfwlhxc-stroke" fill="none" stroke-linecap="round" stroke-linejoin="round" stroke-miterlimit="4" stroke="#584053" stroke-width="2" stroke-opacity="1"><g><path d="M 33.1357 24.1658C 33.1357 24.7181 32.688 25.1658 32.1357 25.1658L 11.86423 25.1658C 11.31195 25.1658 10.864229 24.7181 10.864229 24.1658L 10.864229 13.41211C 10.864229 12.85982 11.31194 12.41211 11.86423 12.41211L 32.1357 12.41211C 32.688 12.41211 33.1357 12.85982 33.1357 13.41211L 33.1357 24.1658ZM 14.27246 30.5879C 14.27246 31.1402 13.82475 31.5879 13.27246 31.5879L 11.86474 31.5879C 11.31245 31.5879 10.864738 31.1402 10.864738 30.5879L 10.864738 29.0749C 10.864738 28.5227 11.31245 28.0749 11.86474 28.0749L 13.27246 28.0749C 13.82475 28.0749 14.27246 28.5227 14.27246 29.0749L 14.27246 30.5879ZM 20.5596 30.5879C 20.5596 31.1402 20.1119 31.5879 19.55957 31.5879L 18.15185 31.5879C 17.59956 31.5879 17.15185 31.1402 17.15185 30.5879L 17.15185 29.0749C 17.15185 28.5227 17.59956 28.0749 18.15185 28.0749L 19.55957 28.0749C 20.1119 28.0749 20.5596 28.5227 20.5596 29.0749L 20.5596 30.5879ZM 26.8486 30.5879C 26.8486 31.1402 26.4009 31.5879 25.8486 31.5879L 24.4409 31.5879C 23.8886 31.5879 23.4409 31.1402 23.4409 30.5879L 23.4409 29.0749C 23.4409 28.5227 23.8886 28.0749 24.4409 28.0749L 25.8486 28.0749C 26.4009 28.0749 26.8486 28.5227 26.8486 29.0749L 26.8486 30.5879ZM 33.1357 30.5879C 33.1357 31.1402 32.688 31.5879 32.1357 31.5879L 30.728 31.5879C 30.1757 31.5879 29.728 31.1402 29.728 30.5879L 29.728 29.0749C 29.728 28.5227 30.1757 28.0749 30.728 28.0749L 32.1357 28.0749C 32.688 28.0749 33.1357 28.5227 33.1357 29.0749L 33.1357 30.5879Z"></path></g></g></g><g id="g-root-tx_heaptopc_qqakdwfwlhxk-fill" data-item-order="0" transform="translate(617.041748046875, 157)"><g id="tx_heaptopc_qqakdwfwlhxk-fill-merged" stroke="none" fill="#584053" fill-opacity="1"><g><text style="font: 12px Roboto, sans-serif; white-space: pre;" transform="translate(46.36456298828125, 30.5767822265625)" font-size="12px" font-family="Roboto, sans-serif"><tspan x="-33.6" y="-6.58" dominant-baseline="ideographic">Heap top &lt;= </tspan><tspan x="-34.36" y="7.14" dominant-baseline="ideographic">current start </tspan><tspan x="-16.2" y="20.86" dominant-baseline="ideographic">time?</tspan></text></g></g></g><g id="g-root-tx_heaptopc_qqakdwfwlhxk-stroke" data-item-order="0" transform="translate(617.041748046875, 157)"></g><g id="g-root-tx_heapsize_4mbid0fwlix3-fill" data-item-order="0" transform="translate(608.041748046875, 298.15350341796875)"><g id="tx_heapsize_4mbid0fwlix3-fill-merged" stroke="none" fill="#584053" fill-opacity="1"><g><text style="font: 12px Roboto, sans-serif; white-space: pre;" transform="translate(58.94793701171875, 24.39788818359375)" font-size="12px" font-family="Roboto, sans-serif"><tspan x="-46.95" y="-0.4" dominant-baseline="ideographic">Heap size equals </tspan><tspan x="-43.63" y="14" dominant-baseline="ideographic">required rooms.</tspan></text></g></g></g><g id="g-root-tx_heapsize_4mbid0fwlix3-stroke" data-item-order="0" transform="translate(608.041748046875, 298.15350341796875)"></g></g></g><path id="w1qeglo4haf9qf" d="M65.283 12.757a.35.35 0 0 0 .584.157l5.203-5.141-6.183 3.523.396 1.461zm-2.216-11.7a.35.35 0 0 0-.522.305v3.111l3.276-1.868-2.754-1.548zm3.728 2.105l-4.25 2.421v2.445l6.391-3.644-2.141-1.222zm4.708 3.303a.35.35 0 0 0 0-.609l-1.592-.9-7.365 4.199v1.782a.35.35 0 0 0 .523.305l8.435-4.777z M44.542 2.513c0-.433.355-.783.792-.783s.792.35.792.783-.355.783-.792.783-.792-.35-.792-.783zm59.171 0c0-.433.355-.783.792-.783s.792.35.792.783-.355.783-.792.783-.792-.35-.792-.783zm-85.951 7.636h-1.27v-.487c-.276.201-.864.609-1.881.609-1.202 0-2.274-.794-2.137-2.078.118-1.106 1.153-1.584 1.848-1.727l2.17-.345c0-.539-.29-.956-1.064-1.006s-1.21.305-1.571 1.017l-1.124-.605c1.218-2.631 5.029-1.764 5.029.414v4.207zm-1.27-2.86c.006.396-.062 1.112-.819 1.59-.587.37-1.841.299-1.903-.395-.049-.555.461-.791.906-.898l1.816-.297zm72.662 2.86h-1.27v-.487c-.276.201-.864.609-1.881.609-1.202 0-2.274-.794-2.137-2.078.118-1.106 1.153-1.584 1.848-1.727l2.17-.345c0-.539-.29-.956-1.064-1.006s-1.21.305-1.571 1.017l-1.124-.605c1.218-2.631 5.029-1.764 5.029.414v4.207zm-1.27-2.86c.006.396-.062 1.112-.82 1.59-.587.37-1.841.299-1.903-.395-.049-.555.461-.791.906-.898l1.816-.297zM99.096 10.149H97.85v-8.45h1.246v4.895l2.68-2.559h1.738l-2.633 2.535 2.715 3.578h-1.556l-2.077-2.707-.867.844v1.863zm6.053-6.114h-1.255v6.113h1.255V4.035zm-59.2 0h-1.255v6.113h1.255V4.035zm5.584 6.113V1.697h1.255v2.695c.361-.346 1-.485 1.47-.485 1.452 0 2.477 1.082 2.457 2.448v3.792h-1.27v-3.68c0-.408-.214-1.339-1.315-1.339-.968 0-1.342.756-1.342 1.339v3.681h-1.255zm-4.76-4.894V4.039h.621a.45.45 0 0 0 .45-.45v-.855h1.251v1.305h1.309v1.215h-1.309v3.109c0 .293.105.664.648.664.365 0 .531-.035.736-.07v1.137s-.361.113-.857.113c-1.398 0-1.777-1.051-1.777-1.788V5.254h-1.071zM36.528 4.039h-1.394l2.191 6.106h1.125l1.234-3.918 1.238 3.918h1.129l2.188-6.106h-1.383l-1.359 3.93-1.256-3.93h-1.124l-1.242 3.957-1.348-3.957zM26.212 7.141c-.02 1.566 1.187 3.129 3.223 3.129 1.566 0 2.383-.918 2.734-1.719L31.172 8c-.315.399-.801 1.094-1.738 1.094-1.145 0-1.825-.781-1.891-1.52h4.625c.074-.284.148-.995-.03-1.559-.336-1.064-1.221-2.102-2.839-2.102s-3.088 1.152-3.088 3.227zm1.363-.75h3.348c-.055-.43-.566-1.301-1.623-1.301a1.79 1.79 0 0 0-1.725 1.301zm-8.758.75c.038 1.758 1.277 3.133 3.145 3.133 1.074 0 1.723-.477 1.961-.672v.547h1.242V1.703h-1.258v2.888c-.414-.36-1.062-.68-1.93-.68-1.91 0-3.198 1.473-3.16 3.23zm1.309-.08c0 1.119.723 1.978 1.836 1.978a1.88 1.88 0 0 0 1.94-1.904c0-1.371-1.011-1.99-1.972-1.99s-1.805.798-1.805 1.916zm76.683-.028C96.771 5.275 95.532 3.9 93.664 3.9c-1.074 0-1.723.477-1.961.672v-.547h-1.242v8.22h1.258V9.583c.414.36 1.063.68 1.93.68 1.91 0 3.198-1.473 3.16-3.23zm-1.309.08c0-1.119-.723-1.978-1.836-1.978a1.88 1.88 0 0 0-1.94 1.904c0 1.371 1.011 1.99 1.972 1.99S95.5 8.231 95.5 7.113zM106.441 10.173V4.036h1.254v.382c.361-.346 1-.485 1.47-.485 1.452 0 2.477 1.082 2.457 2.448v3.792h-1.27V6.492c0-.408-.214-1.339-1.315-1.339-.969 0-1.342.756-1.342 1.339v3.681h-1.254zm-30.383-.021V1.824h1.084l4.215 5.777V1.824h1.32v8.328h-1.094l-4.207-5.796v5.796h-1.319zM5.24 10.149H4V2.377h1.014l2.664 3.597 2.654-3.592h1.03v7.766h-1.256V4.762L7.678 8.068 5.24 4.742v5.407z" transform="translate(20, 421.9493408203125)" fill="#80808088" stroke="none"></path></svg>