<?xml version="1.0" encoding="utf-8" standalone="yes"?>
<!DOCTYPE svg PUBLIC "-//W3C//DTD SVG 1.1//EN" "http://www.w3.org/Graphics/SVG/1.1/DTD/svg11.dtd">
<svg style="fill:none;stroke:none;fill-rule:evenodd;clip-rule:evenodd;stroke-linecap:round;stroke-linejoin:round;stroke-miterlimit:1.5;" version="1.1" xmlns="http://www.w3.org/2000/svg" xmlns:xlink="http://www.w3.org/1999/xlink" width="696" height="393" viewBox="0 0 696 393"><style class="text-font-style fontImports" data-font-family="Roboto">@import url(https://fonts.googleapis.com/css2?family=Roboto:wght@400;700&amp;amp;display=block);</style><style class="text-font-style fontImports" data-font-family="Fredoka">@font-face {font-family: 'Fredoka 500';src: url(https://fonts.napkin.ai/google-fonts/20250207/fredoka/fredoka_500.ttf) format("truetype");font-weight: 500;font-style: normal;}</style><g id="items" style="isolation: isolate"><g id="blend" style="mix-blend-mode: normal"><g id="g-root-cp_1_g-1_18i6ixghkg8w3-fill" data-item-order="-192033" transform="translate(50, 228.199951171875)"><g id="cp_1_g-1_18i6ixghkg8w3-fill-merged" stroke="none" fill="#76b7f5" fill-opacity="1"><g><path d="M10 10 H106 V22 H10 V10"></path></g></g></g><g id="g-root-cp_1_g-1_18i6ixghkg8w3-stroke" data-item-order="-192033" transform="translate(50, 228.199951171875)"><g id="cp_1_g-1_18i6ixghkg8w3-stroke" fill="none" stroke-linecap="butt" stroke-linejoin="miter" stroke-miterlimit="4" stroke="#121d46" stroke-width="1" stroke-opacity="1"><g><path d="M 10 10L 106 10L 106 22L 10 22L 10 10Z"></path></g></g></g><g id="g-root-cp_2_g-2_v7chn8hkg7b8-fill" data-item-order="-192029" transform="translate(146, 228.199951171875)"><g id="cp_2_g-2_v7chn8hkg7b8-fill-merged" stroke="none" fill="#4edaed" fill-opacity="1"><g><path d="M10 10 H106 V22 H10 V10"></path></g></g></g><g id="g-root-cp_2_g-2_v7chn8hkg7b8-stroke" data-item-order="-192029" transform="translate(146, 228.199951171875)"><g id="cp_2_g-2_v7chn8hkg7b8-stroke" fill="none" stroke-linecap="butt" stroke-linejoin="miter" stroke-miterlimit="4" stroke="#121d46" stroke-width="1" stroke-opacity="1"><g><path d="M 10 10L 106 10L 106 22L 10 22Z"></path></g></g></g><g id="g-root-cp_3_g-3_mbphechkg83x-fill" data-item-order="-192025" transform="translate(242, 228.199951171875)"><g id="cp_3_g-3_mbphechkg83x-fill-merged" stroke="none" fill="#50eebf" fill-opacity="1"><g><path d="M10 10 H106 V22 H10 V10"></path></g></g></g><g id="g-root-cp_3_g-3_mbphechkg83x-stroke" data-item-order="-192025" transform="translate(242, 228.199951171875)"><g id="cp_3_g-3_mbphechkg83x-stroke" fill="none" stroke-linecap="butt" stroke-linejoin="miter" stroke-miterlimit="4" stroke="#121d46" stroke-width="1" stroke-opacity="1"><g><path d="M 10 10L 106 10L 106 22L 10 22Z"></path></g></g></g><g id="g-root-cp_4_g-4_hvvz9whkg8w6-fill" data-item-order="-192021" transform="translate(338, 228.199951171875)"><g id="cp_4_g-4_hvvz9whkg8w6-fill-merged" stroke="none" fill="#80e876" fill-opacity="1"><g><path d="M10 10 H106 V22 H10 V10"></path></g></g></g><g id="g-root-cp_4_g-4_hvvz9whkg8w6-stroke" data-item-order="-192021" transform="translate(338, 228.199951171875)"><g id="cp_4_g-4_hvvz9whkg8w6-stroke" fill="none" stroke-linecap="butt" stroke-linejoin="miter" stroke-miterlimit="4" stroke="#121d46" stroke-width="1" stroke-opacity="1"><g><path d="M 10 10L 106 10L 106 22L 10 22Z"></path></g></g></g><g id="g-root-cp_5_g-5_908z10hkg9ov-fill" data-item-order="-192017" transform="translate(434, 228.199951171875)"><g id="cp_5_g-5_908z10hkg9ov-fill-merged" stroke="none" fill="#b6e233" fill-opacity="1"><g><path d="M10 10 H106 V22 H10 V10"></path></g></g></g><g id="g-root-cp_5_g-5_908z10hkg9ov-stroke" data-item-order="-192017" transform="translate(434, 228.199951171875)"><g id="cp_5_g-5_908z10hkg9ov-stroke" fill="none" stroke-linecap="butt" stroke-linejoin="miter" stroke-miterlimit="4" stroke="#121d46" stroke-width="1" stroke-opacity="1"><g><path d="M 10 10L 106 10L 106 22L 10 22L 10 10Z"></path></g></g></g><g id="g-root-cp_6_g-6_dg2h5ghkg9og-fill" data-item-order="-192013" transform="translate(530, 221.699951171875)"><g id="cp_6_g-6_dg2h5ghkg9og-fill-merged" stroke="none" fill="#e3ef3a" fill-opacity="1"><g><path d="M10 16.5 H87.714 V10L106 22.5L87.714 35 V28.5 H10 V16.5"></path></g></g></g><g id="g-root-cp_6_g-6_dg2h5ghkg9og-stroke" data-item-order="-192013" transform="translate(530, 221.699951171875)"><g id="cp_6_g-6_dg2h5ghkg9og-stroke" fill="none" stroke-linecap="butt" stroke-linejoin="miter" stroke-miterlimit="4" stroke="#121d46" stroke-width="1" stroke-opacity="1"><g><path d="M 10 16.5L 87.7143 16.5L 87.7143 10L 106 22.5L 87.7143 35L 87.7143 28.5L 10 28.5L 10 16.5Z"></path></g></g></g><g id="g-root-tx_efficien_58fv8hkg83l-fill" data-item-order="0" transform="translate(66.72915649414062, 38)"><g id="tx_efficien_58fv8hkg83l-fill-merged" stroke="none" fill="#f0faff" fill-opacity="1"><g><text style="font: bold 30px &quot;Fredoka 500&quot;, sans-serif; white-space: pre;" transform="translate(281.2708435058594, 46)" font-weight="bold" font-size="30px" font-family="'Fredoka 500', sans-serif"><tspan x="-269.27" y="-0" dominant-baseline="ideographic">Efficient Meeting Room Scheduling with </tspan><tspan x="-117.16" y="36" dominant-baseline="ideographic">Meeting Rooms II</tspan></text></g></g></g><g id="g-root-tx_efficien_58fv8hkg83l-stroke" data-item-order="0" transform="translate(66.72915649414062, 38)"></g><g id="g-root-tx_meetinga_1czvgb8hkg74a-fill" data-item-order="0" transform="translate(65.5, 158)"><g id="tx_meetinga_1czvgb8hkg74a-fill-merged" stroke="none" fill="#f0faff" fill-opacity="1"><g><text style="font: 13.5px Roboto, sans-serif; white-space: pre;" transform="translate(42.5, 18.10009765625)" font-size="13.5px" font-family="Roboto, sans-serif"><tspan x="-30.5" y="7.9" dominant-baseline="ideographic">Meeting A</tspan></text></g></g></g><g id="g-root-tx_meetinga_1czvgb8hkg74a-stroke" data-item-order="0" transform="translate(65.5, 158)"></g><g id="g-root-tx_meetingc_4maw5whkg9hg-fill" data-item-order="0" transform="translate(257.51043701171875, 158)"><g id="tx_meetingc_4maw5whkg9hg-fill-merged" stroke="none" fill="#f0faff" fill-opacity="1"><g><text style="font: 13.5px Roboto, sans-serif; white-space: pre;" transform="translate(42.48956298828125, 18.10009765625)" font-size="13.5px" font-family="Roboto, sans-serif"><tspan x="-30.49" y="7.9" dominant-baseline="ideographic">Meeting C</tspan></text></g></g></g><g id="g-root-tx_meetingc_4maw5whkg9hg-stroke" data-item-order="0" transform="translate(257.51043701171875, 158)"></g><g id="g-root-tx_conferen_145he8khkga32-fill" data-item-order="0" transform="translate(420.61456298828125, 158)"><g id="tx_conferen_145he8khkga32-fill-merged" stroke="none" fill="#f0faff" fill-opacity="1"><g><text style="font: 13.5px Roboto, sans-serif; white-space: pre;" transform="translate(71.38543701171875, 18.10009765625)" font-size="13.5px" font-family="Roboto, sans-serif"><tspan x="-59.39" y="7.9" dominant-baseline="ideographic">Conference Room 2</tspan></text></g></g></g><g id="g-root-tx_conferen_145he8khkga32-stroke" data-item-order="0" transform="translate(420.61456298828125, 158)"></g><g id="g-root-tx_030_mdkwnohkg74b-fill" data-item-order="0" transform="translate(74.41665649414062, 186.199951171875)"><g id="tx_030_mdkwnohkg74b-fill-merged" stroke="none" fill="#f0faff" fill-opacity="1"><g><text style="font: bold 20px &quot;Fredoka 500&quot;, sans-serif; white-space: pre;" transform="translate(33.583343505859375, 22)" font-weight="bold" font-size="20px" font-family="'Fredoka 500', sans-serif"><tspan x="-21.58" y="12" dominant-baseline="ideographic">0-30</tspan></text></g></g></g><g id="g-root-tx_030_mdkwnohkg74b-stroke" data-item-order="0" transform="translate(74.41665649414062, 186.199951171875)"></g><g id="g-root-tx_1520_1qckwushkg7ph-fill" data-item-order="0" transform="translate(263.17706298828125, 186.199951171875)"><g id="tx_1520_1qckwushkg7ph-fill-merged" stroke="none" fill="#f0faff" fill-opacity="1"><g><text style="font: bold 20px &quot;Fredoka 500&quot;, sans-serif; white-space: pre;" transform="translate(36.82293701171875, 22)" font-weight="bold" font-size="20px" font-family="'Fredoka 500', sans-serif"><tspan x="-24.82" y="12" dominant-baseline="ideographic">15-20</tspan></text></g></g></g><g id="g-root-tx_1520_1qckwushkg7ph-stroke" data-item-order="0" transform="translate(263.17706298828125, 186.199951171875)"></g><g id="g-root-tx_10450_quncychkg8i7-fill" data-item-order="0" transform="translate(449.77606201171875, 186.199951171875)"><g id="tx_10450_quncychkg8i7-fill-merged" stroke="none" fill="#f0faff" fill-opacity="1"><g><text style="font: bold 20px &quot;Fredoka 500&quot;, sans-serif; white-space: pre;" transform="translate(42.22393798828125, 22)" font-weight="bold" font-size="20px" font-family="'Fredoka 500', sans-serif"><tspan x="-30.22" y="12" dominant-baseline="ideographic">10-450</tspan></text></g></g></g><g id="g-root-tx_10450_quncychkg8i7-stroke" data-item-order="0" transform="translate(449.77606201171875, 186.199951171875)"></g><g id="g-root-tx_510_hz0cpghkga2o-fill" data-item-order="0" transform="translate(173.046875, 258.199951171875)"><g id="tx_510_hz0cpghkga2o-fill-merged" stroke="none" fill="#f0faff" fill-opacity="1"><g><text style="font: bold 20px &quot;Fredoka 500&quot;, sans-serif; white-space: pre;" transform="translate(30.953125, 22)" font-weight="bold" font-size="20px" font-family="'Fredoka 500', sans-serif"><tspan x="-18.95" y="12" dominant-baseline="ideographic">5-10</tspan></text></g></g></g><g id="g-root-tx_510_hz0cpghkga2o-stroke" data-item-order="0" transform="translate(173.046875, 258.199951171875)"></g><g id="g-root-tx_30400_4o6bf8hkg8hu-fill" data-item-order="0" transform="translate(351.14581298828125, 258.199951171875)"><g id="tx_30400_4o6bf8hkg8hu-fill-merged" stroke="none" fill="#f0faff" fill-opacity="1"><g><text style="font: bold 20px &quot;Fredoka 500&quot;, sans-serif; white-space: pre;" transform="translate(44.85418701171875, 22)" font-weight="bold" font-size="20px" font-family="'Fredoka 500', sans-serif"><tspan x="-32.85" y="12" dominant-baseline="ideographic">30-400</tspan></text></g></g></g><g id="g-root-tx_30400_4o6bf8hkg8hu-stroke" data-item-order="0" transform="translate(351.14581298828125, 258.199951171875)"></g><g id="g-root-tx_450750_1qdtv10hkg9vo-fill" data-item-order="0" transform="translate(539.1354370117188, 258.199951171875)"><g id="tx_450750_1qdtv10hkg9vo-fill-merged" stroke="none" fill="#f0faff" fill-opacity="1"><g><text style="font: bold 20px &quot;Fredoka 500&quot;, sans-serif; white-space: pre;" transform="translate(48.86456298828125, 22)" font-weight="bold" font-size="20px" font-family="'Fredoka 500', sans-serif"><tspan x="-36.86" y="12" dominant-baseline="ideographic">450-750</tspan></text></g></g></g><g id="g-root-tx_450750_1qdtv10hkg9vo-stroke" data-item-order="0" transform="translate(539.1354370117188, 258.199951171875)"></g><g id="g-root-tx_meetingb_93ztjohkg7pl-fill" data-item-order="0" transform="translate(161.69790649414062, 294.199951171875)"><g id="tx_meetingb_93ztjohkg7pl-fill-merged" stroke="none" fill="#f0faff" fill-opacity="1"><g><text style="font: 13.5px Roboto, sans-serif; white-space: pre;" transform="translate(42.302093505859375, 18.10009765625)" font-size="13.5px" font-family="Roboto, sans-serif"><tspan x="-30.3" y="7.9" dominant-baseline="ideographic">Meeting B</tspan></text></g></g></g><g id="g-root-tx_meetingb_93ztjohkg7pl-stroke" data-item-order="0" transform="translate(161.69790649414062, 294.199951171875)"></g><g id="g-root-tx_conferen_1utnd5ghkg93f-fill" data-item-order="0" transform="translate(324.61456298828125, 294.199951171875)"><g id="tx_conferen_1utnd5ghkg93f-fill-merged" stroke="none" fill="#f0faff" fill-opacity="1"><g><text style="font: 13.5px Roboto, sans-serif; white-space: pre;" transform="translate(71.38543701171875, 18.10009765625)" font-size="13.5px" font-family="Roboto, sans-serif"><tspan x="-59.39" y="7.9" dominant-baseline="ideographic">Conference Room 1</tspan></text></g></g></g><g id="g-root-tx_conferen_1utnd5ghkg93f-stroke" data-item-order="0" transform="translate(324.61456298828125, 294.199951171875)"></g><g id="g-root-tx_finalroo_1hitbv8hkg7il-fill" data-item-order="0" transform="translate(512.9583129882812, 294.199951171875)"><g id="tx_finalroo_1hitbv8hkg7il-fill-merged" stroke="none" fill="#f0faff" fill-opacity="1"><g><text style="font: 13.5px Roboto, sans-serif; white-space: pre;" transform="translate(75.04168701171875, 18.10009765625)" font-size="13.5px" font-family="Roboto, sans-serif"><tspan x="-63.04" y="7.9" dominant-baseline="ideographic">Final room allocation</tspan></text></g></g></g><g id="g-root-tx_finalroo_1hitbv8hkg7il-stroke" data-item-order="0" transform="translate(512.9583129882812, 294.199951171875)"></g></g></g><path id="w147z49we8qr66" d="M65.283 12.757a.35.35 0 0 0 .584.157l5.203-5.141-6.183 3.523.396 1.461zm-2.216-11.7a.35.35 0 0 0-.522.305v3.111l3.276-1.868-2.754-1.548zm3.728 2.105l-4.25 2.421v2.445l6.391-3.644-2.141-1.222zm4.708 3.303a.35.35 0 0 0 0-.609l-1.592-.9-7.365 4.199v1.782a.35.35 0 0 0 .523.305l8.435-4.777z M44.542 2.513c0-.433.355-.783.792-.783s.792.35.792.783-.355.783-.792.783-.792-.35-.792-.783zm59.171 0c0-.433.355-.783.792-.783s.792.35.792.783-.355.783-.792.783-.792-.35-.792-.783zm-85.951 7.636h-1.27v-.487c-.276.201-.864.609-1.881.609-1.202 0-2.274-.794-2.137-2.078.118-1.106 1.153-1.584 1.848-1.727l2.17-.345c0-.539-.29-.956-1.064-1.006s-1.21.305-1.571 1.017l-1.124-.605c1.218-2.631 5.029-1.764 5.029.414v4.207zm-1.27-2.86c.006.396-.062 1.112-.819 1.59-.587.37-1.841.299-1.903-.395-.049-.555.461-.791.906-.898l1.816-.297zm72.662 2.86h-1.27v-.487c-.276.201-.864.609-1.881.609-1.202 0-2.274-.794-2.137-2.078.118-1.106 1.153-1.584 1.848-1.727l2.17-.345c0-.539-.29-.956-1.064-1.006s-1.21.305-1.571 1.017l-1.124-.605c1.218-2.631 5.029-1.764 5.029.414v4.207zm-1.27-2.86c.006.396-.062 1.112-.82 1.59-.587.37-1.841.299-1.903-.395-.049-.555.461-.791.906-.898l1.816-.297zM99.096 10.149H97.85v-8.45h1.246v4.895l2.68-2.559h1.738l-2.633 2.535 2.715 3.578h-1.556l-2.077-2.707-.867.844v1.863zm6.053-6.114h-1.255v6.113h1.255V4.035zm-59.2 0h-1.255v6.113h1.255V4.035zm5.584 6.113V1.697h1.255v2.695c.361-.346 1-.485 1.47-.485 1.452 0 2.477 1.082 2.457 2.448v3.792h-1.27v-3.68c0-.408-.214-1.339-1.315-1.339-.968 0-1.342.756-1.342 1.339v3.681h-1.255zm-4.76-4.894V4.039h.621a.45.45 0 0 0 .45-.45v-.855h1.251v1.305h1.309v1.215h-1.309v3.109c0 .293.105.664.648.664.365 0 .531-.035.736-.07v1.137s-.361.113-.857.113c-1.398 0-1.777-1.051-1.777-1.788V5.254h-1.071zM36.528 4.039h-1.394l2.191 6.106h1.125l1.234-3.918 1.238 3.918h1.129l2.188-6.106h-1.383l-1.359 3.93-1.256-3.93h-1.124l-1.242 3.957-1.348-3.957zM26.212 7.141c-.02 1.566 1.187 3.129 3.223 3.129 1.566 0 2.383-.918 2.734-1.719L31.172 8c-.315.399-.801 1.094-1.738 1.094-1.145 0-1.825-.781-1.891-1.52h4.625c.074-.284.148-.995-.03-1.559-.336-1.064-1.221-2.102-2.839-2.102s-3.088 1.152-3.088 3.227zm1.363-.75h3.348c-.055-.43-.566-1.301-1.623-1.301a1.79 1.79 0 0 0-1.725 1.301zm-8.758.75c.038 1.758 1.277 3.133 3.145 3.133 1.074 0 1.723-.477 1.961-.672v.547h1.242V1.703h-1.258v2.888c-.414-.36-1.062-.68-1.93-.68-1.91 0-3.198 1.473-3.16 3.23zm1.309-.08c0 1.119.723 1.978 1.836 1.978a1.88 1.88 0 0 0 1.94-1.904c0-1.371-1.011-1.99-1.972-1.99s-1.805.798-1.805 1.916zm76.683-.028C96.771 5.275 95.532 3.9 93.664 3.9c-1.074 0-1.723.477-1.961.672v-.547h-1.242v8.22h1.258V9.583c.414.36 1.063.68 1.93.68 1.91 0 3.198-1.473 3.16-3.23zm-1.309.08c0-1.119-.723-1.978-1.836-1.978a1.88 1.88 0 0 0-1.94 1.904c0 1.371 1.011 1.99 1.972 1.99S95.5 8.231 95.5 7.113zM106.441 10.173V4.036h1.254v.382c.361-.346 1-.485 1.47-.485 1.452 0 2.477 1.082 2.457 2.448v3.792h-1.27V6.492c0-.408-.214-1.339-1.315-1.339-.969 0-1.342.756-1.342 1.339v3.681h-1.254zm-30.383-.021V1.824h1.084l4.215 5.777V1.824h1.32v8.328h-1.094l-4.207-5.796v5.796h-1.319zM5.24 10.149H4V2.377h1.014l2.664 3.597 2.654-3.592h1.03v7.766h-1.256V4.762L7.678 8.068 5.24 4.742v5.407z" transform="translate(17.430145263671875, 360.9697265625)" fill="#80808088" stroke="none"></path></svg>