<?xml version="1.0" encoding="utf-8" standalone="yes"?>
<!DOCTYPE svg PUBLIC "-//W3C//DTD SVG 1.1//EN" "http://www.w3.org/Graphics/SVG/1.1/DTD/svg11.dtd">
<svg style="fill:none;stroke:none;fill-rule:evenodd;clip-rule:evenodd;stroke-linecap:round;stroke-linejoin:round;stroke-miterlimit:1.5;" version="1.1" xmlns="http://www.w3.org/2000/svg" xmlns:xlink="http://www.w3.org/1999/xlink" width="1248" height="650" viewBox="0 0 1248 650"><style class="text-font-style fontImports" data-font-family="Roboto">@import url(https://fonts.googleapis.com/css2?family=Roboto:wght@400;700&amp;amp;display=block);</style><g id="items" style="isolation: isolate"><g id="blend" style="mix-blend-mode: normal"><g id="g-root-cp_1_lines-1_2qjmshago3y-fill" data-item-order="-664787" transform="translate(62, 140)"></g><g id="g-root-cp_1_lines-1_2qjmshago3y-stroke" data-item-order="-664787" transform="translate(62, 140)"><g id="cp_1_lines-1_2qjmshago3y-stroke" fill="none" stroke-linecap="round" stroke-linejoin="round" stroke-miterlimit="4" stroke="#44e095" stroke-width="2" stroke-opacity="1"><g><path d="M 10 30.000122C 10 18.954422 17.4619 10.000122 26.6667 10.000122L 233.3333 10.000122C 242.5381 10.000122 250 18.954422 250 30.000122M 250 30.000122L 250 320.000122M 10 320.000122L 10 30.000122M 10 320.000122C 10 331.045822 17.4619 340.000122 26.6667 340.000122L 233.3333 340.000122C 242.5381 340.000122 250 331.045822 250 320.000122"></path></g></g></g><g id="g-root-cp_1_line-1_1uo13hghagop3-fill" data-item-order="-664765" transform="translate(74, 304)"></g><g id="g-root-cp_1_line-1_1uo13hghagop3-stroke" data-item-order="-664765" transform="translate(74, 304)"><g id="cp_1_line-1_1uo13hghagop3-stroke" fill="none" stroke-linecap="round" stroke-linejoin="round" stroke-miterlimit="4" stroke="#ffffff" stroke-width="2" stroke-opacity="1"><g><path d="M 10 10L 226 10"></path></g></g></g><g id="g-root-cp_1_line_ud_1q8u2g4hagmbk-fill" data-item-order="-664749" transform="translate(74, 345.56298828125)"></g><g id="g-root-cp_1_line_ud_1q8u2g4hagmbk-stroke" data-item-order="-664749" transform="translate(74, 345.56298828125)"><g id="cp_1_line_ud_1q8u2g4hagmbk-stroke" fill="none" stroke-linecap="round" stroke-linejoin="round" stroke-miterlimit="4" stroke="#ffffff" stroke-width="2" stroke-opacity="1"><g><path d="M 10 16C 10 19.313709 12.686292 22 16 22C 19.313709 22 22 19.313709 22 16C 22 12.686292 19.313709 10 16 10C 12.686292 10 10 12.686292 10 16"></path></g></g></g><g id="g-root-cp_1_line_ug_1hd7278hagn49-fill" data-item-order="-664737" transform="translate(74, 405.56298828125)"></g><g id="g-root-cp_1_line_ug_1hd7278hagn49-stroke" data-item-order="-664737" transform="translate(74, 405.56298828125)"><g id="cp_1_line_ug_1hd7278hagn49-stroke" fill="none" stroke-linecap="round" stroke-linejoin="round" stroke-miterlimit="4" stroke="#ffffff" stroke-width="2" stroke-opacity="1"><g><path d="M 10 16C 10 19.313709 12.686292 22 16 22C 19.313709 22 22 19.313709 22 16C 22 12.686292 19.313709 10 16 10C 12.686292 10 10 12.686292 10 16"></path></g></g></g><g id="g-root-sy_1_Rectangle_341_uj_1cxdk2shagnwi-fill" data-item-order="-664731" transform="translate(182, 373)"></g><g id="g-root-sy_1_Rectangle_341_uj_1cxdk2shagnwi-stroke" data-item-order="-664731" transform="translate(182, 373)"><g id="sy_1_Rectangle_341_uj_1cxdk2shagnwi-stroke" fill="none" stroke-linecap="round" stroke-linejoin="round" stroke-miterlimit="4" stroke="#ffffff" stroke-width="2" stroke-opacity="1"><g><path d="M 10 10L 10 26"></path><path d="M 3.5 20L 10 26.5L 16.5 20" stroke-dasharray="none"></path></g></g></g><g id="g-root-cp_2_lines-2_141qjtwhagop7-fill" data-item-order="-664713" transform="translate(350, 140)"></g><g id="g-root-cp_2_lines-2_141qjtwhagop7-stroke" data-item-order="-664713" transform="translate(350, 140)"><g id="cp_2_lines-2_141qjtwhagop7-stroke" fill="none" stroke-linecap="round" stroke-linejoin="round" stroke-miterlimit="4" stroke="#44e095" stroke-width="2" stroke-opacity="1"><g><path d="M 10 30.000122C 10 18.954422 17.4619 10.000122 26.6667 10.000122L 233.3333 10.000122C 242.5381 10.000122 250 18.954422 250 30.000122M 250 30.000122L 250 380.000122M 10 380.000122L 10 30.000122M 10 380.000122C 10 391.045822 17.4619 400.000122 26.6667 400.000122L 233.3333 400.000122C 242.5381 400.000122 250 391.045822 250 380.000122"></path></g></g></g><g id="g-root-cp_2_line-2_zmjiskhagmbo-fill" data-item-order="-664691" transform="translate(362, 304)"></g><g id="g-root-cp_2_line-2_zmjiskhagmbo-stroke" data-item-order="-664691" transform="translate(362, 304)"><g id="cp_2_line-2_zmjiskhagmbo-stroke" fill="none" stroke-linecap="round" stroke-linejoin="round" stroke-miterlimit="4" stroke="#ffffff" stroke-width="2" stroke-opacity="1"><g><path d="M 10 10L 226 10"></path></g></g></g><g id="g-root-cp_2_line_ux_zmjiskhagmbp-fill" data-item-order="-664675" transform="translate(362, 345.56298828125)"></g><g id="g-root-cp_2_line_ux_zmjiskhagmbp-stroke" data-item-order="-664675" transform="translate(362, 345.56298828125)"><g id="cp_2_line_ux_zmjiskhagmbp-stroke" fill="none" stroke-linecap="round" stroke-linejoin="round" stroke-miterlimit="4" stroke="#ffffff" stroke-width="2" stroke-opacity="1"><g><path d="M 10 16C 10 19.313709 12.686292 22 16 22C 19.313709 22 22 19.313709 22 16C 22 12.686292 19.313709 10 16 10C 12.686292 10 10 12.686292 10 16"></path></g></g></g><g id="g-root-cp_2_line_u10_qqwijohagn4e-fill" data-item-order="-664663" transform="translate(362, 405.56298828125)"></g><g id="g-root-cp_2_line_u10_qqwijohagn4e-stroke" data-item-order="-664663" transform="translate(362, 405.56298828125)"><g id="cp_2_line_u10_qqwijohagn4e-stroke" fill="none" stroke-linecap="round" stroke-linejoin="round" stroke-miterlimit="4" stroke="#ffffff" stroke-width="2" stroke-opacity="1"><g><path d="M 10 16C 10 19.313709 12.686292 22 16 22C 19.313709 22 22 19.313709 22 16C 22 12.686292 19.313709 10 16 10C 12.686292 10 10 12.686292 10 16"></path></g></g></g><g id="g-root-sy_2_Rectangle_341_u13_dfg06chagopb-fill" data-item-order="-664657" transform="translate(470, 373)"></g><g id="g-root-sy_2_Rectangle_341_u13_dfg06chagopb-stroke" data-item-order="-664657" transform="translate(470, 373)"><g id="sy_2_Rectangle_341_u13_dfg06chagopb-stroke" fill="none" stroke-linecap="round" stroke-linejoin="round" stroke-miterlimit="4" stroke="#ffffff" stroke-width="2" stroke-opacity="1"><g><path d="M 10 10L 10 26"></path><path d="M 3.5 20L 10 26.5L 16.5 20" stroke-dasharray="none"></path></g></g></g><g id="g-root-cp_2_line_u15_908z50hagmbs-fill" data-item-order="-664647" transform="translate(362, 477.56298828125)"></g><g id="g-root-cp_2_line_u15_908z50hagmbs-stroke" data-item-order="-664647" transform="translate(362, 477.56298828125)"><g id="cp_2_line_u15_908z50hagmbs-stroke" fill="none" stroke-linecap="round" stroke-linejoin="round" stroke-miterlimit="4" stroke="#ffffff" stroke-width="2" stroke-opacity="1"><g><path d="M 10 16C 10 19.313709 12.686292 22 16 22C 19.313709 22 22 19.313709 22 16C 22 12.686292 19.313709 10 16 10C 12.686292 10 10 12.686292 10 16"></path></g></g></g><g id="g-root-sy_2_Rectangle_341_u18_4kfh0khagn41-fill" data-item-order="-664641" transform="translate(470, 445)"></g><g id="g-root-sy_2_Rectangle_341_u18_4kfh0khagn41-stroke" data-item-order="-664641" transform="translate(470, 445)"><g id="sy_2_Rectangle_341_u18_4kfh0khagn41-stroke" fill="none" stroke-linecap="round" stroke-linejoin="round" stroke-miterlimit="4" stroke="#ffffff" stroke-width="2" stroke-opacity="1"><g><path d="M 10 10L 10 26"></path><path d="M 3.5 20L 10 26.5L 16.5 20" stroke-dasharray="none"></path></g></g></g><g id="g-root-cp_3_lines-3_1upwiqshagnpm-fill" data-item-order="-664621" transform="translate(638, 140)"></g><g id="g-root-cp_3_lines-3_1upwiqshagnpm-stroke" data-item-order="-664621" transform="translate(638, 140)"><g id="cp_3_lines-3_1upwiqshagnpm-stroke" fill="none" stroke-linecap="round" stroke-linejoin="round" stroke-miterlimit="4" stroke="#44e095" stroke-width="2" stroke-opacity="1"><g><path d="M 10 30.000122C 10 18.954422 17.4619 10.000122 26.6667 10.000122L 233.3333 10.000122C 242.5381 10.000122 250 18.954422 250 30.000122M 250 30.000122L 250 392.000122M 10 392.000122L 10 30.000122M 10 392.000122C 10 403.045822 17.4619 412.000122 26.6667 412.000122L 233.3333 412.000122C 242.5381 412.000122 250 403.045822 250 392.000122"></path></g></g></g><g id="g-root-cp_3_line-3_1upwiqshagnpn-fill" data-item-order="-664599" transform="translate(650, 304)"></g><g id="g-root-cp_3_line-3_1upwiqshagnpn-stroke" data-item-order="-664599" transform="translate(650, 304)"><g id="cp_3_line-3_1upwiqshagnpn-stroke" fill="none" stroke-linecap="round" stroke-linejoin="round" stroke-miterlimit="4" stroke="#ffffff" stroke-width="2" stroke-opacity="1"><g><path d="M 10 10L 226 10"></path></g></g></g><g id="g-root-cp_3_line_u1m_1qa30mchagohw-fill" data-item-order="-664583" transform="translate(650, 345.56298828125)"></g><g id="g-root-cp_3_line_u1m_1qa30mchagohw-stroke" data-item-order="-664583" transform="translate(650, 345.56298828125)"><g id="cp_3_line_u1m_1qa30mchagohw-stroke" fill="none" stroke-linecap="round" stroke-linejoin="round" stroke-miterlimit="4" stroke="#ffffff" stroke-width="2" stroke-opacity="1"><g><path d="M 10 16C 10 19.313709 12.686292 22 16 22C 19.313709 22 22 19.313709 22 16C 22 12.686292 19.313709 10 16 10C 12.686292 10 10 12.686292 10 16"></path></g></g></g><g id="g-root-cp_3_line_u1p_1hf2hgkhagm4t-fill" data-item-order="-664571" transform="translate(650, 405.56298828125)"></g><g id="g-root-cp_3_line_u1p_1hf2hgkhagm4t-stroke" data-item-order="-664571" transform="translate(650, 405.56298828125)"><g id="cp_3_line_u1p_1hf2hgkhagm4t-stroke" fill="none" stroke-linecap="round" stroke-linejoin="round" stroke-miterlimit="4" stroke="#ffffff" stroke-width="2" stroke-opacity="1"><g><path d="M 10 16C 10 19.313709 12.686292 22 16 22C 19.313709 22 22 19.313709 22 16C 22 12.686292 19.313709 10 16 10C 12.686292 10 10 12.686292 10 16"></path></g></g></g><g id="g-root-sy_3_Rectangle_341_u1s_1cz8zc4hagmx2-fill" data-item-order="-664565" transform="translate(758, 373)"></g><g id="g-root-sy_3_Rectangle_341_u1s_1cz8zc4hagmx2-stroke" data-item-order="-664565" transform="translate(758, 373)"><g id="sy_3_Rectangle_341_u1s_1cz8zc4hagmx2-stroke" fill="none" stroke-linecap="round" stroke-linejoin="round" stroke-miterlimit="4" stroke="#ffffff" stroke-width="2" stroke-opacity="1"><g><path d="M 10 10L 10 26"></path><path d="M 3.5 20L 10 26.5L 16.5 20" stroke-dasharray="none"></path></g></g></g><g id="g-root-cp_3_line_u1u_1cz8zc4hagmx3-fill" data-item-order="-664555" transform="translate(650, 477.56298828125)"></g><g id="g-root-cp_3_line_u1u_1cz8zc4hagmx3-stroke" data-item-order="-664555" transform="translate(650, 477.56298828125)"><g id="cp_3_line_u1u_1cz8zc4hagmx3-stroke" fill="none" stroke-linecap="round" stroke-linejoin="round" stroke-miterlimit="4" stroke="#ffffff" stroke-width="2" stroke-opacity="1"><g><path d="M 10 16C 10 19.313709 12.686292 22 16 22C 19.313709 22 22 19.313709 22 16C 22 12.686292 19.313709 10 16 10C 12.686292 10 10 12.686292 10 16"></path></g></g></g><g id="g-root-sy_3_Rectangle_341_u1x_18jfh7ohagnpc-fill" data-item-order="-664549" transform="translate(758, 445)"></g><g id="g-root-sy_3_Rectangle_341_u1x_18jfh7ohagnpc-stroke" data-item-order="-664549" transform="translate(758, 445)"><g id="sy_3_Rectangle_341_u1x_18jfh7ohagnpc-stroke" fill="none" stroke-linecap="round" stroke-linejoin="round" stroke-miterlimit="4" stroke="#ffffff" stroke-width="2" stroke-opacity="1"><g><path d="M 10 10L 10 26"></path><path d="M 3.5 20L 10 26.5L 16.5 20" stroke-dasharray="none"></path></g></g></g><g id="g-root-cp_4_lines-4_znsgyshagoi1-fill" data-item-order="-664529" transform="translate(926, 140)"></g><g id="g-root-cp_4_lines-4_znsgyshagoi1-stroke" data-item-order="-664529" transform="translate(926, 140)"><g id="cp_4_lines-4_znsgyshagoi1-stroke" fill="none" stroke-linecap="round" stroke-linejoin="round" stroke-miterlimit="4" stroke="#44e095" stroke-width="2" stroke-opacity="1"><g><path d="M 10 30.000122C 10 18.954422 17.4619 10.000122 26.6667 10.000122L 233.3333 10.000122C 242.5381 10.000122 250 18.954422 250 30.000122M 250 30.000122L 250 296.000122M 10 296.000122L 10 30.000122M 10 296.000122C 10 307.045822 17.4619 316.000122 26.6667 316.000122L 233.3333 316.000122C 242.5381 316.000122 250 307.045822 250 296.000122"></path></g></g></g><g id="g-root-cp_4_line-4_znsgyshagoi2-fill" data-item-order="-664507" transform="translate(938, 280)"></g><g id="g-root-cp_4_line-4_znsgyshagoi2-stroke" data-item-order="-664507" transform="translate(938, 280)"><g id="cp_4_line-4_znsgyshagoi2-stroke" fill="none" stroke-linecap="round" stroke-linejoin="round" stroke-miterlimit="4" stroke="#ffffff" stroke-width="2" stroke-opacity="1"><g><path d="M 10 10L 226 10"></path></g></g></g><g id="g-root-cp_4_line_u2b_v8lfxghagm4j-fill" data-item-order="-664491" transform="translate(938, 321.56298828125)"></g><g id="g-root-cp_4_line_u2b_v8lfxghagm4j-stroke" data-item-order="-664491" transform="translate(938, 321.56298828125)"><g id="cp_4_line_u2b_v8lfxghagm4j-stroke" fill="none" stroke-linecap="round" stroke-linejoin="round" stroke-miterlimit="4" stroke="#ffffff" stroke-width="2" stroke-opacity="1"><g><path d="M 10 16C 10 19.313709 12.686292 22 16 22C 19.313709 22 22 19.313709 22 16C 22 12.686292 19.313709 10 16 10C 12.686292 10 10 12.686292 10 16"></path></g></g></g><g id="g-root-cp_4_line_u2e_mcyfokhagmx8-fill" data-item-order="-664479" transform="translate(938, 381.56298828125)"></g><g id="g-root-cp_4_line_u2e_mcyfokhagmx8-stroke" data-item-order="-664479" transform="translate(938, 381.56298828125)"><g id="cp_4_line_u2e_mcyfokhagmx8-stroke" fill="none" stroke-linecap="round" stroke-linejoin="round" stroke-miterlimit="4" stroke="#ffffff" stroke-width="2" stroke-opacity="1"><g><path d="M 10 16C 10 19.313709 12.686292 22 16 22C 19.313709 22 22 19.313709 22 16C 22 12.686292 19.313709 10 16 10C 12.686292 10 10 12.686292 10 16"></path></g></g></g><g id="g-root-sy_4_Rectangle_341_u2h_mcyfokhagmx9-fill" data-item-order="-664473" transform="translate(1046, 349)"></g><g id="g-root-sy_4_Rectangle_341_u2h_mcyfokhagmx9-stroke" data-item-order="-664473" transform="translate(1046, 349)"><g id="sy_4_Rectangle_341_u2h_mcyfokhagmx9-stroke" fill="none" stroke-linecap="round" stroke-linejoin="round" stroke-miterlimit="4" stroke="#ffffff" stroke-width="2" stroke-opacity="1"><g><path d="M 10 10L 10 26"></path><path d="M 3.5 20L 10 26.5L 16.5 20" stroke-dasharray="none"></path></g></g></g><g id="g-root-he_hx4xk4hagnpj-fill" data-item-order="-664461" transform="translate(182, 112)"></g><g id="g-root-he_hx4xk4hagnpj-stroke" data-item-order="-664461" transform="translate(182, 112)"><g id="he_hx4xk4hagnpj-stroke" fill="none" stroke-linecap="round" stroke-linejoin="round" stroke-miterlimit="4" stroke="#ffffff" stroke-width="2" stroke-opacity="1"><g><path d="M 10 368.000122L 10 384.000122C 10 390.630122 15.37 396.000122 22 396.000122L 139 396.000122C 145.63 396.000122 151 390.630122 151 384.000122L 151 22.000122C 151 15.370122 156.37 10.000122 163 10.000122L 286 10.000122C 292.63 10.000122 298 15.370122 298 22.000122L 298 36.000122"></path><path d="M 291.5 30.000122L 298 36.500122L 304.5 30.000122" stroke-dasharray="none"></path></g></g></g><g id="g-root-he_dhbffohagoht-fill" data-item-order="-664459" transform="translate(470, 112)"></g><g id="g-root-he_dhbffohagoht-stroke" data-item-order="-664459" transform="translate(470, 112)"><g id="he_dhbffohagoht-stroke" fill="none" stroke-linecap="round" stroke-linejoin="round" stroke-miterlimit="4" stroke="#ffffff" stroke-width="2" stroke-opacity="1"><g><path d="M 10 428.000122L 10 444.000122C 10 450.630122 15.37 456.000122 22 456.000122L 139 456.000122C 145.63 456.000122 151 450.630122 151 444.000122L 151 22.000122C 151 15.370122 156.37 10.000122 163 10.000122L 286 10.000122C 292.63 10.000122 298 15.370122 298 22.000122L 298 36.000122"></path><path d="M 291.5 30.000122L 298 36.500122L 304.5 30.000122" stroke-dasharray="none"></path></g></g></g><g id="g-root-he_dhbffohagohv-fill" data-item-order="-664457" transform="translate(758, 112)"></g><g id="g-root-he_dhbffohagohv-stroke" data-item-order="-664457" transform="translate(758, 112)"><g id="he_dhbffohagohv-stroke" fill="none" stroke-linecap="round" stroke-linejoin="round" stroke-miterlimit="4" stroke="#ffffff" stroke-width="2" stroke-opacity="1"><g><path d="M 10 440.000122L 10 456.000122C 10 462.630122 15.37 468.000122 22 468.000122L 139 468.000122C 145.63 468.000122 151 462.630122 151 456.000122L 151 22.000122C 151 15.370122 156.37 10.000122 163 10.000122L 286 10.000122C 292.63 10.000122 298 15.370122 298 22.000122L 298 36.000122"></path><path d="M 291.5 30.000122L 298 36.500122L 304.5 30.000122" stroke-dasharray="none"></path></g></g></g><g id="g-root-tx_processm_1um5o84ham8so-fill" data-item-order="0" transform="translate(674, 340)"><g id="tx_processm_1um5o84ham8so-fill-merged" stroke="none" fill="#ffffff" fill-opacity="1"><g><text style="font: 15px Roboto, sans-serif; white-space: pre;" transform="translate(10, 19)" font-size="15px" font-family="Roboto, sans-serif"><tspan x="2" y="9" dominant-baseline="ideographic">Process Meeting</tspan></text></g></g></g><g id="g-root-tx_processm_1um5o84ham8so-stroke" data-item-order="0" transform="translate(674, 340)"></g><g id="g-root-ic_colu_ddkkx0ham8sr-fill" data-item-order="0" transform="translate(1013.8958740234375, 160.0001220703125)"></g><g id="g-root-ic_colu_ddkkx0ham8sr-stroke" data-item-order="0" transform="translate(1013.8958740234375, 160.0001220703125)"><g id="ic_colu_ddkkx0ham8sr-stroke" fill="none" stroke-linecap="round" stroke-linejoin="round" stroke-miterlimit="4" stroke="#44e095" stroke-width="2" stroke-opacity="1"><g><path d="M 34.39843 16.22266C 34.39843 14.56579 33.055302 13.22266 31.39843 13.22266L 16.05859 13.22266C 14.40175 13.22266 13.05859 14.56579 13.05859 16.22266L 13.05859 31.5625C 13.05859 33.219341 14.40175 34.5625 16.05859 34.5625L 31.39843 34.5625C 33.055302 34.5625 34.39843 33.219341 34.39843 31.5625L 34.39843 16.22266ZM 78.039101 16.21093C 78.039101 14.55409 76.695999 13.21093 75.039101 13.21093L 59.699203 13.21093C 58.042297 13.21093 56.6992 14.55409 56.6992 16.21093L 56.6992 31.55077C 56.6992 33.207642 58.042297 34.55077 59.699203 34.55077L 75.039101 34.55077C 76.695999 34.55077 78.039101 33.207642 78.039101 31.55077L 78.039101 16.21093ZM 34.39843 60.4375C 34.39843 58.780602 33.055302 57.4375 31.39843 57.4375L 16.05859 57.4375C 14.40175 57.4375 13.05859 58.780602 13.05859 60.4375L 13.05859 75.777405C 13.05859 77.434296 14.40175 78.777405 16.05859 78.777405L 31.39843 78.777405C 33.055302 78.777405 34.39843 77.434296 34.39843 75.777405L 34.39843 60.4375ZM 10 10M 23.73436 34.5625L 23.73439 57.4492M 10 10M 67.375 34.5625L 67.375 78.789101M 10 10M 56.6992 34.5625L 34.103561 57.158203M 10 10M 55.808498 67.210899L 67.375 78.777405L 78.941498 67.210899"></path></g></g></g><g id="g-root-tx_processm_qn5o10hakutn-fill" data-item-order="0" transform="translate(386, 340)"><g id="tx_processm_qn5o10hakutn-fill-merged" stroke="none" fill="#ffffff" fill-opacity="1"><g><text style="font: 15px Roboto, sans-serif; white-space: pre;" transform="translate(10, 19)" font-size="15px" font-family="Roboto, sans-serif"><tspan x="2" y="9" dominant-baseline="ideographic">Process Meeting</tspan></text></g></g></g><g id="g-root-tx_processm_qn5o10hakutn-stroke" data-item-order="0" transform="translate(386, 340)"></g><g id="g-root-tx_stage1in_1d2dcrohai1hi-fill" data-item-order="0" transform="translate(114.69790649414062, 244)"><g id="tx_stage1in_1d2dcrohai1hi-fill-merged" stroke="none" fill="#44e095" fill-opacity="1"><g><text style="font: 20px Roboto, sans-serif; white-space: pre;" transform="translate(77.30209350585938, 34)" font-size="20px" font-family="Roboto, sans-serif"><tspan x="-65.3" y="-0" dominant-baseline="ideographic">Stage 1: Initial </tspan><tspan x="-41.75" y="24" dominant-baseline="ideographic">Insertion</tspan></text></g></g></g><g id="g-root-tx_stage1in_1d2dcrohai1hi-stroke" data-item-order="0" transform="translate(114.69790649414062, 244)"></g><g id="g-root-tx_processm_qvwb8khai0pb-fill" data-item-order="0" transform="translate(98.00000762939453, 340)"><g id="tx_processm_qvwb8khai0pb-fill-merged" stroke="none" fill="#ffffff" fill-opacity="1"><g><text style="font: 15px Roboto, sans-serif; white-space: pre;" transform="translate(9.999992370605469, 19)" font-size="15px" font-family="Roboto, sans-serif"><tspan x="2" y="9" dominant-baseline="ideographic">Process Meeting</tspan></text></g></g></g><g id="g-root-tx_processm_qvwb8khai0pb-stroke" data-item-order="0" transform="translate(98.00000762939453, 340)"></g><g id="g-root-ic_fest_18fomp0hakumm-fill" data-item-order="0" transform="translate(722, 160.0001220703125)"></g><g id="g-root-ic_fest_18fomp0hakumm-stroke" data-item-order="0" transform="translate(722, 160.0001220703125)"><g id="ic_fest_18fomp0hakumm-stroke" fill="none" stroke-linecap="round" stroke-linejoin="round" stroke-miterlimit="4" stroke="#44e095" stroke-width="2" stroke-opacity="1"><g><path d="M 78.6334 30.42511L 46 12.625L 13.36648 30.42511M 28.94158 55.048302C 28.94158 56.828499 27.7549 58.014999 25.97488 58.014999L 15.59149 58.014999C 13.8115 58.014999 12.624817 56.828499 12.624817 55.048302L 12.624817 41.698299C 12.624817 39.918308 13.8115 38.731632 15.59149 38.731632L 25.97488 38.731632C 27.7549 38.731632 28.94158 39.918308 28.94158 41.698299L 28.94158 55.048302ZM 12.624817 79.375L 12.624817 69.881798C 12.624817 68.101601 13.8115 66.9151 15.59149 66.9151L 25.97488 66.9151C 27.7549 66.9151 28.94158 68.101601 28.94158 69.881798L 28.94158 79.375M 20.783199 49.114899C 20.455509 49.114899 20.189831 48.8494 20.189831 48.521801C 20.189831 48.194199 20.455509 47.928402 20.783199 47.928402M 20.783081 49.114899C 21.110769 49.114899 21.37645 48.8494 21.37645 48.521801C 21.37645 48.194199 21.110769 47.928402 20.783081 47.928402M 20.783199 77.001701C 20.455509 77.001701 20.189831 76.736198 20.189831 76.4086C 20.189831 76.081001 20.455509 75.815201 20.783199 75.815201M 20.78302 77.001701C 21.11071 77.001701 21.37639 76.736198 21.37639 76.4086C 21.37639 76.081001 21.11071 75.815201 20.78302 75.815201M 20.783199 26.56831L 20.783199 38.731632M 20.783199 58.014999L 20.783199 66.9151M 54.158501 41.698299C 54.158501 43.4785 52.971703 44.665001 51.191803 44.665001L 40.808197 44.665001C 39.028297 44.665001 37.841621 43.4785 37.841621 41.698299L 37.841621 28.34827C 37.841621 26.568249 39.028297 25.381599 40.808197 25.381599L 51.191803 25.381599C 52.971703 25.381599 54.158501 26.568249 54.158501 28.34827L 54.158501 41.698299ZM 54.158501 70.178497C 54.158501 71.958397 52.971703 73.145203 51.191803 73.145203L 40.808197 73.145203C 39.028297 73.145203 37.841621 71.958397 37.841621 70.178497L 37.841621 56.828201C 37.841621 55.048302 39.028297 53.8615 40.808197 53.8615L 51.191803 53.8615C 52.971703 53.8615 54.158501 55.048302 54.158501 56.828201L 54.158501 70.178497ZM 45.851799 64.245102C 45.5242 64.245102 45.2584 63.979599 45.2584 63.651699C 45.2584 63.3241 45.5242 63.0583 45.851799 63.0583M 45.851799 64.245102C 46.179401 64.245102 46.445202 63.979599 46.445202 63.651699C 46.445202 63.3241 46.179401 63.0583 45.851799 63.0583M 45.851799 35.468353C 45.5242 35.468353 45.2584 35.20285 45.2584 34.87516C 45.2584 34.54747 45.5242 34.281609 45.851799 34.281609M 45.851799 35.468353C 46.179401 35.468353 46.445202 35.20285 46.445202 34.87516C 46.445202 34.54747 46.179401 34.281609 45.851799 34.281609M 46 12.921631L 46 25.38154M 46 44.665001L 46 53.8615M 71.217102 49.114899C 70.889198 49.114899 70.623695 48.8494 70.623695 48.521801C 70.623695 48.194199 70.889198 47.928402 71.217102 47.928402M 71.216797 49.114899C 71.544395 49.114899 71.810196 48.8494 71.810196 48.521801C 71.810196 48.194199 71.544395 47.928402 71.216797 47.928402M 71.217102 77.001701C 70.889198 77.001701 70.623695 76.736198 70.623695 76.4086C 70.623695 76.081001 70.889198 75.815201 71.217102 75.815201M 71.216797 77.001701C 71.544395 77.001701 71.810196 76.736198 71.810196 76.4086C 71.810196 76.081001 71.544395 75.815201 71.216797 75.815201M 79.375298 55.048302C 79.375298 56.828499 78.188499 58.014999 76.4086 58.014999L 66.024994 58.014999C 64.245102 58.014999 63.0583 56.828499 63.0583 55.048302L 63.0583 41.698299C 63.0583 39.918308 64.245102 38.731632 66.024994 38.731632L 76.4086 38.731632C 78.188499 38.731632 79.375298 39.918308 79.375298 41.698299L 79.375298 55.048302ZM 63.0583 79.375L 63.0583 69.881798C 63.0583 68.101601 64.245102 66.9151 66.024994 66.9151L 76.4086 66.9151C 78.188499 66.9151 79.375298 68.101601 79.375298 69.881798L 79.375298 79.375M 71.216797 26.56831L 71.216797 38.731632M 71.216797 58.014999L 71.216797 66.9151"></path></g></g></g><g id="g-root-tx_meetingr_dhbffohagohw-fill" data-item-order="0" transform="translate(369.2604064941406, 38.0001220703125)"><g id="tx_meetingr_dhbffohagohw-fill-merged" stroke="none" fill="#ffffff" fill-opacity="1"><g><text style="font: bold 25px Roboto, sans-serif; white-space: pre;" transform="translate(254.73959350585938, 25)" font-weight="bold" font-size="25px" font-family="Roboto, sans-serif"><tspan x="-242.74" y="15" dominant-baseline="ideographic">Meeting Rooms II – Min Heap Visualization</tspan></text></g></g></g><g id="g-root-tx_meetingr_dhbffohagohw-stroke" data-item-order="0" transform="translate(369.2604064941406, 38.0001220703125)"></g><g id="g-root-tx_minimumr_18nsstgham8li-fill" data-item-order="0" transform="translate(961.9999389648438, 376)"><g id="tx_minimumr_18nsstgham8li-fill-merged" stroke="none" fill="#ffffff" fill-opacity="1"><g><text style="font: 15px Roboto, sans-serif; white-space: pre;" transform="translate(10.00006103515625, 28)" font-size="15px" font-family="Roboto, sans-serif"><tspan x="2" y="0" dominant-baseline="ideographic">Minimum Rooms </tspan><tspan x="2" y="18" dominant-baseline="ideographic">Required = 2</tspan></text></g></g></g><g id="g-root-tx_minimumr_18nsstgham8li-stroke" data-item-order="0" transform="translate(961.9999389648438, 376)"></g><g id="g-root-tx_inserten_94maqshai32g-fill" data-item-order="0" transform="translate(98.00000762939453, 400)"><g id="tx_inserten_94maqshai32g-fill-merged" stroke="none" fill="#ffffff" fill-opacity="1"><g><text style="font: 15px Roboto, sans-serif; white-space: pre;" transform="translate(9.999992370605469, 28)" font-size="15px" font-family="Roboto, sans-serif"><tspan x="2" y="0" dominant-baseline="ideographic">Insert end time 30, </tspan><tspan x="2" y="18" dominant-baseline="ideographic">Rooms = 1</tspan></text></g></g></g><g id="g-root-tx_inserten_94maqshai32g-stroke" data-item-order="0" transform="translate(98.00000762939453, 400)"></g><g id="g-root-tx_compare5_8wi4mchaku10-fill" data-item-order="0" transform="translate(386, 400)"><g id="tx_compare5_8wi4mchaku10-fill-merged" stroke="none" fill="#ffffff" fill-opacity="1"><g><text style="font: 15px Roboto, sans-serif; white-space: pre;" transform="translate(10, 28)" font-size="15px" font-family="Roboto, sans-serif"><tspan x="2" y="0" dominant-baseline="ideographic">Compare 5 &lt; 30, Cannot </tspan><tspan x="2" y="18" dominant-baseline="ideographic">reuse room</tspan></text></g></g></g><g id="g-root-tx_compare5_8wi4mchaku10-stroke" data-item-order="0" transform="translate(386, 400)"></g><g id="g-root-tx_maximumh_1qegc84ham9e5-fill" data-item-order="0" transform="translate(961.9999389648438, 316)"><g id="tx_maximumh_1qegc84ham9e5-fill-merged" stroke="none" fill="#ffffff" fill-opacity="1"><g><text style="font: 15px Roboto, sans-serif; white-space: pre;" transform="translate(10, 19)" font-size="15px" font-family="Roboto, sans-serif"><tspan x="2" y="9" dominant-baseline="ideographic">Maximum Heap Size = 2</tspan></text></g></g></g><g id="g-root-tx_maximumh_1qegc84ham9e5-stroke" data-item-order="0" transform="translate(961.9999389648438, 316)"></g><g id="g-root-ic_fram_1qf2tb8hai22p-fill" data-item-order="0" transform="translate(434, 160.0001220703125)"></g><g id="g-root-ic_fram_1qf2tb8hai22p-stroke" data-item-order="0" transform="translate(434, 160.0001220703125)"><g id="ic_fram_1qf2tb8hai22p-stroke" fill="none" stroke-linecap="round" stroke-linejoin="round" stroke-miterlimit="4" stroke="#44e095" stroke-width="2" stroke-opacity="1"><g><path d="M 20.5 53.5C 24.64213 53.5 28 50.142101 28 46C 28 41.857899 24.64213 38.5 20.5 38.5C 16.35787 38.5 13 41.857899 13 46C 13 50.142101 16.35787 53.5 20.5 53.5ZM 47.5 35.5C 51.642101 35.5 55 32.142132 55 28C 55 23.85787 51.642101 20.5 47.5 20.5C 43.357899 20.5 40 23.85787 40 28C 40 32.142132 43.357899 35.5 47.5 35.5ZM 47.5 71.5C 51.642101 71.5 55 68.142097 55 64C 55 59.857903 51.642101 56.5 47.5 56.5C 43.357899 56.5 40 59.857903 40 64C 40 68.142097 43.357899 71.5 47.5 71.5ZM 71.5 79C 73.985199 79 76 76.985199 76 74.5C 76 72.014801 73.985199 70 71.5 70C 69.014801 70 67 72.014801 67 74.5C 67 76.985199 69.014801 79 71.5 79ZM 74.5 61C 76.985199 61 79 58.985199 79 56.5C 79 54.014801 76.985199 52 74.5 52C 72.014801 52 70 54.014801 70 56.5C 70 58.985199 72.014801 61 74.5 61ZM 71.5 22C 73.985199 22 76 19.985291 76 17.5C 76 15.014709 73.985199 13 71.5 13C 69.014801 13 67 15.014709 67 17.5C 67 19.985291 69.014801 22 71.5 22ZM 74.5 40C 76.985199 40 79 37.985291 79 35.5C 79 33.014709 76.985199 31 74.5 31C 72.014801 31 70 33.014709 70 35.5C 70 37.985291 72.014801 40 74.5 40ZM 10 10M 26.5 41.500301L 41.751999 32.827389M 54.373299 25.01173L 67.426605 19.375M 10 10M 54.7015 30.01783L 70.182999 34.267662M 10 10M 26.35351 50.7169L 41.582199 59.376396M 10 10M 54.400002 67L 67.416397 72.620499M 10 10M 54.795399 62.259705L 70.184502 57.733299"></path></g></g></g><g id="g-root-tx_stage2se_147zap0hajhu2-fill" data-item-order="0" transform="translate(393.6041564941406, 244)"><g id="tx_stage2se_147zap0hajhu2-fill-merged" stroke="none" fill="#44e095" fill-opacity="1"><g><text style="font: 20px Roboto, sans-serif; white-space: pre;" transform="translate(86.39584350585938, 34)" font-size="20px" font-family="Roboto, sans-serif"><tspan x="-74.4" y="-0" dominant-baseline="ideographic">Stage 2: Second </tspan><tspan x="-41.75" y="24" dominant-baseline="ideographic">Insertion</tspan></text></g></g></g><g id="g-root-tx_stage2se_147zap0hajhu2-stroke" data-item-order="0" transform="translate(393.6041564941406, 244)"></g><g id="g-root-ic_icom_1qbyfvohagnil-fill" data-item-order="0" transform="translate(146, 160.0001220703125)"></g><g id="g-root-ic_icom_1qbyfvohagnil-stroke" data-item-order="0" transform="translate(146, 160.0001220703125)"><g id="ic_icom_1qbyfvohagnil-stroke" fill="none" stroke-linecap="round" stroke-linejoin="round" stroke-miterlimit="4" stroke="#44e095" stroke-width="2" stroke-opacity="1"><g><path d="M 11.5 46C 11.500001 65.053825 26.946177 80.5 46 80.5C 65.053825 80.5 80.5 65.053825 80.5 46C 80.5 26.946177 65.053825 11.500001 46 11.500001C 26.946177 11.500001 11.500001 26.946177 11.500001 46M 29.5 46C 29.5 49.313709 32.186291 52 35.5 52C 38.813709 52 41.5 49.313709 41.5 46C 41.5 42.686291 38.813709 40 35.5 40C 32.186291 40 29.5 42.686291 29.5 46M 20.5 46C 20.5 61.276199 27.215729 73.660004 35.5 73.660004C 43.784271 73.660004 50.5 61.276199 50.5 46C 50.5 30.723804 43.784271 18.34 35.5 18.34C 27.215729 18.34 20.5 30.723804 20.5 46"></path></g></g></g><g id="g-root-tx_insert10_1um5o84hakvet-fill" data-item-order="0" transform="translate(386, 472)"><g id="tx_insert10_1um5o84hakvet-fill-merged" stroke="none" fill="#ffffff" fill-opacity="1"><g><text style="font: 15px Roboto, sans-serif; white-space: pre;" transform="translate(10, 19)" font-size="15px" font-family="Roboto, sans-serif"><tspan x="2" y="9" dominant-baseline="ideographic">Insert 10, Rooms = 2</tspan></text></g></g></g><g id="g-root-tx_insert10_1um5o84hakvet-stroke" data-item-order="0" transform="translate(386, 472)"></g><g id="g-root-tx_stage4fi_4ossmcham80c-fill" data-item-order="0" transform="translate(961.9999389648438, 244.0001220703125)"><g id="tx_stage4fi_4ossmcham80c-fill-merged" stroke="none" fill="#44e095" fill-opacity="1"><g><text style="font: 20px Roboto, sans-serif; white-space: pre;" transform="translate(97.89581298828125, 22)" font-size="20px" font-family="Roboto, sans-serif"><tspan x="-85.9" y="12" dominant-baseline="ideographic">Stage 4: Final Heap</tspan></text></g></g></g><g id="g-root-tx_stage4fi_4ossmcham80c-stroke" data-item-order="0" transform="translate(961.9999389648438, 244.0001220703125)"></g><g id="g-root-tx_reuseexi_qoem78hamadm-fill" data-item-order="0" transform="translate(674, 472)"><g id="tx_reuseexi_qoem78hamadm-fill-merged" stroke="none" fill="#ffffff" fill-opacity="1"><g><text style="font: 15px Roboto, sans-serif; white-space: pre;" transform="translate(10, 28)" font-size="15px" font-family="Roboto, sans-serif"><tspan x="2" y="0" dominant-baseline="ideographic">Reuse existing room, </tspan><tspan x="2" y="18" dominant-baseline="ideographic">Rooms = 2</tspan></text></g></g></g><g id="g-root-tx_reuseexi_qoem78hamadm-stroke" data-item-order="0" transform="translate(674, 472)"></g><g id="g-root-tx_stage3ro_8vvnj8hamakn-fill" data-item-order="0" transform="translate(688.6041870117188, 244)"><g id="tx_stage3ro_8vvnj8hamakn-fill-merged" stroke="none" fill="#44e095" fill-opacity="1"><g><text style="font: 20px Roboto, sans-serif; white-space: pre;" transform="translate(79.39581298828125, 34)" font-size="20px" font-family="Roboto, sans-serif"><tspan x="-67.4" y="-0" dominant-baseline="ideographic">Stage 3: Room </tspan><tspan x="-29.93" y="24" dominant-baseline="ideographic">Reuse</tspan></text></g></g></g><g id="g-root-tx_stage3ro_8vvnj8hamakn-stroke" data-item-order="0" transform="translate(688.6041870117188, 244)"></g><g id="g-root-tx_compare1_1cvi4tgham801-fill" data-item-order="0" transform="translate(674, 400)"><g id="tx_compare1_1cvi4tgham801-fill-merged" stroke="none" fill="#ffffff" fill-opacity="1"><g><text style="font: 15px Roboto, sans-serif; white-space: pre;" transform="translate(10, 28)" font-size="15px" font-family="Roboto, sans-serif"><tspan x="2" y="0" dominant-baseline="ideographic">Compare 15 ≥ 10, </tspan><tspan x="2" y="18" dominant-baseline="ideographic">Remove 10, Insert 20</tspan></text></g></g></g><g id="g-root-tx_compare1_1cvi4tgham801-stroke" data-item-order="0" transform="translate(674, 400)"></g></g></g><path id="wzs5m9gdyr5l8" d="M65.283 12.757a.35.35 0 0 0 .584.157l5.203-5.141-6.183 3.523.396 1.461zm-2.216-11.7a.35.35 0 0 0-.522.305v3.111l3.276-1.868-2.754-1.548zm3.728 2.105l-4.25 2.421v2.445l6.391-3.644-2.141-1.222zm4.708 3.303a.35.35 0 0 0 0-.609l-1.592-.9-7.365 4.199v1.782a.35.35 0 0 0 .523.305l8.435-4.777z M44.542 2.513c0-.433.355-.783.792-.783s.792.35.792.783-.355.783-.792.783-.792-.35-.792-.783zm59.171 0c0-.433.355-.783.792-.783s.792.35.792.783-.355.783-.792.783-.792-.35-.792-.783zm-85.951 7.636h-1.27v-.487c-.276.201-.864.609-1.881.609-1.202 0-2.274-.794-2.137-2.078.118-1.106 1.153-1.584 1.848-1.727l2.17-.345c0-.539-.29-.956-1.064-1.006s-1.21.305-1.571 1.017l-1.124-.605c1.218-2.631 5.029-1.764 5.029.414v4.207zm-1.27-2.86c.006.396-.062 1.112-.819 1.59-.587.37-1.841.299-1.903-.395-.049-.555.461-.791.906-.898l1.816-.297zm72.662 2.86h-1.27v-.487c-.276.201-.864.609-1.881.609-1.202 0-2.274-.794-2.137-2.078.118-1.106 1.153-1.584 1.848-1.727l2.17-.345c0-.539-.29-.956-1.064-1.006s-1.21.305-1.571 1.017l-1.124-.605c1.218-2.631 5.029-1.764 5.029.414v4.207zm-1.27-2.86c.006.396-.062 1.112-.82 1.59-.587.37-1.841.299-1.903-.395-.049-.555.461-.791.906-.898l1.816-.297zM99.096 10.149H97.85v-8.45h1.246v4.895l2.68-2.559h1.738l-2.633 2.535 2.715 3.578h-1.556l-2.077-2.707-.867.844v1.863zm6.053-6.114h-1.255v6.113h1.255V4.035zm-59.2 0h-1.255v6.113h1.255V4.035zm5.584 6.113V1.697h1.255v2.695c.361-.346 1-.485 1.47-.485 1.452 0 2.477 1.082 2.457 2.448v3.792h-1.27v-3.68c0-.408-.214-1.339-1.315-1.339-.968 0-1.342.756-1.342 1.339v3.681h-1.255zm-4.76-4.894V4.039h.621a.45.45 0 0 0 .45-.45v-.855h1.251v1.305h1.309v1.215h-1.309v3.109c0 .293.105.664.648.664.365 0 .531-.035.736-.07v1.137s-.361.113-.857.113c-1.398 0-1.777-1.051-1.777-1.788V5.254h-1.071zM36.528 4.039h-1.394l2.191 6.106h1.125l1.234-3.918 1.238 3.918h1.129l2.188-6.106h-1.383l-1.359 3.93-1.256-3.93h-1.124l-1.242 3.957-1.348-3.957zM26.212 7.141c-.02 1.566 1.187 3.129 3.223 3.129 1.566 0 2.383-.918 2.734-1.719L31.172 8c-.315.399-.801 1.094-1.738 1.094-1.145 0-1.825-.781-1.891-1.52h4.625c.074-.284.148-.995-.03-1.559-.336-1.064-1.221-2.102-2.839-2.102s-3.088 1.152-3.088 3.227zm1.363-.75h3.348c-.055-.43-.566-1.301-1.623-1.301a1.79 1.79 0 0 0-1.725 1.301zm-8.758.75c.038 1.758 1.277 3.133 3.145 3.133 1.074 0 1.723-.477 1.961-.672v.547h1.242V1.703h-1.258v2.888c-.414-.36-1.062-.68-1.93-.68-1.91 0-3.198 1.473-3.16 3.23zm1.309-.08c0 1.119.723 1.978 1.836 1.978a1.88 1.88 0 0 0 1.94-1.904c0-1.371-1.011-1.99-1.972-1.99s-1.805.798-1.805 1.916zm76.683-.028C96.771 5.275 95.532 3.9 93.664 3.9c-1.074 0-1.723.477-1.961.672v-.547h-1.242v8.22h1.258V9.583c.414.36 1.063.68 1.93.68 1.91 0 3.198-1.473 3.16-3.23zm-1.309.08c0-1.119-.723-1.978-1.836-1.978a1.88 1.88 0 0 0-1.94 1.904c0 1.371 1.011 1.99 1.972 1.99S95.5 8.231 95.5 7.113zM106.441 10.173V4.036h1.254v.382c.361-.346 1-.485 1.47-.485 1.452 0 2.477 1.082 2.457 2.448v3.792h-1.27V6.492c0-.408-.214-1.339-1.315-1.339-.969 0-1.342.756-1.342 1.339v3.681h-1.254zm-30.383-.021V1.824h1.084l4.215 5.777V1.824h1.32v8.328h-1.094l-4.207-5.796v5.796h-1.319zM5.24 10.149H4V2.377h1.014l2.664 3.597 2.654-3.592h1.03v7.766h-1.256V4.762L7.678 8.068 5.24 4.742v5.407z" transform="translate(1112, 616)" fill="#80808088" stroke="none"></path></svg>