<?xml version="1.0" encoding="utf-8" standalone="yes"?>
<!DOCTYPE svg PUBLIC "-//W3C//DTD SVG 1.1//EN" "http://www.w3.org/Graphics/SVG/1.1/DTD/svg11.dtd">
<svg style="fill:none;stroke:none;fill-rule:evenodd;clip-rule:evenodd;stroke-linecap:round;stroke-linejoin:round;stroke-miterlimit:1.5;" version="1.1" xmlns="http://www.w3.org/2000/svg" xmlns:xlink="http://www.w3.org/1999/xlink" width="937" height="423" viewBox="0 0 937 423"><style class="text-font-style fontImports" data-font-family="Roboto">@import url(https://fonts.googleapis.com/css2?family=Roboto:wght@400;700&amp;amp;display=block);</style><g id="items" style="isolation: isolate"><g id="blend" style="mix-blend-mode: normal"><g id="g-root-cp_1_g-1_8yzumsdf0d8g-fill" data-item-order="-290689" transform="translate(26, 92.99993896484375)"><g id="cp_1_g-1_8yzumsdf0d8g-fill-merged" stroke="none" fill="#4f92ff" fill-opacity="0.2"><g><path d="M10 10 V106 H226 V10 H10"></path></g></g></g><g id="g-root-cp_1_g-1_8yzumsdf0d8g-stroke" data-item-order="-290689" transform="translate(26, 92.99993896484375)"><g id="cp_1_g-1_8yzumsdf0d8g-stroke" fill="none" stroke-linecap="round" stroke-linejoin="round" stroke-miterlimit="4" stroke="#4f92ff" stroke-width="2" stroke-opacity="1"><g><path d="M 10 10L 10 106L 178 106L 226 106L 226 10L 10 10Z"></path></g></g></g><g id="g-root-cp_2_g-2_3cudwdf0e15-fill" data-item-order="-290685" transform="translate(194, 92.99993896484375)"><g id="cp_2_g-2_3cudwdf0e15-fill-merged" stroke="none" fill="#4f92ff" fill-opacity="0.2"><g><path d="M10 34 V130 H226 V34 H10"></path></g></g><g id="cp_2_g-2_3cudwdf0e15-fill-merged" stroke="none" fill="#4f92ff" fill-opacity="0.2"><g><path d="M58 34 V10L10 34 H58"></path></g></g></g><g id="g-root-cp_2_g-2_3cudwdf0e15-stroke" data-item-order="-290685" transform="translate(194, 92.99993896484375)"><g id="cp_2_g-2_3cudwdf0e15-stroke" fill="none" stroke-linecap="round" stroke-linejoin="round" stroke-miterlimit="4" stroke="#4f92ff" stroke-width="2" stroke-opacity="1"><g><path d="M 10 34L 10 130L 178 130L 226 130L 226 34L 10 34Z"></path></g></g><g id="cp_2_g-2_3cudwdf0e15-stroke" fill="none" stroke-linecap="round" stroke-linejoin="round" stroke-miterlimit="4" stroke="#4f92ff" stroke-width="2" stroke-opacity="1"><g><path d="M 58 34L 58 10L 10 34L 58 34Z"></path></g></g></g><g id="g-root-cp_3_g-3_1uone8kdf0ema-fill" data-item-order="-290679" transform="translate(362, 116.99993896484375)"><g id="cp_3_g-3_1uone8kdf0ema-fill-merged" stroke="none" fill="#f99539" fill-opacity="0.2"><g><path d="M10 34 V130 H226 V34 H10"></path></g></g><g id="cp_3_g-3_1uone8kdf0ema-fill-merged" stroke="none" fill="#f99539" fill-opacity="0.2"><g><path d="M58 34 V10L10 34 H58"></path></g></g></g><g id="g-root-cp_3_g-3_1uone8kdf0ema-stroke" data-item-order="-290679" transform="translate(362, 116.99993896484375)"><g id="cp_3_g-3_1uone8kdf0ema-stroke" fill="none" stroke-linecap="round" stroke-linejoin="round" stroke-miterlimit="4" stroke="#f99539" stroke-width="2" stroke-opacity="1"><g><path d="M 10 34L 10 130L 178 130L 226 130L 226 34L 10 34Z"></path></g></g><g id="cp_3_g-3_1uone8kdf0ema-stroke" fill="none" stroke-linecap="round" stroke-linejoin="round" stroke-miterlimit="4" stroke="#f99539" stroke-width="2" stroke-opacity="1"><g><path d="M 57.9999 34L 57.9999 10L 10 34L 57.9999 34Z"></path></g></g></g><g id="g-root-cp_4_g-4_1ltmv2sdf0c97-fill" data-item-order="-290673" transform="translate(530, 140.99993896484375)"><g id="cp_4_g-4_1ltmv2sdf0c97-fill-merged" stroke="none" fill="#44e095" fill-opacity="0.2"><g><path d="M10 130 V34 H226 V130 H10"></path></g></g><g id="cp_4_g-4_1ltmv2sdf0c97-fill-merged" stroke="none" fill="#44e095" fill-opacity="0.2"><g><path d="M58 34 V10L10 34 H58"></path></g></g></g><g id="g-root-cp_4_g-4_1ltmv2sdf0c97-stroke" data-item-order="-290673" transform="translate(530, 140.99993896484375)"><g id="cp_4_g-4_1ltmv2sdf0c97-stroke" fill="none" stroke-linecap="round" stroke-linejoin="round" stroke-miterlimit="4" stroke="#44e095" stroke-width="2" stroke-opacity="1"><g><path d="M 10 130L 10 34L 226 34L 226 130L 178 130L 10 130Z"></path></g></g><g id="cp_4_g-4_1ltmv2sdf0c97-stroke" fill="none" stroke-linecap="round" stroke-linejoin="round" stroke-miterlimit="4" stroke="#44e095" stroke-width="2" stroke-opacity="1"><g><path d="M 57.9999 34L 57.9999 10L 10 34L 57.9999 34Z"></path></g></g></g><g id="g-root-cp_5_g-5_1hdtcycdf0d1g-fill" data-item-order="-290667" transform="translate(698, 164.99993896484375)"><g id="cp_5_g-5_1hdtcycdf0d1g-fill-merged" stroke="none" fill="#cd6afb" fill-opacity="0.2"><g><path d="M10 34 V130 H166 V143L214 82L166 22 V34 H10"></path></g></g><g id="cp_5_g-5_1hdtcycdf0d1g-fill-merged" stroke="none" fill="#cd6afb" fill-opacity="0.2"><g><path d="M58 34 V10L10 34 H58"></path></g></g></g><g id="g-root-cp_5_g-5_1hdtcycdf0d1g-stroke" data-item-order="-290667" transform="translate(698, 164.99993896484375)"><g id="cp_5_g-5_1hdtcycdf0d1g-stroke" fill="none" stroke-linecap="round" stroke-linejoin="round" stroke-miterlimit="4" stroke="#cd6afb" stroke-width="2" stroke-opacity="1"><g><path d="M 10 34L 10 130L 166 130L 166 143L 214 82L 166 22L 166 34L 10 34Z"></path></g></g><g id="cp_5_g-5_1hdtcycdf0d1g-stroke" fill="none" stroke-linecap="round" stroke-linejoin="round" stroke-miterlimit="4" stroke="#cd6afb" stroke-width="2" stroke-opacity="1"><g><path d="M 58.0001 34L 58.0001 10L 10 34L 58.0001 34Z"></path></g></g></g><g id="g-root-tx_meetingr_18i6cpgdf0du5-fill" data-item-order="0" transform="translate(299.15625, 37.99993896484375)"><g id="tx_meetingr_18i6cpgdf0du5-fill-merged" stroke="none" fill="#ffffff" fill-opacity="1"><g><text style="font: bold 25px Roboto, sans-serif; white-space: pre;" transform="translate(169.34375, 25)" font-weight="bold" font-size="25px" font-family="Roboto, sans-serif"><tspan x="-157.34" y="15" dominant-baseline="ideographic">Meeting Rooms II – Dry Run</tspan></text></g></g></g><g id="g-root-tx_meetingr_18i6cpgdf0du5-stroke" data-item-order="0" transform="translate(299.15625, 37.99993896484375)"></g><g id="g-root-tx_sortinte_hvvt1wdf0du6-fill" data-item-order="0" transform="translate(47.510406494140625, 128.99993896484375)"><g id="tx_sortinte_hvvt1wdf0du6-fill-merged" stroke="none" fill="#4f92ff" fill-opacity="1"><g><text style="font: 20px Roboto, sans-serif; white-space: pre;" transform="translate(72.48959350585938, 22)" font-size="20px" font-family="Roboto, sans-serif"><tspan x="-58.83" y="12" dominant-baseline="ideographic">Sort intervals</tspan></text></g></g></g><g id="g-root-tx_sortinte_hvvt1wdf0du6-stroke" data-item-order="0" transform="translate(47.510406494140625, 128.99993896484375)"></g><g id="g-root-tx_process0_18k1rysdf0cug-fill" data-item-order="0" transform="translate(213.22393798828125, 152.99993896484375)"><g id="tx_process0_18k1rysdf0cug-fill-merged" stroke="none" fill="#4f92ff" fill-opacity="1"><g><text style="font: 20px Roboto, sans-serif; white-space: pre;" transform="translate(74.77606201171875, 22)" font-size="20px" font-family="Roboto, sans-serif"><tspan x="-62.78" y="12" dominant-baseline="ideographic">Process [0,30]</tspan></text></g></g></g><g id="g-root-tx_process0_18k1rysdf0cug-stroke" data-item-order="0" transform="translate(213.22393798828125, 152.99993896484375)"></g><g id="g-root-tx_process5_4mapxwdf0efe-fill" data-item-order="0" transform="translate(381.22393798828125, 176.99993896484375)"><g id="tx_process5_4mapxwdf0efe-fill-merged" stroke="none" fill="#f99539" fill-opacity="1"><g><text style="font: 20px Roboto, sans-serif; white-space: pre;" transform="translate(74.77606201171875, 22)" font-size="20px" font-family="Roboto, sans-serif"><tspan x="-62.78" y="12" dominant-baseline="ideographic">Process [5,10]</tspan></text></g></g></g><g id="g-root-tx_process5_4mapxwdf0efe-stroke" data-item-order="0" transform="translate(381.22393798828125, 176.99993896484375)"></g><g id="g-root-tx_process1_zqa6z8df0cng-fill" data-item-order="0" transform="translate(543.6041870117188, 200.99993896484375)"><g id="tx_process1_zqa6z8df0cng-fill-merged" stroke="none" fill="#44e095" fill-opacity="1"><g><text style="font: 20px Roboto, sans-serif; white-space: pre;" transform="translate(80.39581298828125, 22)" font-size="20px" font-family="Roboto, sans-serif"><tspan x="-68.4" y="12" dominant-baseline="ideographic">Process [15,20]</tspan></text></g></g></g><g id="g-root-tx_process1_zqa6z8df0cng-stroke" data-item-order="0" transform="translate(543.6041870117188, 200.99993896484375)"></g><g id="g-root-tx_interval_589n8df0d1j-fill" data-item-order="0" transform="translate(44.588531494140625, 212.99993896484375)"><g id="tx_interval_589n8df0d1j-fill-merged" stroke="none" fill="#ffffff" fill-opacity="1"><g><text style="font: 15px Roboto, sans-serif; white-space: pre;" transform="translate(75.41146850585938, 39.99755859375)" font-size="15px" font-family="Roboto, sans-serif"><tspan x="-63.41" y="-11.33" dominant-baseline="ideographic">Intervals sorted by </tspan><tspan x="-55.91" y="8.67" dominant-baseline="ideographic">start time: [0,30] </tspan><tspan x="-44.14" y="28.67" dominant-baseline="ideographic">[5,10] [15,20]</tspan></text></g></g></g><g id="g-root-tx_interval_589n8df0d1j-stroke" data-item-order="0" transform="translate(44.588531494140625, 212.99993896484375)"></g><g id="g-root-tx_finalans_1utn6xgdf0e1a-fill" data-item-order="0" transform="translate(722.75, 224.99993896484375)"><g id="tx_finalans_1utn6xgdf0e1a-fill-merged" stroke="none" fill="#cd6afb" fill-opacity="1"><g><text style="font: 20px Roboto, sans-serif; white-space: pre;" transform="translate(69.25, 22)" font-size="20px" font-family="Roboto, sans-serif"><tspan x="-57.25" y="12" dominant-baseline="ideographic">Final Answer</tspan></text></g></g></g><g id="g-root-tx_finalans_1utn6xgdf0e1a-stroke" data-item-order="0" transform="translate(722.75, 224.99993896484375)"></g><g id="g-root-tx_minheap3_qte8k4df0c1t-fill" data-item-order="0" transform="translate(220.04165649414062, 236.99993896484375)"><g id="tx_minheap3_qte8k4df0c1t-fill-merged" stroke="none" fill="#ffffff" fill-opacity="1"><g><text style="font: 15px Roboto, sans-serif; white-space: pre;" transform="translate(67.95834350585938, 29.99755859375)" font-size="15px" font-family="Roboto, sans-serif"><tspan x="-55.2" y="-1.33" dominant-baseline="ideographic">Min Heap = [30], </tspan><tspan x="-55.96" y="18.67" dominant-baseline="ideographic">Rooms Used = 1</tspan></text></g></g></g><g id="g-root-tx_minheap3_qte8k4df0c1t-stroke" data-item-order="0" transform="translate(220.04165649414062, 236.99993896484375)"></g><g id="g-root-tx_530canno_1d1489gdf0e8b-fill" data-item-order="0" transform="translate(374.95831298828125, 260.99993896484375)"><g id="tx_530canno_1d1489gdf0e8b-fill-merged" stroke="none" fill="#ffffff" fill-opacity="1"><g><text style="font: 15px Roboto, sans-serif; white-space: pre;" transform="translate(81.04168701171875, 49.99755859375)" font-size="15px" font-family="Roboto, sans-serif"><tspan x="-67.79" y="-21.33" dominant-baseline="ideographic">5 &lt; 30, cannot reuse </tspan><tspan x="-59.86" y="-1.33" dominant-baseline="ideographic">room, Min Heap = </tspan><tspan x="-69.04" y="18.67" dominant-baseline="ideographic">[10,30], Rooms Used </tspan><tspan x="-11.16" y="38.67" dominant-baseline="ideographic">= 2</tspan></text></g></g></g><g id="g-root-tx_530canno_1d1489gdf0e8b-stroke" data-item-order="0" transform="translate(374.95831298828125, 260.99993896484375)"></g><g id="g-root-tx_1510reus_hz06hgdf0f0l-fill" data-item-order="0" transform="translate(542.9583129882812, 284.99993896484375)"><g id="tx_1510reus_hz06hgdf0f0l-fill-merged" stroke="none" fill="#ffffff" fill-opacity="1"><g><text style="font: 15px Roboto, sans-serif; white-space: pre;" transform="translate(81.04168701171875, 49.99755859375)" font-size="15px" font-family="Roboto, sans-serif"><tspan x="-51.35" y="-21.33" dominant-baseline="ideographic">15 &gt;= 10, reuse </tspan><tspan x="-59.86" y="-1.33" dominant-baseline="ideographic">room, Min Heap = </tspan><tspan x="-69.04" y="18.67" dominant-baseline="ideographic">[20,30], Rooms Used </tspan><tspan x="-11.16" y="38.67" dominant-baseline="ideographic">= 2</tspan></text></g></g></g><g id="g-root-tx_1510reus_hz06hgdf0f0l-stroke" data-item-order="0" transform="translate(542.9583129882812, 284.99993896484375)"></g><g id="g-root-tx_minimumr_1d2znisdf0d8n-fill" data-item-order="0" transform="translate(721.0208129882812, 308.99993896484375)"><g id="tx_minimumr_1d2znisdf0d8n-fill-merged" stroke="none" fill="#ffffff" fill-opacity="1"><g><text style="font: 15px Roboto, sans-serif; white-space: pre;" transform="translate(70.97918701171875, 29.99755859375)" font-size="15px" font-family="Roboto, sans-serif"><tspan x="-58.98" y="-1.33" dominant-baseline="ideographic">Minimum Rooms </tspan><tspan x="-43.42" y="18.67" dominant-baseline="ideographic">Required = 2</tspan></text></g></g></g><g id="g-root-tx_minimumr_1d2znisdf0d8n-stroke" data-item-order="0" transform="translate(721.0208129882812, 308.99993896484375)"></g></g></g><path id="wqqwlp0eiujgl" d="M65.283 12.757a.35.35 0 0 0 .584.157l5.203-5.141-6.183 3.523.396 1.461zm-2.216-11.7a.35.35 0 0 0-.522.305v3.111l3.276-1.868-2.754-1.548zm3.728 2.105l-4.25 2.421v2.445l6.391-3.644-2.141-1.222zm4.708 3.303a.35.35 0 0 0 0-.609l-1.592-.9-7.365 4.199v1.782a.35.35 0 0 0 .523.305l8.435-4.777z M44.542 2.513c0-.433.355-.783.792-.783s.792.35.792.783-.355.783-.792.783-.792-.35-.792-.783zm59.171 0c0-.433.355-.783.792-.783s.792.35.792.783-.355.783-.792.783-.792-.35-.792-.783zm-85.951 7.636h-1.27v-.487c-.276.201-.864.609-1.881.609-1.202 0-2.274-.794-2.137-2.078.118-1.106 1.153-1.584 1.848-1.727l2.17-.345c0-.539-.29-.956-1.064-1.006s-1.21.305-1.571 1.017l-1.124-.605c1.218-2.631 5.029-1.764 5.029.414v4.207zm-1.27-2.86c.006.396-.062 1.112-.819 1.59-.587.37-1.841.299-1.903-.395-.049-.555.461-.791.906-.898l1.816-.297zm72.662 2.86h-1.27v-.487c-.276.201-.864.609-1.881.609-1.202 0-2.274-.794-2.137-2.078.118-1.106 1.153-1.584 1.848-1.727l2.17-.345c0-.539-.29-.956-1.064-1.006s-1.21.305-1.571 1.017l-1.124-.605c1.218-2.631 5.029-1.764 5.029.414v4.207zm-1.27-2.86c.006.396-.062 1.112-.82 1.59-.587.37-1.841.299-1.903-.395-.049-.555.461-.791.906-.898l1.816-.297zM99.096 10.149H97.85v-8.45h1.246v4.895l2.68-2.559h1.738l-2.633 2.535 2.715 3.578h-1.556l-2.077-2.707-.867.844v1.863zm6.053-6.114h-1.255v6.113h1.255V4.035zm-59.2 0h-1.255v6.113h1.255V4.035zm5.584 6.113V1.697h1.255v2.695c.361-.346 1-.485 1.47-.485 1.452 0 2.477 1.082 2.457 2.448v3.792h-1.27v-3.68c0-.408-.214-1.339-1.315-1.339-.968 0-1.342.756-1.342 1.339v3.681h-1.255zm-4.76-4.894V4.039h.621a.45.45 0 0 0 .45-.45v-.855h1.251v1.305h1.309v1.215h-1.309v3.109c0 .293.105.664.648.664.365 0 .531-.035.736-.07v1.137s-.361.113-.857.113c-1.398 0-1.777-1.051-1.777-1.788V5.254h-1.071zM36.528 4.039h-1.394l2.191 6.106h1.125l1.234-3.918 1.238 3.918h1.129l2.188-6.106h-1.383l-1.359 3.93-1.256-3.93h-1.124l-1.242 3.957-1.348-3.957zM26.212 7.141c-.02 1.566 1.187 3.129 3.223 3.129 1.566 0 2.383-.918 2.734-1.719L31.172 8c-.315.399-.801 1.094-1.738 1.094-1.145 0-1.825-.781-1.891-1.52h4.625c.074-.284.148-.995-.03-1.559-.336-1.064-1.221-2.102-2.839-2.102s-3.088 1.152-3.088 3.227zm1.363-.75h3.348c-.055-.43-.566-1.301-1.623-1.301a1.79 1.79 0 0 0-1.725 1.301zm-8.758.75c.038 1.758 1.277 3.133 3.145 3.133 1.074 0 1.723-.477 1.961-.672v.547h1.242V1.703h-1.258v2.888c-.414-.36-1.062-.68-1.93-.68-1.91 0-3.198 1.473-3.16 3.23zm1.309-.08c0 1.119.723 1.978 1.836 1.978a1.88 1.88 0 0 0 1.94-1.904c0-1.371-1.011-1.99-1.972-1.99s-1.805.798-1.805 1.916zm76.683-.028C96.771 5.275 95.532 3.9 93.664 3.9c-1.074 0-1.723.477-1.961.672v-.547h-1.242v8.22h1.258V9.583c.414.36 1.063.68 1.93.68 1.91 0 3.198-1.473 3.16-3.23zm-1.309.08c0-1.119-.723-1.978-1.836-1.978a1.88 1.88 0 0 0-1.94 1.904c0 1.371 1.011 1.99 1.972 1.99S95.5 8.231 95.5 7.113zM106.441 10.173V4.036h1.254v.382c.361-.346 1-.485 1.47-.485 1.452 0 2.477 1.082 2.457 2.448v3.792h-1.27V6.492c0-.408-.214-1.339-1.315-1.339-.969 0-1.342.756-1.342 1.339v3.681h-1.254zm-30.383-.021V1.824h1.084l4.215 5.777V1.824h1.32v8.328h-1.094l-4.207-5.796v5.796h-1.319zM5.24 10.149H4V2.377h1.014l2.664 3.597 2.654-3.592h1.03v7.766h-1.256V4.762L7.678 8.068 5.24 4.742v5.407z" transform="translate(20, 388.99505615234375)" fill="#80808088" stroke="none"></path></svg>